<?xml version="1.0" encoding="UTF-8"?>
<svg version="1.1" xmlns="http://www.w3.org/2000/svg" width="469" height="532">
<path d="M0 0 C38.94 0 77.88 0 118 0 C118 2.97 118 5.94 118 9 C116.65808594 9.07347656 116.65808594 9.07347656 115.2890625 9.1484375 C98.0309896 10.03678231 98.0309896 10.03678231 84.40234375 19.7578125 C77.25647371 31.18324258 79.85424702 49.80649639 79.87060547 62.92211914 C79.86924703 64.77351414 79.86746462 66.62490887 79.86529541 68.4763031 C79.86077407 73.45967384 79.86248855 78.44302364 79.8656745 83.4263947 C79.8682253 88.66751867 79.86585307 93.90864097 79.86428833 99.14976501 C79.86247469 107.94628213 79.86485192 116.74279081 79.86962891 125.53930664 C79.87507166 135.67824448 79.87330551 145.81716221 79.8678025 155.95609957 C79.86325039 164.69625299 79.86263102 173.43640039 79.86524117 182.17655462 C79.8667922 187.38138403 79.86703008 192.58620401 79.86370468 197.79103279 C79.86079531 202.68557098 79.86285747 207.58008347 79.86859894 212.47461891 C79.86991013 214.26030179 79.86956069 216.04598688 79.86733627 217.83166885 C79.02559335 239.97166034 79.02559335 239.97166034 86.125 260.3125 C92.66065162 266.42191347 99.86948374 267.60968719 108.5625 267.75 C109.93245117 267.79447266 109.93245117 267.79447266 111.33007812 267.83984375 C113.55292976 267.90967155 115.77646377 267.95719853 118 268 C118 270.97 118 273.94 118 277 C78.73 277 39.46 277 -1 277 C-1 269 -1 269 0 268 C3.86457395 267.79480138 7.72289947 267.65396434 11.59179688 267.5703125 C18.75985911 267.3021387 24.14366852 265.77847055 30.3125 261.9375 C37.74223976 253.81662166 37.13514144 240.68828385 37.20532227 230.25756836 C37.21535499 229.31482591 37.22538771 228.37208345 37.23572445 227.40077305 C37.26684685 224.38048741 37.29177108 221.36018851 37.31640625 218.33984375 C37.33483398 216.46260171 37.35367191 214.58536364 37.3729248 212.70812988 C37.44107751 205.78463365 37.5013186 198.86106135 37.5625 191.9375 C37.706875 176.448125 37.85125 160.95875 38 145 C-3.58 145 -45.16 145 -88 145 C-87.9175 161.4175 -87.835 177.835 -87.75 194.75 C-87.72631348 202.49549316 -87.72631348 202.49549316 -87.70214844 210.39746094 C-87.66888542 215.06889887 -87.66888542 215.06889887 -87.63043213 219.74029541 C-87.61591898 221.8038967 -87.60905047 223.86756114 -87.60845947 225.93121338 C-88.31142124 244.19300999 -88.31142124 244.19300999 -81.01605225 260.2645874 C-76.16343331 264.88584769 -71.442309 267.17746284 -64.69921875 267.4140625 C-63.72275391 267.45273437 -62.74628906 267.49140625 -61.74023438 267.53125 C-60.73283203 267.5621875 -59.72542969 267.593125 -58.6875 267.625 C-57.66076172 267.66367187 -56.63402344 267.70234375 -55.57617188 267.7421875 C-53.05095735 267.83614897 -50.52574408 267.9218154 -48 268 C-48 270.97 -48 273.94 -48 277 C-87.93 277 -127.86 277 -169 277 C-169 269 -169 269 -168 268 C-166.555427 267.91551 -165.10719538 267.89179963 -163.66015625 267.89453125 C-153.16483089 267.76498268 -145.56692796 267.65412219 -137 261 C-136.34 261 -135.68 261 -135 261 C-129.2565921 250.49764217 -129.56353005 238.31642723 -129.59936523 226.69091797 C-129.5936102 224.98945131 -129.58652235 223.28798872 -129.57821655 221.58653259 C-129.56320814 217.95042003 -129.55732 214.31445329 -129.55874443 210.67831039 C-129.56079051 204.92991835 -129.54113292 199.18172082 -129.51856995 193.43338013 C-129.47775632 182.28339256 -129.45901345 171.13342092 -129.44239807 159.98337555 C-129.41997637 145.75429456 -129.3865784 131.52525884 -129.33519894 117.29625237 C-129.31526525 111.57934815 -129.30569672 105.86254725 -129.30424678 100.14560962 C-129.30150279 96.60003216 -129.29068827 93.05451225 -129.27773666 89.50895882 C-129.27344679 87.86217976 -129.27260382 86.21538768 -129.27541161 84.56860542 C-129.27879783 82.32594777 -129.27006414 80.08365555 -129.25828552 77.84103394 C-129.25665122 76.58492247 -129.25501692 75.328811 -129.25333309 74.03463554 C-129 71 -129 71 -127 68 C-126.34 68 -125.68 68 -125 68 C-124.73445313 67.27425781 -124.46890625 66.54851562 -124.1953125 65.80078125 C-122.99927052 62.99829072 -121.59670893 60.69520648 -119.875 58.1875 C-119.06675781 57.00220703 -119.06675781 57.00220703 -118.2421875 55.79296875 C-117.83226562 55.20128906 -117.42234375 54.60960937 -117 54 C-112.17428565 55.44029013 -108.0079119 57.45900963 -103.625 59.875 C-98.46245056 62.69190976 -93.26531705 65.36734148 -88 68 C-88 87.8 -88 107.6 -88 128 C-46.42 128 -4.84 128 38 128 C37.896875 113.500625 37.79375 99.00125 37.6875 84.0625 C37.65015747 77.24670288 37.65015747 77.24670288 37.61206055 70.29321289 C37.57540964 66.14743532 37.57540964 66.14743532 37.5349884 62.00169373 C37.51905279 60.18414582 37.50862163 58.36654365 37.50288391 56.54893494 C37.46922282 47.11614074 37.26037126 37.81030928 35.78051758 28.47827148 C35.68153262 27.79127954 35.58254766 27.10428759 35.48056316 26.3964777 C34.35588974 20.23355554 30.97090178 17.60422238 26.3125 13.8125 C18.05075291 9.2919214 8.21195363 9.50440092 -1 9 C-2.48576635 4.98843085 -1.80747878 4.51869696 0 0 Z " fill="#797979" transform="translate(351,255)"/>
<path d="M0 0 C3.3 0 6.6 0 10 0 C10.99 2.97 11.98 5.94 13 9 C79 9 145 9 213 9 C214.32 6.03 215.64 3.06 217 0 C220.3 0 223.6 0 227 0 C230.62700965 53.38906752 230.62700965 53.38906752 230 77 C223.84765625 77.09765625 223.84765625 77.09765625 222 77 C220.31370517 75.31370517 220.73323586 73.14564922 220.55688477 70.8815918 C219.66507324 60.4300395 216.63781721 51.59110273 209 44 C209 43.34 209 42.68 209 42 C208.43925781 41.73058594 207.87851563 41.46117187 207.30078125 41.18359375 C204.84767288 39.92163817 202.53303115 38.51414369 200.1875 37.0625 C189.29473476 30.5427427 179.83107157 29.91171485 167.3984375 29.68359375 C166.435961 29.66281265 165.4734845 29.64203156 164.48184204 29.62062073 C161.44629149 29.55591207 158.41066417 29.49661125 155.375 29.4375 C153.30077372 29.3942397 151.22655484 29.35062319 149.15234375 29.30664062 C144.10163858 29.20031297 139.0508572 29.09883079 134 29 C134.00607553 30.19897604 134.01215105 31.39795208 134.01841068 32.63326073 C134.16228709 61.07092713 134.30097683 89.50861558 134.4332476 117.94633832 C134.44951931 121.44371791 134.46583495 124.9410973 134.48217773 128.43847656 C134.48705712 129.48290949 134.48705712 129.48290949 134.49203508 130.54844208 C134.54486587 141.83442768 134.60125818 153.12039284 134.6589582 164.40635447 C134.71804974 175.9799351 134.7732581 187.55352876 134.82505554 199.12714446 C134.85428623 205.63074255 134.88531047 212.13432123 134.92053413 218.63788986 C134.9535967 224.75266178 134.9819845 230.86743715 135.00670624 236.98224831 C135.01664284 239.23254674 135.02832267 241.48283822 135.04183006 243.73311806 C135.05994492 246.79338291 135.07192311 249.85361049 135.08229065 252.91390991 C135.08909444 253.81467518 135.09589823 254.71544045 135.10290819 255.64350164 C135.11412121 261.77175758 135.11412121 261.77175758 134 264 C133.34 264 132.68 264 132 264 C131.7525 264.70125 131.505 265.4025 131.25 266.125 C130 269 130 269 128.12646484 271.75317383 C125.91788825 274.92238099 125.91788825 274.92238099 124.53369141 278.40112305 C122.26559709 282.69738762 120.34578787 285.67363504 116 288 C106.45875648 290.11987594 96.28134563 289.2841945 86.57250977 288.89263916 C82.89956922 288.75869374 79.22546941 288.7000814 75.55078125 288.63476562 C68.36400663 288.49609318 61.18299574 288.27481624 54 288 C53.97310784 286.52093108 53.95365379 285.04172517 53.9375 283.5625 C53.92589844 282.73878906 53.91429687 281.91507812 53.90234375 281.06640625 C54 279 54 279 55 278 C58.2491696 277.76142461 61.49096203 277.60531359 64.74609375 277.48242188 C71.875687 277.13189456 77.63982084 275.25404515 84 272 C84.66 272 85.32 272 86 272 C86 271.34 86 270.68 86 270 C86.66 270 87.32 270 88 270 C88.48220263 268.12577848 88.96061833 266.25058246 89.4375 264.375 C89.70433594 263.33085937 89.97117187 262.28671875 90.24609375 261.2109375 C91.7063574 254.99157624 92.14213908 249.20895833 92.12025452 242.85049438 C92.12110894 241.93881921 92.12196337 241.02714404 92.12284368 240.08784235 C92.12448842 237.03852193 92.11899357 233.98925674 92.11352539 230.93994141 C92.11324328 228.7518921 92.11340173 226.56384271 92.1139679 224.37579346 C92.11425492 218.4383133 92.10837344 212.50085332 92.10139394 206.56337786 C92.09514469 200.35738763 92.09455535 194.15139694 92.09336853 187.94540405 C92.09043659 176.86264671 92.08321422 165.77989772 92.07372581 154.6971442 C92.06515926 144.63777758 92.0589155 134.57841245 92.05493164 124.51904297 C92.05453756 123.52673795 92.05453756 123.52673795 92.05413551 122.51438637 C92.05283044 119.19554637 92.051569 115.87670636 92.05032361 112.55786633 C92.03986972 85.0385724 92.02227923 57.51928672 92 30 C86.13251437 29.92501247 80.26531675 29.87100797 74.39746094 29.83520508 C72.40750256 29.82025628 70.41757632 29.7998898 68.42773438 29.77368164 C51.43661291 29.55573718 35.6149076 29.41459558 22.28125 41.56640625 C21.17315241 42.69705234 20.08391734 43.84615251 19 45 C18.34 45 17.68 45 17 45 C11.5330284 55.7762421 8.06623121 64.90379077 7 77 C3.7 77 0.4 77 -3 77 C-2.41863576 51.30889999 -1.34824708 25.66183229 0 0 Z " fill="#797979" transform="translate(29,0)"/>
<path d="M0 0 C0.721875 0.103125 1.44375 0.20625 2.1875 0.3125 C2.6825 1.7975 2.6825 1.7975 3.1875 3.3125 C4.83756319 4.01926282 6.50762569 4.67985119 8.1875 5.3125 C9.83225785 6.42120799 11.43805553 7.58988343 13 8.8125 C13.79019531 9.4209375 14.58039063 10.029375 15.39453125 10.65625 C15.98621094 11.2028125 16.57789063 11.749375 17.1875 12.3125 C17.1875 12.9725 17.1875 13.6325 17.1875 14.3125 C17.785625 14.60125 18.38375 14.89 19 15.1875 C21.1875 16.3125 21.1875 16.3125 24.1875 18.3125 C24.1875 18.9725 24.1875 19.6325 24.1875 20.3125 C24.97125 20.621875 25.755 20.93125 26.5625 21.25 C29.1875 22.3125 29.1875 22.3125 31.1875 23.3125 C31.1875 23.9725 31.1875 24.6325 31.1875 25.3125 C32.2703125 25.6528125 32.2703125 25.6528125 33.375 26 C38.0430998 28.17844658 41.2413131 31.53549579 43.1875 36.3125 C42.1975 37.6325 41.2075 38.9525 40.1875 40.3125 C36.1885036 39.77323078 33.96962891 38.68782796 30.875 36.125 C27.23016423 33.15784726 23.52496789 30.33070591 19.71875 27.57421875 C18.1875 26.3125 18.1875 26.3125 17.1875 24.3125 C15.52901823 23.29898336 13.86084039 22.30129205 12.1875 21.3125 C10.50988308 19.9929709 8.84163849 18.66134447 7.1875 17.3125 C7.55359375 17.87453125 7.9196875 18.4365625 8.296875 19.015625 C13.03985917 26.37854328 17.54649646 33.87064642 22.01074219 41.40527344 C22.50735352 42.23961914 23.00396484 43.07396484 23.515625 43.93359375 C23.9580957 44.6805249 24.40056641 45.42745605 24.85644531 46.19702148 C26.19715253 48.327841 27.64946393 50.32065878 29.1875 52.3125 C27.8850667 55.21792812 26.47863732 57.1217961 24.1875 59.3125 C15.59285147 57.23667387 7.48033395 54.24557023 -0.75634766 51.08984375 C-4.09274129 49.82849522 -7.45113598 48.63039599 -10.8125 47.4375 C-11.9675 47.02757812 -13.1225 46.61765625 -14.3125 46.1953125 C-15.1375 45.90398437 -15.9625 45.61265625 -16.8125 45.3125 C-16.1628125 45.79460937 -15.513125 46.27671875 -14.84375 46.7734375 C-14.0084375 47.40507812 -13.173125 48.03671875 -12.3125 48.6875 C-11.4771875 49.31398438 -10.641875 49.94046875 -9.78125 50.5859375 C-9.1315625 51.15570313 -8.481875 51.72546875 -7.8125 52.3125 C-7.8125 52.9725 -7.8125 53.6325 -7.8125 54.3125 C-7.08675781 54.5703125 -6.36101562 54.828125 -5.61328125 55.09375 C-2.69202333 56.36492499 -0.50377351 57.85266402 2 59.8125 C2.79019531 60.4209375 3.58039063 61.029375 4.39453125 61.65625 C4.98621094 62.2028125 5.57789063 62.749375 6.1875 63.3125 C6.1875 63.9725 6.1875 64.6325 6.1875 65.3125 C6.765 65.580625 7.3425 65.84875 7.9375 66.125 C10.26113365 67.3513622 12.22574646 68.56093434 14.1875 70.3125 C14.1875 71.3025 14.1875 72.2925 14.1875 73.3125 C13.5275 73.3125 12.8675 73.3125 12.1875 73.3125 C11.5275 74.6325 10.8675 75.9525 10.1875 77.3125 C6.91317359 76.71063169 5.02022201 75.63186513 2.47265625 73.51171875 C1.78623047 72.94646484 1.09980469 72.38121094 0.39257812 71.79882812 C-0.31447266 71.20521484 -1.02152344 70.61160156 -1.75 70 C-3.15490454 68.83718717 -4.55985148 67.67442557 -5.96484375 66.51171875 C-6.95460205 65.68293213 -6.95460205 65.68293213 -7.96435547 64.83740234 C-9.55176989 63.52762817 -11.180526 62.26824609 -12.81640625 61.01953125 C-13.47511719 60.45621094 -14.13382813 59.89289063 -14.8125 59.3125 C-14.8125 58.6525 -14.8125 57.9925 -14.8125 57.3125 C-15.8953125 56.93544922 -15.8953125 56.93544922 -17 56.55078125 C-23.85783682 53.5314281 -29.71958647 47.7449411 -34.8125 42.3125 C-32.32278278 35.41789846 -32.32278278 35.41789846 -29.8125 33.3125 C-22.73508972 33.61262687 -16.8246243 35.47675952 -10.25 38 C-9.29851074 38.35578125 -8.34702148 38.7115625 -7.36669922 39.078125 C-4.51188379 40.14742321 -1.66222871 41.2297336 1.1875 42.3125 C2.84975714 42.93493943 4.51248567 43.55612211 6.17578125 44.17578125 C9.84991125 45.54539918 13.51995534 46.92534844 17.1875 48.3125 C16.87039062 47.8484375 16.55328125 47.384375 16.2265625 46.90625 C12.29351925 41.08273845 8.5601323 35.14709576 4.87939453 29.16210938 C2.14529149 24.74489555 -0.77338693 20.52558484 -3.8125 16.3125 C-6.29449314 12.53617233 -7.8125 9.99309817 -7.8125 5.3125 C-3.93438366 0.43715374 -3.93438366 0.43715374 0 0 Z " fill="#828282" transform="translate(186.8125,251.6875)"/>
<path d="M0 0 C0.99 0 1.98 0 3 0 C4.16220584 1.16220584 5.31816292 2.33134615 6.44140625 3.53125 C8.19438153 5.18317658 10.0176661 6.35298759 12.0625 7.625 C16.76265356 10.63529902 20.68551214 14.2414248 24.66235352 18.12939453 C27.87760407 21.20920313 30.99248143 23.10818258 35 25 C36.70779973 26.62449243 38.37550757 28.29220027 40 30 C41.64864545 31.35555293 43.31003995 32.69631653 45 34 C44.65488981 36.55381543 44.33908934 38.50587541 42.86743164 40.65039062 C40.07241239 42.67037578 37.85007614 42.34203249 34.43359375 42.28125 C33.77717392 42.27049438 33.12075409 42.25973877 32.44444275 42.24865723 C24.29041934 42.05500194 16.17738471 41.27698478 8.0625 40.5 C6.49289622 40.35484372 4.92323479 40.21030941 3.35351562 40.06640625 C-0.43168932 39.71806934 -4.21602534 39.36144664 -8 39 C-8 39.66 -8 40.32 -8 41 C-7.41734375 41.10441406 -6.8346875 41.20882812 -6.234375 41.31640625 C-3.66354577 42.10293617 -2.2659942 43.17565891 -0.25 44.9375 C0.36359375 45.46214844 0.9771875 45.98679688 1.609375 46.52734375 C3 48 3 48 3 50 C3.7425 50.2475 4.485 50.495 5.25 50.75 C8.24505695 52.11138952 9.72833173 53.6573421 12 56 C12.804375 56.474375 13.60875 56.94875 14.4375 57.4375 C17.42514365 59.25923393 19.60322121 61.46626243 22 64 C20.79618552 66.49361571 19.54571278 68.68143083 18 71 C13.49530107 68.87660662 9.7216387 65.97522051 5.75 63 C4.63238281 62.18015625 4.63238281 62.18015625 3.4921875 61.34375 C2.78835937 60.8178125 2.08453125 60.291875 1.359375 59.75 C0.71452148 59.27046875 0.06966797 58.7909375 -0.59472656 58.296875 C-1.0584668 57.86890625 -1.52220703 57.4409375 -2 57 C-2 56.34 -2 55.68 -2 55 C-2.7115625 54.77183594 -3.423125 54.54367188 -4.15625 54.30859375 C-7.5951432 52.72613603 -9.76824535 50.67531589 -12.5 48.0625 C-15.84750693 44.87014438 -18.96402063 42.26124481 -23 40 C-24.34631825 39.01755155 -25.68441297 38.02323436 -27 37 C-26.66546995 33.98922953 -26.19187404 32.25356403 -24.34765625 29.81640625 C-21.19154536 27.37449017 -19.60570201 27.73105432 -15.6875 28.1875 C-14.45773438 28.31511719 -13.22796875 28.44273437 -11.9609375 28.57421875 C-10.00027344 28.78498047 -10.00027344 28.78498047 -8 29 C-5.27234833 29.19372892 -2.54268115 29.34652135 0.1875 29.5 C6.63405337 29.87801779 6.63405337 29.87801779 10 31 C12.73865287 31.07051114 15.45027588 31.09357765 18.1875 31.0625 C18.93708984 31.05798828 19.68667969 31.05347656 20.45898438 31.04882812 C22.30602383 31.03706354 24.15302213 31.01912865 26 31 C25.175 30.35675781 24.35 29.71351563 23.5 29.05078125 C14.24073699 21.81283027 5.10160064 14.4349439 -4 7 C-2.92598892 4.08482708 -2.22189824 2.22189824 0 0 Z " fill="#7F7F7F" transform="translate(253,166)"/>
<path d="M0 0 C2.375 -0.1875 2.375 -0.1875 5 0 C7 3 7 3 6.78125 4.96484375 C5.93545839 7.1681309 4.94782033 8.70044219 3.5 10.5625 C2.70335937 11.59310547 2.70335937 11.59310547 1.890625 12.64453125 C-1.04114423 16.29712804 -4.0344243 19.89812416 -7.046875 23.484375 C-8.7263572 25.64754807 -10.07189279 27.43151726 -11 30 C-10.33770271 33.0895946 -10.33770271 33.0895946 -8.0625 34.125 C-7.0415625 34.558125 -7.0415625 34.558125 -6 35 C-5.34 35.33 -4.68 35.66 -4 36 C-4 36.66 -4 37.32 -4 38 C-2.68 38.33 -1.36 38.66 0 39 C0.70125 38.09378906 1.4025 37.18757813 2.125 36.25390625 C7.53569883 29.29524463 13.01565509 22.48161139 19 16 C20.9375 16.6875 20.9375 16.6875 23 18 C23.953125 20.33984375 23.953125 20.33984375 24 23 C22.671875 25.31640625 22.671875 25.31640625 20.75 27.5625 C20.12609375 28.30628906 19.5021875 29.05007812 18.859375 29.81640625 C18.24578125 30.53699219 17.6321875 31.25757813 17 32 C16.46890625 32.75152344 15.9378125 33.50304687 15.390625 34.27734375 C14.93171875 34.84582031 14.4728125 35.41429687 14 36 C13.34 36 12.68 36 12 36 C11.731875 36.763125 11.46375 37.52625 11.1875 38.3125 C10.04199033 40.90496926 9.00288478 42.08815544 7 44 C7 44.66 7 45.32 7 46 C7.99 46.33 8.98 46.66 10 47 C10 47.66 10 48.32 10 49 C10.70125 49.226875 11.4025 49.45375 12.125 49.6875 C15.69343613 51.31656867 18.06514511 53.40640731 21 56 C21.268125 55.2575 21.53625 54.515 21.8125 53.75 C22.95276751 51.10938051 24.09380306 49.14447156 26 47 C26.66 47 27.32 47 28 47 C28 46.34 28 45.68 28 45 C28.66 45 29.32 45 30 45 C30.66 43.35 31.32 41.7 32 40 C32.66 40 33.32 40 34 40 C34.2475 39.278125 34.495 38.55625 34.75 37.8125 C36.10983674 34.75286734 37.82917754 32.5326262 40 30 C44.75 30.75 44.75 30.75 47 33 C46.66868747 36.36144176 45.25431563 38.1401945 43 40.5625 C40.88166863 42.84887208 40.01082314 43.96753059 39 47 C38.34 47 37.68 47 37 47 C36.78085938 47.5259375 36.56171875 48.051875 36.3359375 48.59375 C34.50008674 51.90042857 32.08249606 54.64801116 29.625 57.5 C29.14289063 58.06847656 28.66078125 58.63695312 28.1640625 59.22265625 C25.55607731 62.27711716 22.89042324 65.20546758 20 68 C8.64447175 59.69951234 8.64447175 59.69951234 3.4375 54.9375 C-0.59659854 51.25419264 -4.90439751 48.11721438 -9.3515625 44.953125 C-12.47928026 42.64654848 -15.37264295 40.15576095 -18.24609375 37.54296875 C-20.09269403 35.91845403 -22.01597227 34.45204667 -24 33 C-23.67 31.68 -23.34 30.36 -23 29 C-22.34 29 -21.68 29 -21 29 C-20.75378906 28.45472656 -20.50757813 27.90945312 -20.25390625 27.34765625 C-15.77268096 18.95757401 -8.83387984 11.46766856 -2.75 4.1796875 C-0.97502933 2.12608863 -0.97502933 2.12608863 0 0 Z " fill="#7E7E7E" transform="translate(217,210)"/>
<path d="M0 0 C6.30136607 0 10.52954961 2.62244208 15 7 C15 7.66 15 8.32 15 9 C15.52980469 9.23589844 16.05960938 9.47179687 16.60546875 9.71484375 C25.94795608 14.7290009 35.20917684 22.41835369 40 32 C40.9991526 39.28496072 40.01616792 44.52163814 35.92578125 50.6328125 C32.05944302 55.38534997 26.95084907 61.43375453 20.6015625 62.34375 C5.98254765 63.11115235 -3.73137835 53.11546093 -14 44 C-19.11989629 39.44921955 -19.11989629 39.44921955 -25 36 C-25.3125 33.75 -25.3125 33.75 -25 31 C-22.48046875 28.828125 -22.48046875 28.828125 -20 27 C-19.3709375 27.50789063 -18.741875 28.01578125 -18.09375 28.5390625 C-14.14744563 31.71274704 -10.20756049 34.87767711 -6.125 37.875 C-1.45819955 41.3131938 2.88773632 45.13198912 7.265625 48.92578125 C11.72038286 52.30503328 15.45604198 52.38904969 21 52 C25.03510069 50.40472763 27.34800367 47.98289855 29.30859375 44.078125 C30.74714502 39.75434378 30.72751963 36.23399356 29 32 C24.38491438 26.59659959 19.06002067 22.62607794 13 19 C11.68030361 17.90801593 10.38745416 16.78268618 9.125 15.625 C6.52635393 13.27337352 3.95028417 11.26222631 1 9.375 C-2 7 -2 7 -2.5625 4.3125 C-2 2 -2 2 0 0 Z " fill="#838383" transform="translate(142,304)"/>
<path d="M0 0 C2.97 0.495 2.97 0.495 6 1 C6.495 2.485 6.495 2.485 7 4 C5.66311324 6.13104656 4.32170031 7.99041271 2.75 9.9375 C2.07795532 10.79214844 2.07795532 10.79214844 1.39233398 11.6640625 C-2.70275457 16.7965546 -7.1204369 21.59665908 -11.65234375 26.34375 C-14.06316577 28.905398 -14.06316577 28.905398 -15.69140625 31.84375 C-16.12324219 32.5553125 -16.55507812 33.266875 -17 34 C-17.66 34 -18.32 34 -19 34 C-19.268125 34.5775 -19.53625 35.155 -19.8125 35.75 C-21.02929189 38.05550043 -22.30333879 40.02056192 -24 42 C-24.66 42 -25.32 42 -26 42 C-26.22171875 42.53109375 -26.4434375 43.0621875 -26.671875 43.609375 C-28.46412628 46.83542731 -30.83574831 49.48305065 -33.25 52.25 C-36.41254378 55.9213053 -39.51834178 59.58144266 -42.375 63.5 C-44.66625061 66.63986195 -47.24842478 69.24842478 -50 72 C-52.38895048 74.95722276 -54.68708246 77.98315103 -57 81 C-58.61367464 83.07532958 -60.24173128 85.04078628 -62 87 C-62.66 87 -63.32 87 -64 87 C-64.268125 87.556875 -64.53625 88.11375 -64.8125 88.6875 C-66.10899496 91.21225334 -67.42476323 93.63714484 -69 96 C-69.66 96 -70.32 96 -71 96 C-71.22429687 96.54140625 -71.44859375 97.0828125 -71.6796875 97.640625 C-73.41148866 100.73532294 -75.71619268 103.17925605 -78.125 105.75 C-78.59292969 106.25660156 -79.06085938 106.76320313 -79.54296875 107.28515625 C-80.69126541 108.52719141 -81.84508672 109.76411494 -83 111 C-84.9375 110.1875 -84.9375 110.1875 -87 109 C-87.33 108.01 -87.66 107.02 -88 106 C-86.7421875 103.94921875 -86.7421875 103.94921875 -84.875 101.6875 C-83.90626953 100.50414062 -83.90626953 100.50414062 -82.91796875 99.296875 C-82.28503906 98.53890625 -81.65210937 97.7809375 -81 97 C-80.50113281 96.36578125 -80.00226563 95.7315625 -79.48828125 95.078125 C-78.3769238 93.6764129 -77.19477687 92.3313228 -76 91 C-75.34 91 -74.68 91 -74 91 C-73.61908203 89.89591797 -73.61908203 89.89591797 -73.23046875 88.76953125 C-71.92593939 85.83330485 -70.49293817 84.03072137 -68.3125 81.6875 C-67.60480469 80.91535156 -66.89710937 80.14320313 -66.16796875 79.34765625 C-65.45253906 78.57292969 -64.73710938 77.79820312 -64 77 C-62.70277724 75.54660673 -61.41070039 74.08859605 -60.125 72.625 C-59.57070313 71.99851562 -59.01640625 71.37203125 -58.4453125 70.7265625 C-56.82243808 68.85146036 -56.82243808 68.85146036 -55 66 C-54.34 66 -53.68 66 -53 66 C-52.75894531 65.2884375 -52.51789062 64.576875 -52.26953125 63.84375 C-50.81092601 60.57647425 -48.98004756 58.24335103 -46.6875 55.5 C-45.92824219 54.5821875 -45.16898438 53.664375 -44.38671875 52.71875 C-42.76904104 50.87602711 -41.0839915 49.09072686 -39.34375 47.36328125 C-36.83981445 44.99314538 -36.83981445 44.99314538 -34.8125 41.6875 C-34.214375 40.800625 -33.61625 39.91375 -33 39 C-32.34 39 -31.68 39 -31 39 C-30.62101562 38.14148438 -30.62101562 38.14148438 -30.234375 37.265625 C-28.8468726 34.71894338 -27.22161839 32.87445703 -25.25 30.75 C-22.66062618 27.89935603 -20.21168985 25.04535514 -17.9375 21.9375 C-14.88051519 17.77497548 -11.71485013 13.59995785 -8 10 C-7.34 10 -6.68 10 -6 10 C-5.62875 8.9171875 -5.62875 8.9171875 -5.25 7.8125 C-3.89016326 4.75286734 -2.17082246 2.5326262 0 0 Z " fill="#848484" transform="translate(92,407)"/>
<path d="M0 0 C1.0828125 0.4021875 1.0828125 0.4021875 2.1875 0.8125 C2.56726981 4.10773347 2.45371401 5.44788942 0.46484375 8.171875 C-0.30730469 8.96078125 -1.07945312 9.7496875 -1.875 10.5625 C-4.90281997 13.756163 -7.77524869 16.93230352 -10.4375 20.4375 C-13.25037933 24.13555115 -16.22591785 27.63154136 -19.33203125 31.0859375 C-20.9933954 32.95328377 -20.9933954 32.95328377 -22.8125 35.8125 C-23.4725 35.8125 -24.1325 35.8125 -24.8125 35.8125 C-25.07289063 36.38226563 -25.33328125 36.95203125 -25.6015625 37.5390625 C-29.78105265 45.3857182 -36.69908037 52.04762446 -42.50683594 58.74804688 C-45.28896409 61.97396101 -47.93853651 65.23305047 -50.4375 68.6875 C-51.22125 69.71875 -52.005 70.75 -52.8125 71.8125 C-53.4725 71.8125 -54.1325 71.8125 -54.8125 71.8125 C-55.4725 73.4625 -56.1325 75.1125 -56.8125 76.8125 C-57.4725 76.8125 -58.1325 76.8125 -58.8125 76.8125 C-59.4725 78.1325 -60.1325 79.4525 -60.8125 80.8125 C-61.4725 80.8125 -62.1325 80.8125 -62.8125 80.8125 C-63.17408203 81.87984375 -63.17408203 81.87984375 -63.54296875 82.96875 C-65.00157399 86.23602575 -66.83245244 88.56914897 -69.125 91.3125 C-70.26388672 92.68921875 -70.26388672 92.68921875 -71.42578125 94.09375 C-73.01313966 95.90193569 -74.66192223 97.6580258 -76.3671875 99.35546875 C-78.6693133 101.6686271 -80.65049809 104.03104651 -82.625 106.625 C-83.22957031 107.41519531 -83.83414062 108.20539063 -84.45703125 109.01953125 C-84.90433594 109.61121094 -85.35164063 110.20289063 -85.8125 110.8125 C-89.6875 109.9375 -89.6875 109.9375 -90.8125 108.8125 C-91.30797559 105.40905456 -91.06094239 104.14747253 -88.984375 101.34765625 C-87.78554688 100.12369141 -87.78554688 100.12369141 -86.5625 98.875 C-82.65689733 94.77556301 -82.65689733 94.77556301 -79.375 90.1875 C-78.6015625 89.011875 -78.6015625 89.011875 -77.8125 87.8125 C-77.1525 87.8125 -76.4925 87.8125 -75.8125 87.8125 C-75.55855469 87.23886719 -75.30460937 86.66523438 -75.04296875 86.07421875 C-73.67077381 83.55199376 -72.07603938 81.72936271 -70.125 79.625 C-67.31046515 76.53003143 -64.65895493 73.39109431 -62.125 70.0625 C-59.55938933 66.7052482 -56.80218056 63.80218056 -53.8125 60.8125 C-51.90934026 58.48939421 -50.05664421 56.12934607 -48.19921875 53.76953125 C-44.91009806 49.69446683 -41.47926394 45.74652116 -38.02514648 41.81079102 C-35.66925729 39.09928123 -33.50390277 36.42701768 -31.578125 33.390625 C-30.99546875 32.53984375 -30.4128125 31.6890625 -29.8125 30.8125 C-29.1525 30.8125 -28.4925 30.8125 -27.8125 30.8125 C-27.8125 30.1525 -27.8125 29.4925 -27.8125 28.8125 C-27.1525 28.8125 -26.4925 28.8125 -25.8125 28.8125 C-25.43738281 27.97525391 -25.43738281 27.97525391 -25.0546875 27.12109375 C-23.60802582 24.43248666 -21.86829053 22.23930765 -19.9375 19.875 C-19.25945312 19.04097656 -18.58140625 18.20695312 -17.8828125 17.34765625 C-17.19960938 16.51105469 -16.51640625 15.67445312 -15.8125 14.8125 C-15.10867188 13.88308594 -14.40484375 12.95367187 -13.6796875 11.99609375 C-13.06351562 11.27550781 -12.44734375 10.55492188 -11.8125 9.8125 C-11.1525 9.8125 -10.4925 9.8125 -9.8125 9.8125 C-9.585625 9.090625 -9.35875 8.36875 -9.125 7.625 C-7.15715261 3.40818416 -5.00762755 -0.33384184 0 0 Z " fill="#858585" transform="translate(385.8125,61.1875)"/>
<path d="M0 0 C2.5625 -0.375 2.5625 -0.375 6 0 C9 2.3125 9 2.3125 10.7421875 3.94921875 C13.74342939 6.67526026 16.9256187 9.13709937 20.125 11.625 C21.88067195 12.99590925 23.63585164 14.36736531 25.38769531 15.74316406 C26.88999653 16.91424927 28.4092419 18.06350789 29.9296875 19.2109375 C30.61289063 19.80132812 31.29609375 20.39171875 32 21 C32 21.66 32 22.32 32 23 C32.721875 23.268125 33.44375 23.53625 34.1875 23.8125 C36.97779843 24.990626 39.42249326 26.4188404 42 28 C43.31472947 26.37680325 44.62671662 24.751385 45.9375 23.125 C46.66839844 22.22007812 47.39929688 21.31515625 48.15234375 20.3828125 C50.0036252 18.15497253 50.0036252 18.15497253 51 16 C51.66 16 52.32 16 53 16 C53.433125 15.1028125 53.433125 15.1028125 53.875 14.1875 C55 12 55 12 57 9 C59.4375 8.625 59.4375 8.625 62 9 C63.8125 10.5 63.8125 10.5 65 12 C63.7190335 14.7655353 62.33818937 16.96241153 60.3203125 19.2421875 C59.80339844 19.83386719 59.28648437 20.42554688 58.75390625 21.03515625 C58.21636719 21.64230469 57.67882812 22.24945313 57.125 22.875 C53.40332234 27.0856572 50.04833079 31.25815211 47 36 C45.68456721 37.68083079 44.35683751 39.3524116 43 41 C39.61638481 40.38271885 37.47997439 39.13020282 34.75 37.0625 C34.04359375 36.53785156 33.3371875 36.01320313 32.609375 35.47265625 C32.07828125 34.98667969 31.5471875 34.50070312 31 34 C31 33.34 31 32.68 31 32 C30.34 32 29.68 32 29 32 C29 31.34 29 30.68 29 30 C27.35 29.34 25.7 28.68 24 28 C24 27.34 24 26.68 24 26 C23.21625 25.690625 22.4325 25.38125 21.625 25.0625 C19 24 19 24 17 23 C17 22.34 17 21.68 17 21 C16.34 21 15.68 21 15 21 C15 20.34 15 19.68 15 19 C14.484375 18.773125 13.96875 18.54625 13.4375 18.3125 C10.10452995 16.51782382 6.85296329 14.50034985 4 12 C4 11.34 4 10.68 4 10 C3.195625 9.7525 2.39125 9.505 1.5625 9.25 C-1 8 -1 8 -1.9375 6.125 C-2.0131712 3.55217933 -1.32168051 2.17688554 0 0 Z " fill="#828282" transform="translate(91,367)"/>
<path d="M0 0 C1.09898702 3.29696105 0.87124444 4.40494903 0.0625 7.6875 C-0.13214844 8.49574219 -0.32679688 9.30398438 -0.52734375 10.13671875 C-0.68332031 10.75160156 -0.83929688 11.36648438 -1 12 C-26.41705853 12.02336484 -51.83411545 12.04099681 -77.25118256 12.05181217 C-89.05287536 12.0569675 -100.85456148 12.06399569 -112.65625 12.07543945 C-122.94311099 12.08540958 -133.22996714 12.09185899 -143.51683283 12.09408849 C-148.96314753 12.09539164 -154.4094484 12.09845247 -159.85575867 12.10573006 C-164.98399613 12.11252698 -170.11221409 12.11460947 -175.24045563 12.11310768 C-177.12056331 12.11338236 -179.00067167 12.11536567 -180.88077545 12.11920547 C-183.45288937 12.12420009 -186.0249302 12.12297707 -188.5970459 12.12025452 C-189.33636903 12.12316736 -190.07569217 12.1260802 -190.83741903 12.12908131 C-195.63720561 12.1154031 -200.24652184 11.67370842 -205 11 C-204.67 10.34 -204.34 9.68 -204 9 C-138 9 -72 9 -4 9 C-2.68 6.03 -1.36 3.06 0 0 Z " fill="#9E9E9E" transform="translate(246,0)"/>
<path d="M0 0 C0.721875 0.268125 1.44375 0.53625 2.1875 0.8125 C2.56726981 4.10773347 2.45371401 5.44788942 0.46484375 8.171875 C-0.30730469 8.96078125 -1.07945312 9.7496875 -1.875 10.5625 C-4.90281997 13.756163 -7.77524869 16.93230352 -10.4375 20.4375 C-13.25037933 24.13555115 -16.22591785 27.63154136 -19.33203125 31.0859375 C-20.9933954 32.95328377 -20.9933954 32.95328377 -22.8125 35.8125 C-23.4725 35.8125 -24.1325 35.8125 -24.8125 35.8125 C-25.039375 36.328125 -25.26625 36.84375 -25.5 37.375 C-26.6607633 39.53070327 -27.88368849 41.53360972 -29.25 43.5625 C-29.66121094 44.17609375 -30.07242187 44.7896875 -30.49609375 45.421875 C-31.14771484 46.11023438 -31.14771484 46.11023438 -31.8125 46.8125 C-32.8025 46.8125 -33.7925 46.8125 -34.8125 46.8125 C-35.484375 45.05859375 -35.484375 45.05859375 -35.8125 42.8125 C-34.703125 40.84765625 -34.703125 40.84765625 -33.0625 38.875 C-31.24349944 36.62111195 -29.68584509 34.58958735 -28.25 32.0625 C-26.50433968 29.3301621 -24.37433301 27.76758308 -21.8125 25.8125 C-21.4825 25.1525 -21.1525 24.4925 -20.8125 23.8125 C-20.1525 23.8125 -19.4925 23.8125 -18.8125 23.8125 C-18.895 23.11125 -18.9775 22.41 -19.0625 21.6875 C-18.66856513 17.15724903 -16.09669976 14.29426896 -13.1875 10.9375 C-11.8125 9.8125 -11.8125 9.8125 -9.8125 9.8125 C-9.585625 9.090625 -9.35875 8.36875 -9.125 7.625 C-7.15715261 3.40818416 -5.00762755 -0.33384184 0 0 Z " fill="#7C7C7C" transform="translate(385.8125,61.1875)"/>
<path d="M0 0 C0.99 0 1.98 0 3 0 C4.16090387 1.16090387 5.31562869 2.32867768 6.4375 3.52734375 C8.20974822 5.1976877 10.06191279 6.39438641 12.125 7.6875 C17.94176367 11.44436423 23.20088467 16.01250818 28 21 C28 21.66 28 22.32 28 23 C26.1875 24.0625 26.1875 24.0625 24 25 C23.01 24.67 22.02 24.34 21 24 C21 24.66 21 25.32 21 26 C17.97479736 24.61344879 15.58062667 22.98026043 13.03125 20.84765625 C12.29519531 20.23599609 11.55914062 19.62433594 10.80078125 18.99414062 C10.04152344 18.35669922 9.28226562 17.71925781 8.5 17.0625 C6.99021062 15.80263331 5.47981388 14.54349404 3.96875 13.28515625 C3.30294922 12.72707275 2.63714844 12.16898926 1.95117188 11.59399414 C0.00646316 10.00528003 -1.98066025 8.49227407 -4 7 C-2.92598892 4.08482708 -2.22189824 2.22189824 0 0 Z " fill="#838383" transform="translate(253,166)"/>
<path d="M0 0 C2.375 -0.1875 2.375 -0.1875 5 0 C7 3 7 3 6.78125 4.96484375 C5.93545839 7.1681309 4.94782033 8.70044219 3.5 10.5625 C2.96890625 11.24699219 2.4378125 11.93148437 1.890625 12.63671875 C-8 25 -8 25 -11 28 C-11 27.34 -11 26.68 -11 26 C-12.32 25.34 -13.64 24.68 -15 24 C-15.5775 24.9075 -16.155 25.815 -16.75 26.75 C-18.66785116 29.52022946 -20.54402845 31.71945499 -23 34 C-23.33 32.68 -23.66 31.36 -24 30 C-23.01 29.67 -22.02 29.34 -21 29 C-20.2872144 27.69074109 -19.63040043 26.35085807 -19 25 C-13.93099734 17.78765583 -8.39622698 10.9433969 -2.75 4.1796875 C-0.97502933 2.12608863 -0.97502933 2.12608863 0 0 Z " fill="#878787" transform="translate(217,210)"/>
<path d="M0 0 C4.75 0.75 4.75 0.75 7 3 C6.66868747 6.36144176 5.25431563 8.1401945 3 10.5625 C0.88166863 12.84887208 0.01082314 13.96753059 -1 17 C-1.66 17 -2.32 17 -3 17 C-3.3403125 17.804375 -3.3403125 17.804375 -3.6875 18.625 C-5.43382056 21.78500863 -7.6402849 24.2676983 -10 27 C-10.66 26.01 -11.32 25.02 -12 24 C-12.66 23.34 -13.32 22.68 -14 22 C-14.66 22 -15.32 22 -16 22 C-16.66 23.32 -17.32 24.64 -18 26 C-18 21.9666466 -16.39120082 20.16482462 -14 17 C-13.34 17 -12.68 17 -12 17 C-12 16.34 -12 15.68 -12 15 C-11.34 15 -10.68 15 -10 15 C-9.34 13.35 -8.68 11.7 -8 10 C-7.34 10 -6.68 10 -6 10 C-5.62875 8.9171875 -5.62875 8.9171875 -5.25 7.8125 C-3.89016326 4.75286734 -2.17082246 2.5326262 0 0 Z M-12 20 C-11 22 -11 22 -11 22 Z " fill="#8D8D8D" transform="translate(257,240)"/>
<path d="M0 0 C0.495 1.98 0.495 1.98 1 4 C0.34 4 -0.32 4 -1 4 C-1.2475 4.61875 -1.495 5.2375 -1.75 5.875 C-3 8 -3 8 -5.0625 9 C-5.701875 9.33 -6.34125 9.66 -7 10 C-7.21462891 10.91652344 -7.21462891 10.91652344 -7.43359375 11.8515625 C-8.11324489 14.42954958 -9.1517098 15.48227975 -11 17.375 C-13.80114799 20.47770698 -14.79158674 22.72752816 -15 27 C-14.34 27.33 -13.68 27.66 -13 28 C-13.6290625 28.67804688 -14.258125 29.35609375 -14.90625 30.0546875 C-19.98233703 35.57416768 -24.82767173 41.15316368 -29.40625 47.1015625 C-31 49 -31 49 -33 50 C-32.67 48.35 -32.34 46.7 -32 45 C-31.34 45 -30.68 45 -30 45 C-29.34 43.35 -28.68 41.7 -28 40 C-28.78375 40.515625 -29.5675 41.03125 -30.375 41.5625 C-31.24125 42.036875 -32.1075 42.51125 -33 43 C-33.66 42.67 -34.32 42.34 -35 42 C-29.50909378 35.20569685 -23.92184506 28.51725744 -18.16308594 21.94873047 C-15.82550629 19.25482197 -13.68191672 16.59679874 -11.76953125 13.58203125 C-11.18558594 12.72996094 -10.60164063 11.87789062 -10 11 C-9.34 11 -8.68 11 -8 11 C-8 10.34 -8 9.68 -8 9 C-7.34 9 -6.68 9 -6 9 C-5.7525 8.443125 -5.505 7.88625 -5.25 7.3125 C-3.78393985 4.60028873 -1.97010529 2.36412635 0 0 Z " fill="#888888" transform="translate(366,81)"/>
<path d="M0 0 C1.9375 0.6875 1.9375 0.6875 4 2 C4.83203125 4.296875 4.83203125 4.296875 5 7 C3.671875 9.31640625 3.671875 9.31640625 1.75 11.5625 C1.12609375 12.30628906 0.5021875 13.05007812 -0.140625 13.81640625 C-0.75421875 14.53699219 -1.3678125 15.25757813 -2 16 C-2.53109375 16.75152344 -3.0621875 17.50304687 -3.609375 18.27734375 C-4.06828125 18.84582031 -4.5271875 19.41429687 -5 20 C-5.66 20 -6.32 20 -7 20 C-7.268125 20.78375 -7.53625 21.5675 -7.8125 22.375 C-9 25 -9 25 -12 27 C-12.66 25.68 -13.32 24.36 -14 23 C-15.65 23.33 -17.3 23.66 -19 24 C-15.24522134 17.90400641 -11.02719424 12.59761908 -6.1484375 7.359375 C-3.98602879 4.98465707 -1.98062137 2.52730871 0 0 Z " fill="#7E7E7E" transform="translate(236,226)"/>
<path d="M0 0 C1.125 3.75 1.125 3.75 0 6 C0.28112064 8.00800456 0.61067967 10.01014051 1 12 C0.34 12 -0.32 12 -1 12 C-1.33644531 12.81210937 -1.33644531 12.81210937 -1.6796875 13.640625 C-3.41148866 16.73532294 -5.71619268 19.17925605 -8.125 21.75 C-8.59292969 22.25660156 -9.06085937 22.76320313 -9.54296875 23.28515625 C-10.69126541 24.52719141 -11.84508672 25.76411494 -13 27 C-14.9375 26.1875 -14.9375 26.1875 -17 25 C-17.33 24.01 -17.66 23.02 -18 22 C-16.7421875 19.94921875 -16.7421875 19.94921875 -14.875 17.6875 C-13.90626953 16.50414062 -13.90626953 16.50414062 -12.91796875 15.296875 C-12.28503906 14.53890625 -11.65210938 13.7809375 -11 13 C-10.50113281 12.36578125 -10.00226562 11.7315625 -9.48828125 11.078125 C-8.3769238 9.6764129 -7.19477687 8.3313228 -6 7 C-5.34 7 -4.68 7 -4 7 C-3.71125 6.21625 -3.4225 5.4325 -3.125 4.625 C-2 2 -2 2 0 0 Z " fill="#919191" transform="translate(22,491)"/>
<path d="M0 0 C0.66 0.33 1.32 0.66 2 1 C1.52891903 5.6855732 -0.29101363 7.83126584 -3.5 11.1875 C-6.61845094 14.3345872 -6.61845094 14.3345872 -9 18 C-9.66 18 -10.32 18 -11 18 C-11.268125 18.598125 -11.53625 19.19625 -11.8125 19.8125 C-12.98493467 21.97224808 -14.19369282 23.35790256 -16 25 C-17.76062164 21.67438135 -18.10784228 20.40826005 -17.125 16.6875 C-16.568125 15.3571875 -16.568125 15.3571875 -16 14 C-14.35 13.67 -12.7 13.34 -11 13 C-10.814375 12.1028125 -10.814375 12.1028125 -10.625 11.1875 C-10 9 -10 9 -8 6 C-7.01 6 -6.02 6 -5 6 C-4.67 5.01 -4.34 4.02 -4 3 C-3.34 3 -2.68 3 -2 3 C-2 2.34 -2 1.68 -2 1 C-1.34 0.67 -0.68 0.34 0 0 Z " fill="#7E7E7E" transform="translate(39,476)"/>
<path d="M0 0 C2.4375 -0.375 2.4375 -0.375 5 0 C6.8125 1.5 6.8125 1.5 8 3 C6.55575365 6.23861303 4.74227753 8.61969163 2.375 11.25 C1.74335938 11.95640625 1.11171875 12.6628125 0.4609375 13.390625 C-0.02117187 13.92171875 -0.50328125 14.4528125 -1 15 C-2.65 14.67 -4.3 14.34 -6 14 C-6 13.34 -6 12.68 -6 12 C-6.66 12 -7.32 12 -8 12 C-8 12.66 -8 13.32 -8 14 C-8.66 13.67 -9.32 13.34 -10 13 C-8.7260411 10.96166576 -7.38938077 8.96147874 -6 7 C-5.34 7 -4.68 7 -4 7 C-3.71125 6.401875 -3.4225 5.80375 -3.125 5.1875 C-2 3 -2 3 0 0 Z " fill="#888888" transform="translate(148,376)"/>
<path d="M0 0 C3.125 0.375 3.125 0.375 6 1 C6.33 1.99 6.66 2.98 7 4 C3.93837124 9.39942197 0.02412436 14.03865718 -6 16 C-6.66 15.67 -7.32 15.34 -8 15 C-7.34413394 11.77225466 -6.17647493 9.23896739 -4.5625 6.375 C-4.13066406 5.59898437 -3.69882813 4.82296875 -3.25390625 4.0234375 C-2 2 -2 2 0 0 Z " fill="#7B7B7B" transform="translate(92,407)"/>
<path d="M0 0 C6.22907244 3.50385325 12.14064213 7.73569564 17 13 C15.79618552 15.49361571 14.54571278 17.68143083 13 20 C10.11562221 18.70700306 8.12780579 17.34058637 6 15 C6.66 14.67 7.32 14.34 8 14 C7.34 12.68 6.68 11.36 6 10 C5.34 10 4.68 10 4 10 C3.896875 9.236875 3.79375 8.47375 3.6875 7.6875 C2.94399108 4.78105605 2.15141968 3.96433971 0 2 C0 1.34 0 0.68 0 0 Z " fill="#868686" transform="translate(258,217)"/>
<path d="M0 0 C3.29714793 0.32971479 4.6226839 0.6226839 7 3 C6.74329274 6.87545156 4.48940667 8.99556105 1.9375 11.75 C0.83728516 12.94882813 0.83728516 12.94882813 -0.28515625 14.171875 C-0.85105469 14.77515625 -1.41695312 15.3784375 -2 16 C-4.475 15.01 -4.475 15.01 -7 14 C-6.67 13.34 -6.34 12.68 -6 12 C-5.34 12 -4.68 12 -4 12 C-4 11.34 -4 10.68 -4 10 C-3.34 10 -2.68 10 -2 10 C-2.04125 8.72125 -2.0825 7.4425 -2.125 6.125 C-2.1953125 3.9453125 -2.1953125 3.9453125 -2 2 C-1.34 1.34 -0.68 0.68 0 0 Z " fill="#828282" transform="translate(257,240)"/>
<path d="M0 0 C1.98 0.99 3.96 1.98 6 3 C6 6 6 6 4.6875 7.38671875 C3.125 8.59114583 1.5625 9.79557292 0 11 C-0.66 10.34 -1.32 9.68 -2 9 C-2.66 9 -3.32 9 -4 9 C-4 9.66 -4 10.32 -4 11 C-5.97290587 13.34869747 -7.00306862 14.00102287 -10 15 C-10.474375 15.99 -10.94875 16.98 -11.4375 18 C-13 21 -13 21 -15.1875 21.875 C-15.785625 21.91625 -16.38375 21.9575 -17 22 C-14.85124858 18.1391789 -12.37861544 15.04603388 -9.375 11.8125 C-6.33478018 8.65084065 -6.33478018 8.65084065 -4 5 C-3.34 5 -2.68 5 -2 5 C-1.34 3.35 -0.68 1.7 0 0 Z " fill="#8D8D8D" transform="translate(41,468)"/>
<path d="M0 0 C2.6875 -0.375 2.6875 -0.375 6 0 C8.06398076 1.823983 9.39041053 3.72763839 11 6 C6.25 10.875 6.25 10.875 4 12 C4 11.34 4 10.68 4 10 C3.195625 9.7525 2.39125 9.505 1.5625 9.25 C-1 8 -1 8 -1.9375 6.125 C-2.0131712 3.55217933 -1.32168051 2.17688554 0 0 Z " fill="#898989" transform="translate(91,367)"/>
<path d="M0 0 C0.33 1.32 0.66 2.64 1 4 C0.34 4 -0.32 4 -1 4 C-1.2475 4.61875 -1.495 5.2375 -1.75 5.875 C-3 8 -3 8 -5.0625 9 C-5.701875 9.33 -6.34125 9.66 -7 10 C-7.21462891 10.91652344 -7.21462891 10.91652344 -7.43359375 11.8515625 C-8.11324489 14.42954958 -9.1517098 15.48227975 -11 17.375 C-13.80114799 20.47770698 -14.79158674 22.72752816 -15 27 C-14.34 27.33 -13.68 27.66 -13 28 C-14.32 28.99 -15.64 29.98 -17 31 C-17.33 29.68 -17.66 28.36 -18 27 C-19.32 26.67 -20.64 26.34 -22 26 C-21.46890625 25.41992188 -20.9378125 24.83984375 -20.390625 24.2421875 C-15.68611061 19.09067812 -15.68611061 19.09067812 -11.625 13.4375 C-10.820625 12.2309375 -10.820625 12.2309375 -10 11 C-9.34 11 -8.68 11 -8 11 C-8 10.34 -8 9.68 -8 9 C-7.34 9 -6.68 9 -6 9 C-5.7525 8.443125 -5.505 7.88625 -5.25 7.3125 C-3.78393985 4.60028873 -1.97010529 2.36412635 0 0 Z " fill="#939393" transform="translate(366,81)"/>
<path d="M0 0 C3.26460973 1.80412643 4.88929795 2.83394693 7 6 C6.5390625 8.04296875 6.5390625 8.04296875 5.625 10.1875 C5.18027344 11.26064453 5.18027344 11.26064453 4.7265625 12.35546875 C4.48679687 12.89816406 4.24703125 13.44085938 4 14 C1.17607006 12.51869746 -1.50064169 10.98861987 -4 9 C-4.75 6.4375 -4.75 6.4375 -4 4 C-2 1.6875 -2 1.6875 0 0 Z " fill="#8E8E8E" transform="translate(121,331)"/>
<path d="M0 0 C1.15224028 0.92961422 2.29659176 1.8690125 3.4375 2.8125 C4.07558594 3.33457031 4.71367187 3.85664063 5.37109375 4.39453125 C7 6 7 6 8 9 C6.5625 11.1875 6.5625 11.1875 5 13 C1.31245243 12.50168276 -0.60490662 11.89932357 -3 9 C-2.01 8.01 -1.02 7.02 0 6 C-0.66 5.34 -1.32 4.68 -2 4 C-1.34 2.68 -0.68 1.36 0 0 Z " fill="#8A8A8A" transform="translate(222,279)"/>
<path d="M0 0 C1.8828125 0.796875 1.8828125 0.796875 3.1328125 2.859375 C3.3803125 3.49875 3.6278125 4.138125 3.8828125 4.796875 C3.2228125 4.796875 2.5628125 4.796875 1.8828125 4.796875 C1.2228125 6.116875 0.5628125 7.436875 -0.1171875 8.796875 C-2.95685981 8.796875 -5.35454461 8.39420319 -8.1171875 7.796875 C-8.4471875 9.116875 -8.7771875 10.436875 -9.1171875 11.796875 C-10.1071875 11.796875 -11.0971875 11.796875 -12.1171875 11.796875 C-12.1171875 11.136875 -12.1171875 10.476875 -12.1171875 9.796875 C-11.4571875 9.796875 -10.7971875 9.796875 -10.1171875 9.796875 C-9.9109375 9.260625 -9.7046875 8.724375 -9.4921875 8.171875 C-7.45387463 4.65115277 -4.47222293 -0.42906936 0 0 Z " fill="#949494" transform="translate(71.1171875,436.203125)"/>
<path d="M0 0 C3 0 3 0 5.1875 2 C6.0846875 2.99 6.0846875 2.99 7 4 C5.84826645 6.46800047 4.95216435 8.04783565 3 10 C0.5 9.875 0.5 9.875 -2 9 C-3.3125 6.9375 -3.3125 6.9375 -4 5 C-2.1875 2.5 -2.1875 2.5 0 0 Z " fill="#8F8F8F" transform="translate(253,166)"/>
<path d="M0 0 C0.703125 1.73828125 0.703125 1.73828125 1 4 C-0.328125 6.10546875 -0.328125 6.10546875 -2.25 8.1875 C-3.18585938 9.22970703 -3.18585938 9.22970703 -4.140625 10.29296875 C-6 12 -6 12 -9 13 C-9.75 11.4375 -9.75 11.4375 -10 9 C-8.01092486 4.14622426 -5.76538396 0 0 0 Z " fill="#7C7C7C" transform="translate(386,64)"/>
<path d="M0 0 C0.721875 0.268125 1.44375 0.53625 2.1875 0.8125 C2.1875 2.4625 2.1875 4.1125 2.1875 5.8125 C1.5275 5.4825 0.8675 5.1525 0.1875 4.8125 C0.1875 4.1525 0.1875 3.4925 0.1875 2.8125 C-2.79470128 3.36089062 -2.79470128 3.36089062 -5.8125 4.8125 C-7.22094651 7.70440405 -7.22094651 7.70440405 -7.8125 10.8125 C-8.1425 11.8025 -8.4725 12.7925 -8.8125 13.8125 C-8.42317144 15.95505793 -8.42317144 15.95505793 -7.8125 17.8125 C-8.4725 18.1425 -9.1325 18.4725 -9.8125 18.8125 C-10.4725 17.1625 -11.1325 15.5125 -11.8125 13.8125 C-13.7925 14.8025 -13.7925 14.8025 -15.8125 15.8125 C-14.81352287 12.81556862 -14.16119747 11.78540587 -11.8125 9.8125 C-11.1525 9.8125 -10.4925 9.8125 -9.8125 9.8125 C-9.585625 9.090625 -9.35875 8.36875 -9.125 7.625 C-7.15715261 3.40818416 -5.00762755 -0.33384184 0 0 Z " fill="#AEAEAE" transform="translate(385.8125,61.1875)"/>
<path d="M0 0 C1.5 1.125 1.5 1.125 3 3 C3.1875 6.1875 3.1875 6.1875 3 9 C3.66 9 4.32 9 5 9 C5 10.32 5 11.64 5 13 C0.40693504 11.5140084 -2.43569245 9.14985318 -6 6 C-4 4 -2 2 0 0 Z " fill="#808080" transform="translate(260,171)"/>
<path d="M0 0 C3 1.8125 3 1.8125 6 4 C6 4.99 6 5.98 6 7 C5.34 7 4.68 7 4 7 C3.34 8.32 2.68 9.64 2 11 C0.125 10.75 0.125 10.75 -2 10 C-3.25 7.9375 -3.25 7.9375 -4 6 C-3.34 6 -2.68 6 -2 6 C-1.7834375 5.071875 -1.7834375 5.071875 -1.5625 4.125 C-1 2 -1 2 0 0 Z " fill="#858585" transform="translate(195,318)"/>
<path d="M0 0 C0.99 0.66 1.98 1.32 3 2 C2.3503125 2.61875 2.3503125 2.61875 1.6875 3.25 C-2.07015401 7.14682638 -3.99082772 11.02490672 -6 16 C-6.99 16 -7.98 16 -9 16 C-9.66796875 14.25 -9.66796875 14.25 -10 12 C-8.92578125 10 -8.92578125 10 -7.3125 8 C-6.75949219 7.3090625 -6.20648438 6.618125 -5.63671875 5.90625 C-3.85215559 3.82780889 -2.01359098 1.85869937 0 0 Z " fill="#767676" transform="translate(360,92)"/>
<path d="M0 0 C0.66 1.65 1.32 3.3 2 5 C1.01 5 0.02 5 -1 5 C-1 5.66 -1 6.32 -1 7 C-2.65 7 -4.3 7 -6 7 C-6 6.34 -6 5.68 -6 5 C-6.99 4.67 -7.98 4.34 -9 4 C-9 2.68 -9 1.36 -9 0 C-5.93109813 -1.53445094 -3.29905734 -0.54984289 0 0 Z " fill="#757575" transform="translate(159,358)"/>
<path d="M0 0 C1 3 1 3 -1 12 C-13.21 12 -25.42 12 -38 12 C-38 11.67 -38 11.34 -38 11 C-26.78 11 -15.56 11 -4 11 C-3.01 7.7 -2.02 4.4 -1 1 C-0.67 0.67 -0.34 0.34 0 0 Z " fill="#8C8C8C" transform="translate(246,0)"/>
<path d="M0 0 C2.27076842 -0.02699725 4.54162821 -0.04639453 6.8125 -0.0625 C8.07707031 -0.07410156 9.34164062 -0.08570313 10.64453125 -0.09765625 C14 0 14 0 17 1 C18.40824893 1.08021999 19.81997231 1.10765977 21.23046875 1.09765625 C22.03291016 1.09443359 22.83535156 1.09121094 23.66210938 1.08789062 C24.49548828 1.07951172 25.32886719 1.07113281 26.1875 1.0625 C27.4549707 1.05573242 27.4549707 1.05573242 28.74804688 1.04882812 C30.83206155 1.03705403 32.91603977 1.0191189 35 1 C35 1.66 35 2.32 35 3 C31.18751655 3.02936502 27.37506274 3.04692035 23.5625 3.0625 C22.49322266 3.07087891 21.42394531 3.07925781 20.32226562 3.08789062 C14.13269973 3.10681896 8.11810263 2.98960154 2 2 C1.34 1.34 0.68 0.68 0 0 Z " fill="#A8A8A8" transform="translate(246,196)"/>
<path d="M0 0 C1.53202706 0.25195908 3.05257128 0.57596777 4.5625 0.9375 C5.38878906 1.13214844 6.21507812 1.32679688 7.06640625 1.52734375 C8.02353516 1.76130859 8.02353516 1.76130859 9 2 C7.625 4.5 7.625 4.5 6 7 C5.34 7 4.68 7 4 7 C4 7.66 4 8.32 4 9 C0.62537285 8.45276317 -1.08235 7.9451 -4 6 C-2.02 5.34 -0.04 4.68 2 4 C1.01 3.01 0.02 2.02 -1 1 C-0.67 0.67 -0.34 0.34 0 0 Z " fill="#8E8E8E" transform="translate(190,296)"/>
<path d="M0 0 C0.7425 0.45375 1.485 0.9075 2.25 1.375 C4.46930578 2.68640796 6.67967822 3.88280803 9 5 C7.02 5.33 5.04 5.66 3 6 C3.33 7.32 3.66 8.64 4 10 C4.99 10 5.98 10 7 10 C6.67 10.99 6.34 11.98 6 13 C1.56909529 11.79157144 -0.98112756 10.48331435 -4 7 C-1.525 7.495 -1.525 7.495 1 8 C1 4.88742431 0.82638376 2.89234315 0 0 Z " fill="#898989" transform="translate(147,352)"/>
<path d="M0 0 C3.125 0.375 3.125 0.375 6 1 C6.33 1.99 6.66 2.98 7 4 C6.01 4.99 5.02 5.98 4 7 C4 6.34 4 5.68 4 5 C1.36 5.66 -1.28 6.32 -4 7 C-2.92598892 4.08482708 -2.22189824 2.22189824 0 0 Z " fill="#979797" transform="translate(92,407)"/>
<path d="M0 0 C4.63708939 2.60836278 8.78744458 5.77002574 13 9 C12.01 9.495 12.01 9.495 11 10 C10.34 9.67 9.68 9.34 9 9 C8.67 9.66 8.34 10.32 8 11 C6.68 10.67 5.36 10.34 4 10 C3.896875 9.236875 3.79375 8.47375 3.6875 7.6875 C2.94399108 4.78105605 2.15141968 3.96433971 0 2 C0 1.34 0 0.68 0 0 Z " fill="#939393" transform="translate(258,217)"/>
<path d="M0 0 C0 3 0 3 -1 5 C-1.66 5 -2.32 5 -3 5 C-3.04125 6.0725 -3.0825 7.145 -3.125 8.25 C-4 12 -4 12 -7.0625 14.4375 C-8.031875 14.953125 -9.00125 15.46875 -10 16 C-10.66 15.67 -11.32 15.34 -12 15 C-10.37676928 12.87362766 -8.7515047 10.74886564 -7.125 8.625 C-6.66480469 8.02171875 -6.20460938 7.4184375 -5.73046875 6.796875 C-3.90627059 4.41748609 -2.12258788 2.12258788 0 0 Z " fill="#A5A5A5" transform="translate(328,126)"/>
<path d="M0 0 C0 0.99 0 1.98 0 3 C-3.19457351 4.88414642 -5.51502629 5.23819737 -9.203125 5.1953125 C-10.1828125 5.18886719 -11.1625 5.18242187 -12.171875 5.17578125 C-13.18765625 5.15902344 -14.2034375 5.14226562 -15.25 5.125 C-16.28125 5.11597656 -17.3125 5.10695313 -18.375 5.09765625 C-20.91690287 5.07412011 -23.4583328 5.04124023 -26 5 C-26 4.67 -26 4.34 -26 4 C-24.38931641 3.92652344 -24.38931641 3.92652344 -22.74609375 3.8515625 C-21.30987358 3.77646602 -19.87367681 3.70092124 -18.4375 3.625 C-17.73302734 3.5940625 -17.02855469 3.563125 -16.30273438 3.53125 C-10.54147251 3.21265487 -5.47489393 1.82496464 0 0 Z " fill="#C9C9C9" transform="translate(110,274)"/>
<path d="M0 0 C0.99 0.33 1.98 0.66 3 1 C2.40072174 4.35595828 1.15377564 6.37801226 -1 9 C-1.99 8.67 -2.98 8.34 -4 8 C-4.6875 5.9375 -4.6875 5.9375 -5 4 C-2.6875 1.9375 -2.6875 1.9375 0 0 Z " fill="#7D7D7D" transform="translate(221,212)"/>
<path d="M0 0 C2.475 0.495 2.475 0.495 5 1 C5.12375 1.804375 5.2475 2.60875 5.375 3.4375 C5.684375 4.7059375 5.684375 4.7059375 6 6 C6.66 6.33 7.32 6.66 8 7 C7.34 8.32 6.68 9.64 6 11 C4.02 10.34 2.04 9.68 0 9 C0 8.34 0 7.68 0 7 C0.99 7 1.98 7 3 7 C3 5.02 3 3.04 3 1 C2.01 0.67 1.02 0.34 0 0 Z " fill="#797979" transform="translate(142,350)"/>
<path d="M0 0 C1.34771696 2.21976911 2.04398726 3.50147776 1.8125 6.125 C1 8 1 8 -2 10 C-4 8 -4 8 -4.375 5.5625 C-4 3 -4 3 -2 1.1875 C-1.34 0.795625 -0.68 0.40375 0 0 Z " fill="#7B7B7B" transform="translate(374,74)"/>
<path d="M0 0 C0.99 0.33 1.98 0.66 3 1 C-0.625 5.875 -0.625 5.875 -4 7 C-4.474375 7.99 -4.94875 8.98 -5.4375 10 C-7 13 -7 13 -9.1875 13.875 C-10.0846875 13.936875 -10.0846875 13.936875 -11 14 C-8.93687686 10.33584124 -6.64127824 7.29451872 -3.8125 4.1875 C-3.09707031 3.39730469 -2.38164063 2.60710937 -1.64453125 1.79296875 C-1.10183594 1.20128906 -0.55914062 0.60960937 0 0 Z " fill="#9C9C9C" transform="translate(35,476)"/>
<path d="M0 0 C0.75667969 0.0825 1.51335937 0.165 2.29296875 0.25 C2.29296875 1.24 2.29296875 2.23 2.29296875 3.25 C0.66232111 4.30771739 -1.00983998 5.30273046 -2.70703125 6.25 C-4.4585229 7.83245275 -4.4585229 7.83245275 -5.70703125 9.25 C-6.69703125 8.92 -7.68703125 8.59 -8.70703125 8.25 C-7.83202308 6.90290838 -6.93112192 5.57261014 -6.01953125 4.25 C-5.52066406 3.5075 -5.02179688 2.765 -4.5078125 2 C-2.70703125 0.25 -2.70703125 0.25 0 0 Z " fill="#A0A0A0" transform="translate(219.70703125,209.75)"/>
<path d="M0 0 C0.33 0 0.66 0 1 0 C1 1.98 1 3.96 1 6 C-2.3171411 7.4216319 -5.44219804 8.39009109 -9 9 C-9 8.34 -9 7.68 -9 7 C-3.58823529 3 -3.58823529 3 -1 3 C-0.67 2.01 -0.34 1.02 0 0 Z " fill="#787878" transform="translate(325,135)"/>
<path d="M0 0 C0.99 0.66 1.98 1.32 3 2 C1.35 3.65 -0.3 5.3 -2 7 C-2.66 6.67 -3.32 6.34 -4 6 C-4.99 6.33 -5.98 6.66 -7 7 C-6.875 5.1875 -6.875 5.1875 -6 3 C-2.9375 1.25 -2.9375 1.25 0 0 Z " fill="#797979" transform="translate(320,142)"/>
<path d="M0 0 C-0.56371414 3.26954202 -1.49962266 4.82575883 -4 7 C-4 6.01 -4 5.02 -4 4 C-5.32 3.67 -6.64 3.34 -8 3 C-8 3.66 -8 4.32 -8 5 C-8.66 5 -9.32 5 -10 5 C-8.20177069 -0.39468792 -5.09771267 -0.22656501 0 0 Z " fill="#868686" transform="translate(96,412)"/>
<path d="M0 0 C0.7425 0.0825 1.485 0.165 2.25 0.25 C1.25 2.25 1.25 2.25 -0.75 5.25 C0.57 5.58 1.89 5.91 3.25 6.25 C-0.05 6.25 -3.35 6.25 -6.75 6.25 C-6.75 4.25 -6.75 4.25 -5.0625 2.125 C-2.75 0.25 -2.75 0.25 0 0 Z " fill="#707070" transform="translate(261.75,198.75)"/>
<path d="M0 0 C1.32 0 2.64 0 4 0 C4 0.66 4 1.32 4 2 C5.45833358 3.62514468 5.45833358 3.62514468 7 5 C5 7 5 7 2.375 7.125 C1.59125 7.08375 0.8075 7.0425 0 7 C0 4.69 0 2.38 0 0 Z " fill="#777777" transform="translate(186,295)"/>
<path d="M0 0 C1.64391844 2.95905318 2.73865785 5.602552 3 9 C1.5625 10.8125 1.5625 10.8125 0 12 C0 11.34 0 10.68 0 10 C-0.66 10 -1.32 10 -2 10 C-1.7215625 9.1028125 -1.7215625 9.1028125 -1.4375 8.1875 C-0.77906313 5.83591238 -0.77906313 5.83591238 -2 3 C-1.34 2.01 -0.68 1.02 0 0 Z " fill="#8F8F8F" transform="translate(369,77)"/>
<path d="M0 0 C0.66 0 1.32 0 2 0 C0.84826645 2.46800047 -0.04783565 4.04783565 -2 6 C-4.625 6.625 -4.625 6.625 -7 7 C-7.33 5.68 -7.66 4.36 -8 3 C-6.865625 2.690625 -5.73125 2.38125 -4.5625 2.0625 C-1.21224901 1.37075469 -1.21224901 1.37075469 0 0 Z " fill="#868686" transform="translate(89,420)"/>
<path d="M0 0 C2.31 1.65 4.62 3.3 7 5 C4.74778616 6.36741555 3.47442242 7.04066478 0.8125 6.8125 C0.214375 6.544375 -0.38375 6.27625 -1 6 C-1.33 5.01 -1.66 4.02 -2 3 C-1.34 2.01 -0.68 1.02 0 0 Z " fill="#8D8D8D" transform="translate(162,316)"/>
<path d="M0 0 C1 3 1 3 -0.1875 5.4375 C-1.93979049 7.91487622 -3.78315483 9.9360407 -6 12 C-6.33 10.68 -6.66 9.36 -7 8 C-6.01 7.67 -5.02 7.34 -4 7 C-2.89163577 5.11683841 -2.89163577 5.11683841 -2 3 C-1.34 2.01 -0.68 1.02 0 0 Z " fill="#A3A3A3" transform="translate(200,232)"/>
<path d="M0 0 C6.875 3.75 6.875 3.75 8 6 C5.69 6.66 3.38 7.32 1 8 C0 2.25 0 2.25 0 0 Z " fill="#909090" transform="translate(262,172)"/>
<path d="M0 0 C0.66 0.66 1.32 1.32 2 2 C-1.44615385 7.78461538 -1.44615385 7.78461538 -4.25 8.875 C-4.8275 8.91625 -5.405 8.9575 -6 9 C-6.33 8.34 -6.66 7.68 -7 7 C-5.66667905 3.00003714 -3.5042173 2.16217663 0 0 Z " fill="#777777" transform="translate(337,120)"/>
<path d="M0 0 C3 1.8125 3 1.8125 6 4 C6 4.99 6 5.98 6 7 C5.34 7 4.68 7 4 7 C3.67 7.99 3.34 8.98 3 10 C2.01 9.01 1.02 8.02 0 7 C0.99 6.67 1.98 6.34 3 6 C3 5.34 3 4.68 3 4 C2.01 3.67 1.02 3.34 0 3 C0 2.01 0 1.02 0 0 Z " fill="#9D9D9D" transform="translate(195,318)"/>
<path d="M0 0 C-0.185625 0.7425 -0.37125 1.485 -0.5625 2.25 C-0.99203108 4.94990963 -0.85122974 6.44631077 0 9 C-0.99 9.495 -0.99 9.495 -2 10 C-2.66 8.35 -3.32 6.7 -4 5 C-5.98 5.99 -5.98 5.99 -8 7 C-6.76759083 3.3027725 -4.20634615 0 0 0 Z " fill="#9A9A9A" transform="translate(378,70)"/>
<path d="M0 0 C0.33 1.32 0.66 2.64 1 4 C0.34 4 -0.32 4 -1 4 C-1.2475 4.61875 -1.495 5.2375 -1.75 5.875 C-3.20628639 8.35068687 -4.37812506 8.95125002 -7 10 C-7 10.66 -7 11.32 -7 12 C-7.99 11.67 -8.98 11.34 -10 11 C-9.34 11 -8.68 11 -8 11 C-8 10.34 -8 9.68 -8 9 C-7.34 9 -6.68 9 -6 9 C-5.7525 8.443125 -5.505 7.88625 -5.25 7.3125 C-3.78393985 4.60028873 -1.97010529 2.36412635 0 0 Z " fill="#B4B4B4" transform="translate(366,81)"/>
<path d="M0 0 C2.125 0.9375 2.125 0.9375 4 2 C3.67 3.32 3.34 4.64 3 6 C1.35 5.67 -0.3 5.34 -2 5 C-2 3.68 -2 2.36 -2 1 C-1.34 0.67 -0.68 0.34 0 0 Z " fill="#7C7C7C" transform="translate(65,443)"/>
<path d="M0 0 C2.5625 2.25 2.5625 2.25 5 5 C4.8125 7.3125 4.8125 7.3125 4 9 C3.4225 8.319375 2.845 7.63875 2.25 6.9375 C1.5075 6.298125 0.765 5.65875 0 5 C-2.21858253 5.13641377 -2.21858253 5.13641377 -4 6 C-2.68 4.02 -1.36 2.04 0 0 Z " fill="#989898" transform="translate(221,244)"/>
<path d="M0 0 C0.99 0.33 1.98 0.66 3 1 C3.6875 3.0625 3.6875 3.0625 4 5 C2.68 5.33 1.36 5.66 0 6 C-0.66 4.35 -1.32 2.7 -2 1 C-1.34 0.67 -0.68 0.34 0 0 Z " fill="#7A7A7A" transform="translate(183,314)"/>
<path d="M0 0 C0 0.99 0 1.98 0 3 C-0.8971875 3.1546875 -0.8971875 3.1546875 -1.8125 3.3125 C-4.28243264 4.08876455 -5.32251235 5.07088921 -7 7 C-7.33 5.68 -7.66 4.36 -8 3 C-4.93882432 0.37613513 -4.26826873 0 0 0 Z " fill="#767676" transform="translate(241,229)"/>
<path d="M0 0 C1.18851563 0.10183594 2.37703125 0.20367187 3.6015625 0.30859375 C4.51679688 0.39238281 5.43203125 0.47617188 6.375 0.5625 C6.375 0.8925 6.375 1.2225 6.375 1.5625 C1.755 1.8925 -2.865 2.2225 -7.625 2.5625 C-7.955 1.9025 -8.285 1.2425 -8.625 0.5625 C-5.68113377 -0.90943312 -3.25109964 -0.28686173 0 0 Z " fill="#AEAEAE" transform="translate(237.625,194.4375)"/>
<path d="M0 0 C0.99 0.33 1.98 0.66 3 1 C1.90344712 2.31886772 0.79746577 3.62990057 -0.3125 4.9375 C-0.92738281 5.66839844 -1.54226563 6.39929688 -2.17578125 7.15234375 C-4 9 -4 9 -7 10 C-5.33248852 6.05860922 -2.77289351 3.2107188 0 0 Z " fill="#9F9F9F" transform="translate(356,93)"/>
<path d="M0 0 C0.33 0.99 0.66 1.98 1 3 C-1.45906075 6.87774964 -3.61740632 8.66087415 -8 10 C-7.04367001 8.70684939 -6.08486149 7.41553147 -5.125 6.125 C-4.59132812 5.40570313 -4.05765625 4.68640625 -3.5078125 3.9453125 C-2 2 -2 2 0 0 Z " fill="#A5A5A5" transform="translate(230,233)"/>
<path d="M0 0 C0.33 0 0.66 0 1 0 C1 1.98 1 3.96 1 6 C0.34 6 -0.32 6 -1 6 C-1 6.66 -1 7.32 -1 8 C-2.32 8 -3.64 8 -5 8 C-5 7.34 -5 6.68 -5 6 C-4.34 6 -3.68 6 -3 6 C-2.690625 5.195625 -2.38125 4.39125 -2.0625 3.5625 C-1 1 -1 1 0 0 Z " fill="#9E9E9E" transform="translate(254,244)"/>
<path d="M0 0 C1.32 0.66 2.64 1.32 4 2 C1.14693203 4.32472205 -1.54074837 5.7508258 -5 7 C-1.125 1.125 -1.125 1.125 0 0 Z " fill="#979797" transform="translate(236,226)"/>
<path d="M0 0 C0 3.12900213 -0.42451317 4.37418862 -2 7 C-2.99 7.495 -2.99 7.495 -4 8 C-4.33 8.99 -4.66 9.98 -5 11 C-5.99 11 -6.98 11 -8 11 C-6.63629701 8.00779732 -5.05091917 5.70973471 -2.875 3.25 C-2.33617187 2.63640625 -1.79734375 2.0228125 -1.2421875 1.390625 C-0.62730469 0.70226562 -0.62730469 0.70226562 0 0 Z " fill="#B6B6B6" transform="translate(303,156)"/>
<path d="M0 0 C2 1 2 1 4 4 C3.01 5.485 3.01 5.485 2 7 C1.01 7 0.02 7 -1 7 C-1.625 5.1875 -1.625 5.1875 -2 3 C-1.34 2.01 -0.68 1.02 0 0 Z " fill="#7E7E7E" transform="translate(352,101)"/>
<path d="M0 0 C0.66 0 1.32 0 2 0 C2 0.99 2 1.98 2 3 C1.34 3 0.68 3 0 3 C-0.268125 3.598125 -0.53625 4.19625 -0.8125 4.8125 C-1.98493467 6.97224808 -3.19369282 8.35790256 -5 10 C-5 8.35 -5 6.7 -5 5 C-4.01 5 -3.02 5 -2 5 C-1.34 3.35 -0.68 1.7 0 0 Z " fill="#8F8F8F" transform="translate(361,94)"/>
<path d="M0 0 C0.66 0.66 1.32 1.32 2 2 C0.35830472 4.02054804 -1.30911778 6.02043058 -3 8 C-3.33 8 -3.66 8 -4 8 C-3.67 5.69 -3.34 3.38 -3 1 C-2.01 0.67 -1.02 0.34 0 0 Z " fill="#909090" transform="translate(39,479)"/>
<path d="M0 0 C1.98 0.66 3.96 1.32 6 2 C6.33 3.98 6.66 5.96 7 8 C5.0625 7.6875 5.0625 7.6875 3 7 C2.67 6.01 2.34 5.02 2 4 C1.34870203 2.65909241 0.68486725 1.32407669 0 0 Z " fill="#767676" transform="translate(260,225)"/>
<path d="M0 0 C1.09898702 3.29696105 0.87124444 4.40494903 0.0625 7.6875 C-0.22947266 8.89986328 -0.22947266 8.89986328 -0.52734375 10.13671875 C-0.68332031 10.75160156 -0.83929688 11.36648438 -1 12 C-1.33 11.34 -1.66 10.68 -2 10 C-2.66 9.67 -3.32 9.34 -4 9 C-2.68 6.03 -1.36 3.06 0 0 Z " fill="#AAAAAA" transform="translate(246,0)"/>
<path d="M0 0 C0.66 0.33 1.32 0.66 2 1 C1.1875 3.4375 1.1875 3.4375 0 6 C-0.99 6.33 -1.98 6.66 -3 7 C-3.33 7.66 -3.66 8.32 -4 9 C-4.99 8.67 -5.98 8.34 -7 8 C-4.69 5.36 -2.38 2.72 0 0 Z " fill="#A4A4A4" transform="translate(84,417)"/>
<path d="M0 0 C0.7425 0.45375 1.485 0.9075 2.25 1.375 C4.46930578 2.68640796 6.67967822 3.88280803 9 5 C6.69 5.66 4.38 6.32 2 7 C1.34 4.69 0.68 2.38 0 0 Z " fill="#969696" transform="translate(147,352)"/>
<path d="M0 0 C0.66 0 1.32 0 2 0 C2 0.66 2 1.32 2 2 C4.475 2.99 4.475 2.99 7 4 C5.02 4.99 5.02 4.99 3 6 C1.68 4.68 0.36 3.36 -1 2 C-0.67 1.34 -0.34 0.68 0 0 Z " fill="#8E8E8E" transform="translate(177,304)"/>
<path d="M0 0 C0 3.64478912 -0.85802506 5.09303401 -3 8 C-5.1875 8.8125 -5.1875 8.8125 -7 9 C-7 8.34 -7 7.68 -7 7 C-6.34 7 -5.68 7 -5 7 C-4.731875 6.401875 -4.46375 5.80375 -4.1875 5.1875 C-3.01506533 3.02775192 -1.80630718 1.64209744 0 0 Z " fill="#A3A3A3" transform="translate(315,142)"/>
<path d="M0 0 C0.66 0.33 1.32 0.66 2 1 C0.625 3.5 0.625 3.5 -1 6 C-1.66 6 -2.32 6 -3 6 C-3.33 6.99 -3.66 7.98 -4 9 C-4.66 9 -5.32 9 -6 9 C-4.47291037 5.56404834 -2.40072955 2.88087546 0 0 Z " fill="#ACACAC" transform="translate(50,457)"/>
<path d="M0 0 C0.99 0.66 1.98 1.32 3 2 C1.02 4.97 1.02 4.97 -1 8 C-2.0625 6.1875 -2.0625 6.1875 -3 4 C-2.67 3.01 -2.34 2.02 -2 1 C-1.34 0.67 -0.68 0.34 0 0 Z " fill="#8E8E8E" transform="translate(238,231)"/>
<path d="M0 0 C1.32 0.33 2.64 0.66 4 1 C3.6875 2.9375 3.6875 2.9375 3 5 C2.01 5.33 1.02 5.66 0 6 C0 4.02 0 2.04 0 0 Z " fill="#7D7D7D" transform="translate(7,512)"/>
<path d="M0 0 C0.66 0.66 1.32 1.32 2 2 C1.625 4.625 1.625 4.625 1 7 C0.01 7.33 -0.98 7.66 -2 8 C-1.47731534 5.23723823 -0.89130413 2.6739124 0 0 Z " fill="#757575" transform="translate(257,217)"/>
<path d="M0 0 C0.33 1.32 0.66 2.64 1 4 C0.34 4 -0.32 4 -1 4 C-1.33 5.32 -1.66 6.64 -2 8 C-3.32 8.33 -4.64 8.66 -6 9 C-4.02 6.03 -2.04 3.06 0 0 Z " fill="#ACACAC" transform="translate(337,115)"/>
<path d="M0 0 C0.66 0.33 1.32 0.66 2 1 C1.67 1.99 1.34 2.98 1 4 C-1.5625 5.1875 -1.5625 5.1875 -4 6 C-4 5.01 -4 4.02 -4 3 C-3.34 3 -2.68 3 -2 3 C-2 2.34 -2 1.68 -2 1 C-1.34 0.67 -0.68 0.34 0 0 Z " fill="#747474" transform="translate(39,476)"/>
<path d="M0 0 C0.33 0.99 0.66 1.98 1 3 C-0.40445835 5.2636564 -2.1967913 7.0208685 -4 9 C-4.66 8.67 -5.32 8.34 -6 8 C-4.02 5.36 -2.04 2.72 0 0 Z " fill="#BCBCBC" transform="translate(76,426)"/>
<path d="M0 0 C0 0.99 0 1.98 0 3 C-3.13498292 4.85776765 -5.37471432 5.20140476 -9 5 C-8.443125 4.731875 -7.88625 4.46375 -7.3125 4.1875 C-4.80287477 2.89877353 -2.40665764 1.47073522 0 0 Z " fill="#A1A1A1" transform="translate(110,274)"/>
<path d="M0 0 C1.65 0 3.3 0 5 0 C5 1.65 5 3.3 5 5 C2.525 4.01 2.525 4.01 0 3 C0 2.01 0 1.02 0 0 Z " fill="#8F8F8F" transform="translate(89,371)"/>
<path d="M0 0 C2.64 0.66 5.28 1.32 8 2 C7.34 2.66 6.68 3.32 6 4 C3.375 3.625 3.375 3.625 1 3 C0.67 2.01 0.34 1.02 0 0 Z " fill="#9A9A9A" transform="translate(166,287)"/>
<path d="M0 0 C0.99 0.33 1.98 0.66 3 1 C2.67 2.32 2.34 3.64 2 5 C1.01 5 0.02 5 -1 5 C-0.67 3.35 -0.34 1.7 0 0 Z " fill="#898989" transform="translate(261,242)"/>
<path d="M0 0 C0.99 0.66 1.98 1.32 3 2 C2.01 2.99 1.02 3.98 0 5 C-0.99 4.67 -1.98 4.34 -3 4 C-2.67 3.01 -2.34 2.02 -2 1 C-1.34 0.67 -0.68 0.34 0 0 Z " fill="#8F8F8F" transform="translate(320,142)"/>
</svg>
