<?xml version="1.0" encoding="UTF-8"?>
<svg version="1.1" xmlns="http://www.w3.org/2000/svg" width="1457" height="230">
<path d="M0 0 C480.81 0 961.62 0 1457 0 C1457 75.9 1457 151.8 1457 230 C976.19 230 495.38 230 0 230 C0 154.1 0 78.2 0 0 Z " fill="#F6F6F6" transform="translate(0,0)"/>
<path d="M0 0 C4.76847742 2.57836253 7.66705756 5.11116852 10.05859375 9.94921875 C10.40277344 10.62984375 10.74695312 11.31046875 11.1015625 12.01171875 C11.87109375 13.94921875 11.87109375 13.94921875 11.87109375 16.94921875 C12.53109375 16.94921875 13.19109375 16.94921875 13.87109375 16.94921875 C14.18046875 18.08359375 14.48984375 19.21796875 14.80859375 20.38671875 C15.50033906 23.73696974 15.50033906 23.73696974 16.87109375 24.94921875 C16.9584702 26.80291486 16.97807528 28.65989416 16.96875 30.515625 C16.96391602 32.20268555 16.96391602 32.20268555 16.95898438 33.92382812 C16.94641602 35.69983398 16.94641602 35.69983398 16.93359375 37.51171875 C16.92908203 38.69958984 16.92457031 39.88746094 16.91992188 41.11132812 C16.9080905 44.05734101 16.89160662 47.00325556 16.87109375 49.94921875 C15.88109375 49.94921875 14.89109375 49.94921875 13.87109375 49.94921875 C13.87109375 52.25921875 13.87109375 54.56921875 13.87109375 56.94921875 C13.21109375 56.94921875 12.55109375 56.94921875 11.87109375 56.94921875 C11.54109375 59.25921875 11.21109375 61.56921875 10.87109375 63.94921875 C10.21109375 63.94921875 9.55109375 63.94921875 8.87109375 63.94921875 C8.72671875 64.56796875 8.58234375 65.18671875 8.43359375 65.82421875 C7.87109375 67.94921875 7.87109375 67.94921875 6.87109375 69.94921875 C5.22109375 69.94921875 3.57109375 69.94921875 1.87109375 69.94921875 C1.87109375 70.60921875 1.87109375 71.26921875 1.87109375 71.94921875 C1.21109375 71.94921875 0.55109375 71.94921875 -0.12890625 71.94921875 C-0.12890625 72.60921875 -0.12890625 73.26921875 -0.12890625 73.94921875 C-10.24925433 77.55137654 -22.13022376 79.07307746 -32.50390625 75.51171875 C-42.73174145 70.56998693 -49.26603927 62.51152293 -53.12890625 51.94921875 C-54.30021051 46.86404416 -54.31230229 41.82823418 -54.31640625 36.63671875 C-54.32865234 35.83298828 -54.34089844 35.02925781 -54.35351562 34.20117188 C-54.38038226 23.06942786 -51.64083405 12.50803059 -43.94140625 4.13671875 C-31.22624292 -7.68419134 -14.83924369 -7.32432395 0 0 Z " fill="#F5F5F5" transform="translate(1127.12890625,26.05078125)"/>
<path d="M0 0 C6.6 0 13.2 0 20 0 C20.7734375 2.40410156 21.546875 4.80820313 22.34375 7.28515625 C29.59099519 29.80024867 29.59099519 29.80024867 37.25830078 52.17480469 C38.88019796 56.7640462 40.4597875 61.36177815 41.97265625 65.98828125 C42.45255005 67.45394531 42.45255005 67.45394531 42.94213867 68.94921875 C43.54779702 70.80819835 44.14851396 72.66879784 44.7434082 74.53125 C45.01113037 75.35238281 45.27885254 76.17351562 45.5546875 77.01953125 C45.78655762 77.74245361 46.01842773 78.46537598 46.25732422 79.21020508 C46.95230464 81.20703971 46.95230464 81.20703971 49 83 C49.45375 81.989375 49.9075 80.97875 50.375 79.9375 C50.63023437 79.36902344 50.88546875 78.80054687 51.1484375 78.21484375 C52.30800502 75.19890437 53.11910476 72.10866654 54 69 C54.92697016 66.05195921 55.89710904 63.11899842 56.875 60.1875 C57.13893555 59.39432373 57.40287109 58.60114746 57.67480469 57.78393555 C59.34948078 52.80121321 61.1682504 47.91320633 63.1875 43.05859375 C64.3592226 40.08985427 65.19485017 37.08640769 66 34 C66.66 34 67.32 34 68 34 C68.33 31.36 68.66 28.72 69 26 C69.66 26 70.32 26 71 26 C71 23.69 71 21.38 71 19 C71.99 18.67 72.98 18.34 74 18 C73.9175 17.05125 73.835 16.1025 73.75 15.125 C73.72923841 10.05917259 75.67016298 5.43859462 78 1 C83.67254597 -1.83627298 90.6579008 0 97 0 C97 33.66 97 67.32 97 102 C92.71 102 88.42 102 84 102 C83.67 74.61 83.34 47.22 83 19 C76.23523495 38.41467493 76.23523495 38.41467493 70 58 C69.02578098 60.34421452 68.02853104 62.67910183 67 65 C66.18523734 67.24043305 65.39391118 69.48951359 64.625 71.74609375 C64.41439941 72.36090103 64.20379883 72.97570831 63.98681641 73.60914612 C63.32200672 75.5510748 62.66076805 77.49419279 62 79.4375 C56.72203923 94.91732555 56.72203923 94.91732555 54 102 C50.04 102 46.08 102 42 102 C41.15557119 100.10908264 40.32488413 98.21202485 39.5 96.3125 C39.0359375 95.25675781 38.571875 94.20101562 38.09375 93.11328125 C37.05049199 90.14372184 36.76934699 88.10804937 37 85 C36.34 85 35.68 85 35 85 C34.85304688 84.47535156 34.70609375 83.95070313 34.5546875 83.41015625 C32.89561057 77.67966641 30.99753679 72.05664717 29 66.4375 C28.73799805 65.69790039 28.47599609 64.95830078 28.20605469 64.19628906 C27.130848 61.16542341 26.05025608 58.13736662 24.9453125 55.1171875 C23.45853181 50.94004174 22.65809155 47.44480983 23 43 C22.34 43 21.68 43 21 43 C18.33333333 35 15.66666667 27 13 19 C12.67 46.39 12.34 73.78 12 102 C8.04 102 4.08 102 0 102 C0 68.34 0 34.68 0 0 Z " fill="#7C7C7C" transform="translate(563,11)"/>
<path d="M0 0 C4.62 0 9.24 0 14 0 C17.18361927 3.5342518 18.90040279 5.92672385 21 10 C21.93614991 11.43613182 22.89126548 12.86012447 23.8671875 14.26953125 C24.87060388 15.7833161 25.87315776 17.2976729 26.875 18.8125 C31.62319045 25.96752948 36.40923747 33.09577633 41.22265625 40.20703125 C41.77232056 41.01926651 42.32198486 41.83150177 42.88830566 42.66835022 C45.65825918 46.76058079 48.43028827 50.85138992 51.20458984 54.94067383 C52.24972134 56.48385498 53.29480778 58.02706665 54.33984375 59.5703125 C54.80616714 60.25628006 55.27249054 60.94224762 55.75294495 61.64900208 C59.62159685 67.36659702 63.2886181 73.16782844 67 79 C67.33 52.93 67.66 26.86 68 0 C72.29 0 76.58 0 81 0 C81 33.66 81 67.32 81 102 C76.05 102 71.1 102 66 102 C62.04535796 97.66265066 60.21291876 94.62587852 59 89 C58.34 89 57.68 89 57 89 C54.95830515 86.09451118 54 84.59857954 54 81 C53.34 81 52.68 81 52 81 C51.67 79.35 51.34 77.7 51 76 C50.01 75.67 49.02 75.34 48 75 C48 74.01 48 73.02 48 72 C47.34 72 46.68 72 46 72 C44.19561745 69.59514261 42.5205742 67.19734637 40.875 64.6875 C40.40707031 63.99720703 39.93914063 63.30691406 39.45703125 62.59570312 C39.01488281 61.92861328 38.57273437 61.26152344 38.1171875 60.57421875 C37.71097168 59.96151123 37.30475586 59.34880371 36.88623047 58.7175293 C36 57 36 57 36 54 C35.34 54 34.68 54 34 54 C34 53.01 34 52.02 34 51 C33.34 51 32.68 51 32 51 C28 45.70588235 28 45.70588235 28 42 C26.515 41.505 26.515 41.505 25 41 C23.62456492 38.69123397 22.30205416 36.35093113 21 34 C18.69 30.7 16.38 27.4 14 24 C13.67 49.74 13.34 75.48 13 102 C8.71 102 4.42 102 0 102 C0 68.34 0 34.68 0 0 Z " fill="#7C7C7C" transform="translate(777,11)"/>
<path d="M0 0 C24.42 0 48.84 0 74 0 C74 3.96 74 7.92 74 12 C53.87 12 33.74 12 13 12 C13 22.23 13 32.46 13 43 C31.81 43 50.62 43 70 43 C70 46.96 70 50.92 70 55 C51.19 55 32.38 55 13 55 C13 66.55 13 78.1 13 90 C33.79 90 54.58 90 76 90 C76 93.96 76 97.92 76 102 C50.92 102 25.84 102 0 102 C0 68.34 0 34.68 0 0 Z " fill="#797979" transform="translate(205,11)"/>
<path d="M0 0 C11.95234616 8.78481839 18.9404631 20.35905936 21.75 34.875 C21.86486074 36.24772592 21.94406908 37.623613 22 39 C22.05994141 40.46566406 22.05994141 40.46566406 22.12109375 41.9609375 C22.46190173 58.8409565 18.91095461 73.53037023 7 86 C4.50991045 88.40906711 1.97999592 90.23592215 -1 92 C-1.91523437 92.55945313 -2.83046875 93.11890625 -3.7734375 93.6953125 C-15.23390365 99.66141473 -30.42905367 100.60025572 -42.89453125 97.07421875 C-45.80790175 95.92607402 -48.34163956 94.64809786 -51 93 C-51.89332031 92.47277344 -52.78664063 91.94554688 -53.70703125 91.40234375 C-55.91549008 90.02163293 -58.02628698 88.69958621 -60 87 C-60 86.34 -60 85.68 -60 85 C-60.66 85 -61.32 85 -62 85 C-62 84.34 -62 83.68 -62 83 C-62.99 82.67 -63.98 82.34 -65 82 C-65 81.01 -65 80.02 -65 79 C-65.99 78.67 -66.98 78.34 -68 78 C-68 76.68 -68 75.36 -68 74 C-68.66 74 -69.32 74 -70 74 C-70.33 71.69 -70.66 69.38 -71 67 C-71.66 67 -72.32 67 -73 67 C-74.28317892 63.15046324 -74.06643637 60.05261865 -74 56 C-74.66 56 -75.32 56 -76 56 C-76.02683987 53.02077407 -76.04676037 50.04178705 -76.0625 47.0625 C-76.07087891 46.21236328 -76.07925781 45.36222656 -76.08789062 44.48632812 C-76.09111328 43.67744141 -76.09433594 42.86855469 -76.09765625 42.03515625 C-76.10289307 41.2862915 -76.10812988 40.53742676 -76.11352539 39.76586914 C-76 38 -76 38 -75 37 C-74.60430892 34.98688551 -74.25747809 32.96402792 -73.9375 30.9375 C-73.67259766 29.28041016 -73.67259766 29.28041016 -73.40234375 27.58984375 C-73.26957031 26.73519531 -73.13679688 25.88054688 -73 25 C-72.34 25 -71.68 25 -71 25 C-71 23.02 -71 21.04 -71 19 C-70.01 19 -69.02 19 -68 19 C-68 17.68 -68 16.36 -68 15 C-67.34 15 -66.68 15 -66 15 C-65.67 13.35 -65.34 11.7 -65 10 C-64.34 10 -63.68 10 -63 10 C-62.67 9.01 -62.34 8.02 -62 7 C-61.34 7 -60.68 7 -60 7 C-59.67 6.01 -59.34 5.02 -59 4 C-58.34 4 -57.68 4 -57 4 C-57 3.34 -57 2.68 -57 2 C-56.01 2 -55.02 2 -54 2 C-54 1.34 -54 0.68 -54 0 C-52.02 -0.33 -50.04 -0.66 -48 -1 C-48 -1.66 -48 -2.32 -48 -3 C-31.21520782 -8.01305793 -15.94498788 -8.88839403 0 0 Z M-52.73046875 15.3671875 C-60.75418144 24.67524663 -62.17809791 34.60027008 -62.1875 46.4375 C-62.19974609 47.24509766 -62.21199219 48.05269531 -62.22460938 48.88476562 C-62.25046413 59.58001602 -59.18464827 69.81441462 -51.8125 77.8125 C-42.89240836 86.10524454 -32.68615738 87.57175901 -21.04296875 87.15820312 C-16.5172294 86.80773956 -12.25692745 85.51517757 -8 84 C-8 83.34 -8 82.68 -8 82 C-7.34 82 -6.68 82 -6 82 C-6 81.34 -6 80.68 -6 80 C-4.824375 80.0928125 -4.824375 80.0928125 -3.625 80.1875 C-2.75875 80.125625 -1.8925 80.06375 -1 80 C1.2773501 77.18490007 1.2773501 77.18490007 1 74 C1.66 74 2.32 74 3 74 C3.33 71.69 3.66 69.38 4 67 C4.66 67 5.32 67 6 67 C6 64.69 6 62.38 6 60 C6.99 60 7.98 60 9 60 C9.05796132 55.89589245 9.09358313 51.79188984 9.125 47.6875 C9.15013672 45.93663086 9.15013672 45.93663086 9.17578125 44.15039062 C9.18222656 43.03212891 9.18867187 41.91386719 9.1953125 40.76171875 C9.20578613 39.73006592 9.21625977 38.69841309 9.22705078 37.63549805 C9.19297515 34.76812408 9.19297515 34.76812408 7 32 C6.61500109 30.34450469 6.27206865 28.6777567 6 27 C5.34 27 4.68 27 4 27 C3.896875 26.113125 3.79375 25.22625 3.6875 24.3125 C2.45482601 18.3732526 -0.21873394 15.54042973 -5 12 C-6.9911053 10.88278323 -9.01371832 9.82005509 -11.0625 8.8125 C-12.08472656 8.30332031 -13.10695313 7.79414063 -14.16015625 7.26953125 C-28.025961 1.07092528 -42.19613981 5.3139539 -52.73046875 15.3671875 Z " fill="#7B7B7B" transform="translate(1135,16)"/>
<path d="M0 0 C24.09 0 48.18 0 73 0 C73 3.96 73 7.92 73 12 C53.2 12 33.4 12 13 12 C13 22.23 13 32.46 13 43 C31.48 43 49.96 43 69 43 C69 46.96 69 50.92 69 55 C50.52 55 32.04 55 13 55 C13 66.55 13 78.1 13 90 C33.79 90 54.58 90 76 90 C76 93.96 76 97.92 76 102 C50.92 102 25.84 102 0 102 C0 68.34 0 34.68 0 0 Z " fill="#7A7A7A" transform="translate(1374,11)"/>
<path d="M0 0 C2.46022087 2.1052391 4.26118418 4.27662291 6 7 C6.40992188 7.64066406 6.81984375 8.28132813 7.2421875 8.94140625 C9.99535762 13.79268188 10.39537409 17.46476269 10 23 C5.71 23.33 1.42 23.66 -3 24 C-3.33 20.7 -3.66 17.4 -4 14 C-4.66 14 -5.32 14 -6 14 C-6 13.01 -6 12.02 -6 11 C-16.86572308 5.349824 -27.91655844 2.56825479 -40.0625 6.1875 C-43.89642354 7.69393923 -46.40611562 9.75764452 -49 13 C-50.48006763 17.44020288 -50.6453654 21.26558048 -49 25.6875 C-42.94836448 32.68470357 -32.57952501 33.83957613 -24 36 C3.27972912 42.91272047 3.27972912 42.91272047 10.8125 53.5625 C14.20763138 60.53145388 14.3388332 69.55123139 12.12890625 76.89453125 C7.32729341 87.14321963 0.37262288 92.00290647 -10 96 C-15.02275556 97.67425185 -20.24075302 97.26886687 -25.5 97.3125 C-27.2015625 97.35600586 -27.2015625 97.35600586 -28.9375 97.40039062 C-38.63647218 97.47268801 -47.4732906 95.81518892 -55.0625 89.375 C-56.13177734 88.48941406 -56.13177734 88.48941406 -57.22265625 87.5859375 C-58.51805329 86.43004476 -59.7723719 85.2276281 -61 84 C-61 83.01 -61 82.02 -61 81 C-61.66 81 -62.32 81 -63 81 C-66.05866442 77.06743146 -66.33585796 74.08331268 -66.1875 69.1875 C-66.16042969 68.02605469 -66.13335938 66.86460938 -66.10546875 65.66796875 C-66.07066406 64.78753906 -66.03585937 63.90710938 -66 63 C-63.59454362 61.79727181 -62.05003047 61.89928528 -59.375 61.9375 C-58.55773438 61.94652344 -57.74046875 61.95554687 -56.8984375 61.96484375 C-56.27195312 61.97644531 -55.64546875 61.98804687 -55 62 C-54.76925781 62.80824219 -54.53851562 63.61648437 -54.30078125 64.44921875 C-52.08326816 71.71529919 -50.45506624 76.47184046 -43.59765625 80.36328125 C-31.5184839 86.66005979 -19.11266854 86.0532617 -6 83 C-6 82.34 -6 81.68 -6 81 C-5.34 81 -4.68 81 -4 81 C-3.505 79.515 -3.505 79.515 -3 78 C-2.34 78 -1.68 78 -1 78 C-1 76.35 -1 74.7 -1 73 C-0.01 72.67 0.98 72.34 2 72 C1.55170486 70.01853549 1.09107502 68.03985789 0.625 66.0625 C0.36976562 64.96035156 0.11453125 63.85820313 -0.1484375 62.72265625 C-0.42945313 61.82417969 -0.71046875 60.92570312 -1 60 C-1.99 59.505 -1.99 59.505 -3 59 C-3 58.34 -3 57.68 -3 57 C-3.680625 56.88011719 -4.36125 56.76023437 -5.0625 56.63671875 C-8.45905441 55.90049751 -11.69126678 54.8774985 -15 53.8125 C-19.79025314 52.27982312 -24.58991398 50.81836611 -29.4375 49.4765625 C-30.36046875 49.22028076 -31.2834375 48.96399902 -32.234375 48.69995117 C-34.0345772 48.20365602 -35.83659553 47.71388705 -37.640625 47.23168945 C-47.43436523 44.52320205 -57.04658651 40.49226422 -62.4375 31.375 C-65.24594825 25.15800771 -64.8930055 17.4639212 -63 11 C-62.34 11 -61.68 11 -61 11 C-60.67 9.35 -60.34 7.7 -60 6 C-59.34 6 -58.68 6 -58 6 C-57.67 4.68 -57.34 3.36 -57 2 C-56.34 2 -55.68 2 -55 2 C-55 1.34 -55 0.68 -55 0 C-38.11381893 -11.03928633 -16.91352762 -10.77215888 0 0 Z " fill="#7A7A7A" transform="translate(1341,17)"/>
<path d="M0 0 C4.62 0 9.24 0 14 0 C14 13.86 14 27.72 14 42 C31.82 42 49.64 42 68 42 C68 28.14 68 14.28 68 0 C72.29 0 76.58 0 81 0 C81 33.66 81 67.32 81 102 C76.38 102 71.76 102 67 102 C67 86.16 67 70.32 67 54 C49.51 54 32.02 54 14 54 C14 69.84 14 85.68 14 102 C9.71 102 5.42 102 1 102 C0.67 68.34 0.34 34.68 0 0 Z " fill="#7C7C7C" transform="translate(101,11)"/>
<path d="M0 0 C24.09 0 48.18 0 73 0 C73 3.96 73 7.92 73 12 C52.87 12 32.74 12 12 12 C12 22.23 12 32.46 12 43 C30.81 43 49.62 43 69 43 C69 46.96 69 50.92 69 55 C50.19 55 31.38 55 12 55 C12 66.55 12 78.1 12 90 C32.79 90 53.58 90 75 90 C75 93.96 75 97.92 75 102 C50.25 102 25.5 102 0 102 C0 68.34 0 34.68 0 0 Z " fill="#787878" transform="translate(683,11)"/>
<path d="M0 0 C3.96 0 7.92 0 12 0 C12 13.86 12 27.72 12 42 C29.49 42 46.98 42 65 42 C65 28.14 65 14.28 65 0 C69.62 0 74.24 0 79 0 C79 33.66 79 67.32 79 102 C74.38 102 69.76 102 65 102 C65 86.16 65 70.32 65 54 C47.51 54 30.02 54 12 54 C12 69.84 12 85.68 12 102 C8.04 102 4.08 102 0 102 C0 68.34 0 34.68 0 0 Z " fill="#7D7D7D" transform="translate(962,11)"/>
<path d="M0 0 C4.29 0 8.58 0 13 0 C13.01981934 2.04832031 13.03963867 4.09664062 13.06005859 6.20703125 C13.12715087 12.99644559 13.20478704 19.78571041 13.28752708 26.57495117 C13.33734141 30.68876819 13.38367198 34.80256137 13.421875 38.91650391 C13.45891657 42.89127225 13.50532606 46.86583361 13.55806351 50.84042358 C13.5765077 52.35212551 13.59165194 53.86387164 13.60334396 55.37564087 C13.66570199 69.79100826 13.66570199 69.79100826 19 83 C25.75950779 89.6092965 31.96735874 90.34570824 41 90.3125 C42.31484375 90.33666992 42.31484375 90.33666992 43.65625 90.36132812 C48.93008923 90.36529939 52.35739203 89.74929441 57 87 C57.66 87 58.32 87 59 87 C59 86.34 59 85.68 59 85 C59.99 85 60.98 85 62 85 C62.33 83.35 62.66 81.7 63 80 C63.99 80 64.98 80 66 80 C66.33 53.6 66.66 27.2 67 0 C71.29 0 75.58 0 80 0 C80.04540613 8.78923021 80.08200477 17.57838094 80.10362434 26.36770248 C80.11400705 30.45009512 80.12806391 34.5324025 80.15087891 38.61474609 C80.17280599 42.56347731 80.18460994 46.51212715 80.18975449 50.46091461 C80.19341495 51.9581963 80.20056147 53.45547415 80.21146011 54.95272064 C80.30976133 69.03301322 80.29118754 83.3216753 69.9921875 94.1015625 C60.98021506 101.69229197 51.01170644 103.66949752 39.5 103.5 C37.92412109 103.52320312 37.92412109 103.52320312 36.31640625 103.546875 C25.87619682 103.49525468 17.05011231 100.70842693 9 94 C6.11572612 90.92964394 6 90.41866744 6 86 C5.01 85.67 4.02 85.34 3 85 C2.87625 83.9275 2.7525 82.855 2.625 81.75 C2.25965647 78.21134356 2.25965647 78.21134356 0.97512817 76.21856689 C-0.42945678 73.02291964 -0.2388927 70.23445388 -0.22705078 66.75292969 C-0.22734283 66.03058136 -0.22763489 65.30823303 -0.22793579 64.56399536 C-0.22654562 62.18316517 -0.21099934 59.80265033 -0.1953125 57.421875 C-0.19158125 55.76849539 -0.18873481 54.11511357 -0.18673706 52.46173096 C-0.17910938 48.11500926 -0.15946833 43.76842171 -0.1373291 39.42175293 C-0.11685204 34.98431208 -0.10773136 30.5468495 -0.09765625 26.109375 C-0.07622161 17.40618851 -0.04209612 8.70311096 0 0 Z " fill="#7A7A7A" transform="translate(1175,11)"/>
<path d="M0 0 C1.79244141 0.01740234 1.79244141 0.01740234 3.62109375 0.03515625 C5.41740234 0.04869141 5.41740234 0.04869141 7.25 0.0625 C8.17683594 0.07410156 9.10367187 0.08570313 10.05859375 0.09765625 C10.07072403 1.44949509 10.07072403 1.44949509 10.08309937 2.8286438 C10.16112555 11.33282793 10.24844051 19.83685549 10.34612083 28.34083748 C10.39601029 32.71254443 10.44234087 37.08422808 10.48046875 41.45605469 C10.51741456 45.67719483 10.56379951 49.89813647 10.61665726 54.11910629 C10.63515189 55.72735986 10.65027796 57.3356559 10.66193771 58.94397354 C10.67888495 61.20129864 10.70793942 63.45817401 10.73974609 65.71533203 C10.75306976 66.99884552 10.76639343 68.28235901 10.78012085 69.60476685 C11.26364502 75.66961719 13.18280211 80.40590847 17.05859375 85.09765625 C23.64176926 89.36452927 29.68246338 90.2784972 37.43359375 90.28515625 C38.17609375 90.29740234 38.91859375 90.30964844 39.68359375 90.32226562 C44.24500943 90.33435418 47.73050825 89.67547416 52.05859375 88.09765625 C53.37859375 88.09765625 54.69859375 88.09765625 56.05859375 88.09765625 C56.05859375 87.43765625 56.05859375 86.77765625 56.05859375 86.09765625 C56.71859375 86.09765625 57.37859375 86.09765625 58.05859375 86.09765625 C58.05859375 85.43765625 58.05859375 84.77765625 58.05859375 84.09765625 C59.04859375 84.09765625 60.03859375 84.09765625 61.05859375 84.09765625 C61.05859375 80.79765625 61.05859375 77.49765625 61.05859375 74.09765625 C61.71859375 74.09765625 62.37859375 74.09765625 63.05859375 74.09765625 C63.05859375 49.67765625 63.05859375 25.25765625 63.05859375 0.09765625 C67.67859375 0.09765625 72.29859375 0.09765625 77.05859375 0.09765625 C77.14963275 8.81779214 77.22272973 17.5376029 77.26584244 26.25811005 C77.28655365 30.30913714 77.31456202 34.35981712 77.36035156 38.41064453 C77.40440746 42.33348406 77.42785394 46.25599371 77.43810272 50.17906189 C77.44538871 51.66191285 77.45960947 53.14474959 77.48151398 54.62745667 C77.65460482 66.85080288 77.22593197 81.82957259 68.7578125 91.4921875 C58.62361296 101.06725879 49.04248845 103.28518921 35.37109375 103.41015625 C34.33275391 103.43916016 33.29441406 103.46816406 32.22460938 103.49804688 C20.97917118 103.58970248 12.13836101 99.97995465 4.05859375 92.09765625 C1.6183172 88.89438219 0.05859375 86.2264464 0.05859375 82.09765625 C-0.60140625 82.09765625 -1.26140625 82.09765625 -1.94140625 82.09765625 C-1.95171371 81.17137421 -1.96202118 80.24509216 -1.97264099 79.29074097 C-2.07071627 70.55115917 -2.17324481 61.81164331 -2.28074551 53.07217216 C-2.33585313 48.57938896 -2.38925327 44.08659912 -2.4387207 39.59375 C-2.48654415 35.25596777 -2.53889266 30.91826137 -2.594347 26.58057022 C-2.61468933 24.92764302 -2.63341542 23.27469509 -2.65048027 21.6217308 C-2.67470502 19.30226933 -2.70473354 16.98294884 -2.73608398 14.66357422 C-2.75162827 13.34453094 -2.76717255 12.02548767 -2.78318787 10.66647339 C-2.86789334 7.10888679 -2.86789334 7.10888679 -3.51673889 3.68728638 C-3.65687912 2.83270844 -3.79701935 1.97813049 -3.94140625 1.09765625 C-2.94140625 0.09765625 -2.94140625 0.09765625 0 0 Z " fill="#7C7C7C" transform="translate(462.94140625,10.90234375)"/>
<path d="M0 0 C26.73 0 53.46 0 81 0 C81 3.96 81 7.92 81 12 C69.78 12 58.56 12 47 12 C47 41.7 47 71.4 47 102 C42.71 102 38.42 102 34 102 C34 72.3 34 42.6 34 12 C22.78 12 11.56 12 0 12 C0 8.04 0 4.08 0 0 Z " fill="#7A7A7A" transform="translate(6,11)"/>
<path d="M0 0 C4.29 0 8.58 0 13 0 C13 29.7 13 59.4 13 90 C29.83 90 46.66 90 64 90 C64 93.96 64 97.92 64 102 C42.88 102 21.76 102 0 102 C0 68.34 0 34.68 0 0 Z " fill="#787878" transform="translate(379,11)"/>
<path d="M0 0 C1.32 0 2.64 0 4 0 C2.36959185 6.01077136 0.72852643 12.01663928 -1 18 C0.051875 16.7315625 0.051875 16.7315625 1.125 15.4375 C4 13 4 13 7.3125 13.1875 C8.6428125 13.5896875 8.6428125 13.5896875 10 14 C10.64111238 21.53307041 8.10441144 26.87526786 3.9375 33.0625 C-0.51436844 35.99883876 -4.8165088 35.40850631 -10 35 C-9.03665186 28.92837162 -7.60006355 23.66785715 -4.953125 18.1171875 C-3.61463812 15.14399123 -2.80557239 12.15515852 -2 9 C-1.34 9 -0.68 9 0 9 C0 6.03 0 3.06 0 0 Z " fill="#CECECE" transform="translate(233,177)"/>
<path d="M0 0 C1.32 0 2.64 0 4 0 C3.79503906 0.74765625 3.59007812 1.4953125 3.37890625 2.265625 C3.10949219 3.25046875 2.84007812 4.2353125 2.5625 5.25 C2.29566406 6.22453125 2.02882813 7.1990625 1.75390625 8.203125 C1.14455416 10.46372653 0.55761745 12.72622009 0 15 C0.556875 14.649375 1.11375 14.29875 1.6875 13.9375 C4.55925711 12.77327415 6.07133328 13.1293153 9 14 C10 15 10 15 10.0546875 16.78515625 C9.48719193 23.97754573 7.03836405 28.96163595 1.9375 34.0625 C0 35 0 35 -2.1875 34.8125 C-4 34 -4 34 -5 32 C-5.66 32 -6.32 32 -7 32 C-7.33 32.66 -7.66 33.32 -8 34 C-8.66 34 -9.32 34 -10 34 C-10 33.01 -10 32.02 -10 31 C-9.34 31 -8.68 31 -8 31 C-8.020625 30.05125 -8.04125 29.1025 -8.0625 28.125 C-8 25 -8 25 -7 23 C-6.34 23 -5.68 23 -5 23 C-5.020625 22.195625 -5.04125 21.39125 -5.0625 20.5625 C-5 18 -5 18 -4 17 C-3.63272554 15.50794753 -3.3050154 14.00601352 -3 12.5 C-2.11111111 8.11111111 -2.11111111 8.11111111 -1 7 C-0.63239269 4.67182036 -0.29758419 2.3381615 0 0 Z " fill="#F4F4F4" transform="translate(668,177)"/>
<path d="M0 0 C1.65 0 3.3 0 5 0 C4.566875 1.35544922 4.566875 1.35544922 4.125 2.73828125 C3.75375 3.91777344 3.3825 5.09726563 3 6.3125 C2.62875 7.48425781 2.2575 8.65601563 1.875 9.86328125 C0.86565228 12.93886676 0.86565228 12.93886676 1 16 C1.391875 15.505 1.78375 15.01 2.1875 14.5 C4 13 4 13 6.625 12.75 C9 13 9 13 10 14 C10.86680623 20.49394179 9.73989926 25.62616417 6 31 C3.5 33.5625 3.5 33.5625 1 35 C-1.25 34.9375 -1.25 34.9375 -3 34 C-3.495 32.515 -3.495 32.515 -4 31 C-4.45375 31.495 -4.9075 31.99 -5.375 32.5 C-7 34 -7 34 -9 34 C-8.32829194 30.1936543 -7.27253436 26.64793184 -6 23 C-5.34 23 -4.68 23 -4 23 C-4.020625 21.88625 -4.04125 20.7725 -4.0625 19.625 C-4 16 -4 16 -3 14 C-2.34 14 -1.68 14 -1 14 C-1.020625 12.989375 -1.04125 11.97875 -1.0625 10.9375 C-1.00312266 7.19672743 -0.60204915 3.68755102 0 0 Z " fill="#E9E9E9" transform="translate(957,177)"/>
<path d="M0 0 C1.32 0.33 2.64 0.66 4 1 C2.35 6.61 0.7 12.22 -1 18 C-0.01 18 0.98 18 2 18 C2.309375 17.360625 2.61875 16.72125 2.9375 16.0625 C4 14 4 14 5 13 C7.5 12.875 7.5 12.875 10 13 C11 14 11 14 11.01953125 15.85546875 C10.53875117 21.27104816 9.72280293 24.8118467 6 29 C3.16940471 31.34912955 0.38456357 33.53316554 -3 35 C-5.78515625 34.66015625 -5.78515625 34.66015625 -8 34 C-8 32.68 -8 31.36 -8 30 C-7.34 30 -6.68 30 -6 30 C-6.01160156 29.38511719 -6.02320313 28.77023438 -6.03515625 28.13671875 C-6.04417969 27.32847656 -6.05320312 26.52023438 -6.0625 25.6875 C-6.07410156 24.88699219 -6.08570313 24.08648437 -6.09765625 23.26171875 C-6 21 -6 21 -5 18 C-4.34 18 -3.68 18 -3 18 C-3.020625 17.05125 -3.04125 16.1025 -3.0625 15.125 C-3 12 -3 12 -2 10 C-1.34 10 -0.68 10 0 10 C0 6.7 0 3.4 0 0 Z " fill="#9C9C9C" transform="translate(310,177)"/>
<path d="M0 0 C0.99 0.103125 1.98 0.20625 3 0.3125 C5.58518452 4.19027678 5.15804577 6.24499029 4.61328125 10.734375 C3.37441703 15.94233925 0.44448186 19.3495121 -4 22.3125 C-7.32240324 21.9883631 -8.60776303 21.70473697 -11 19.3125 C-11.01171875 17.03515625 -11.01171875 17.03515625 -10.6875 14.375 C-10.58824219 13.49972656 -10.48898437 12.62445313 -10.38671875 11.72265625 C-10 9.3125 -10 9.3125 -9 6.3125 C-8.01 6.3125 -7.02 6.3125 -6 6.3125 C-5.814375 5.384375 -5.814375 5.384375 -5.625 4.4375 C-4.60560145 0.97154494 -3.56265809 0.37111022 0 0 Z " fill="#A5A5A5" transform="translate(518,189.6875)"/>
<path d="M0 0 C0.33 0.99 0.66 1.98 1 3 C2.79493574 4.16285751 2.79493574 4.16285751 4.9375 5.0625 C7.50887099 6.22451702 8.97683978 6.97683978 11 9 C11.4375 11.4375 11.4375 11.4375 11 14 C7.98567237 16.91385004 5.09530304 17.23509884 1.0625 17.375 C-3.27039387 17.2584199 -6.28445355 16.34666091 -10 14 C-10 12.35 -10 10.7 -10 9 C-8.02 8.01 -6.04 7.02 -4 6 C-4 4.35 -4 2.7 -4 1 C-2 0 -2 0 0 0 Z " fill="#ECECEC" transform="translate(631,207)"/>
<path d="M0 0 C0 2.31 0 4.62 0 7 C0.33 6.01 0.66 5.02 1 4 C3.475 4.99 3.475 4.99 6 6 C6.66 4.02 7.32 2.04 8 0 C8.99 0.33 9.98 0.66 11 1 C10.57847656 2.02480469 10.15695312 3.04960937 9.72265625 4.10546875 C9.1690397 5.46605181 8.61566714 6.82673416 8.0625 8.1875 C7.78470703 8.86103516 7.50691406 9.53457031 7.22070312 10.22851562 C5.77378944 13.80221811 4.58836871 17.16443184 4 21 C2.68 21 1.36 21 0 21 C0 19.35 0 17.7 0 16 C-0.55429688 16.3609375 -1.10859375 16.721875 -1.6796875 17.09375 C-2.40414063 17.5578125 -3.12859375 18.021875 -3.875 18.5 C-4.59429688 18.9640625 -5.31359375 19.428125 -6.0546875 19.90625 C-8 21 -8 21 -10 21 C-10 19.68 -10 18.36 -10 17 C-7 16 -7 16 -3 16 C-2.67 14.02 -2.34 12.04 -2 10 C-2.474375 10.495 -2.94875 10.99 -3.4375 11.5 C-5 13 -5 13 -6 13 C-7.74670185 7.75989446 -7.74670185 7.75989446 -8 5 C-5.88796624 2.05823869 -3.74876219 0 0 0 Z " fill="#E9E9E9" transform="translate(1129,190)"/>
<path d="M0 0 C9.9 0 19.8 0 30 0 C30 1.32 30 2.64 30 4 C29.01 3.67 28.02 3.34 27 3 C25.10787263 2.77820215 23.21115528 2.59385985 21.3125 2.4375 C20.31863281 2.35371094 19.32476562 2.26992187 18.30078125 2.18359375 C17.16189453 2.09271484 17.16189453 2.09271484 16 2 C15.896875 3.299375 15.79375 4.59875 15.6875 5.9375 C15.19002543 10.96271418 14.38113426 15.9059545 13.5 20.875 C13.36940186 21.61226318 13.23880371 22.34952637 13.10424805 23.10913086 C12.50270994 26.43759093 11.84427297 29.72527169 11 33 C12.98 33 14.96 33 17 33 C17 33.33 17 33.66 17 34 C13.37 34 9.74 34 6 34 C6.92680424 30.22658272 7.84688922 26.49282532 9 22.78125 C10.12198904 18.53872893 10.66978927 14.41685187 11.125 10.0625 C11.21136719 9.28326172 11.29773438 8.50402344 11.38671875 7.70117188 C11.59651323 5.8013663 11.79901994 3.90075826 12 2 C10.37399059 2.0870005 8.74910322 2.1951781 7.125 2.3125 C5.76761719 2.39951172 5.76761719 2.39951172 4.3828125 2.48828125 C1.63778399 2.7882039 1.63778399 2.7882039 0 6 C-0.66 5.67 -1.32 5.34 -2 5 C-1.34 3.35 -0.68 1.7 0 0 Z " fill="#B1B1B1" transform="translate(182,177)"/>
<path d="M0 0 C0.66 0 1.32 0 2 0 C2.19558903 10.69220032 1.59054589 21.32799208 1 32 C2.32 32.33 3.64 32.66 5 33 C1.04 33 -2.92 33 -7 33 C-5.02 32.505 -5.02 32.505 -3 32 C-3 28.7 -3 25.4 -3 22 C-8.94 22 -14.88 22 -21 22 C-21 21.34 -21 20.68 -21 20 C-20.34 20 -19.68 20 -19 20 C-18.67 19.01 -18.34 18.02 -18 17 C-17.01 16.67 -16.02 16.34 -15 16 C-15 16.66 -15 17.32 -15 18 C-10.71 18.33 -6.42 18.66 -2 19 C-2.144375 16.89625 -2.28875 14.7925 -2.4375 12.625 C-2.51871094 11.44164062 -2.59992187 10.25828125 -2.68359375 9.0390625 C-2.81084936 6.08481099 -2.81084936 6.08481099 -4 4 C-3.34 4 -2.68 4 -2 4 C-1.34 2.68 -0.68 1.36 0 0 Z " fill="#919191" transform="translate(869,178)"/>
<path d="M0 0 C1.65 0 3.3 0 5 0 C4.566875 1.35544922 4.566875 1.35544922 4.125 2.73828125 C3.75375 3.91777344 3.3825 5.09726563 3 6.3125 C2.62875 7.48425781 2.2575 8.65601563 1.875 9.86328125 C0.86565228 12.93886676 0.86565228 12.93886676 1 16 C1.391875 15.505 1.78375 15.01 2.1875 14.5 C4 13 4 13 6.625 12.75 C9 13 9 13 10 14 C10.90271299 20.76294816 9.38245131 25.18641182 6 31 C5.34 31 4.68 31 4 31 C5.32 25.39 6.64 19.78 8 14 C0.08599619 19.27600254 -3.6457727 25.24173982 -7 34 C-7.66 34 -8.32 34 -9 34 C-8.32829194 30.1936543 -7.27253436 26.64793184 -6 23 C-5.34 23 -4.68 23 -4 23 C-4.020625 21.88625 -4.04125 20.7725 -4.0625 19.625 C-4 16 -4 16 -3 14 C-2.34 14 -1.68 14 -1 14 C-1.020625 12.989375 -1.04125 11.97875 -1.0625 10.9375 C-1.00312266 7.19672743 -0.60204915 3.68755102 0 0 Z " fill="#A7A7A7" transform="translate(957,177)"/>
<path d="M0 0 C0.886875 0.12375 1.77375 0.2475 2.6875 0.375 C2.6875 1.695 2.6875 3.015 2.6875 4.375 C2.0275 4.045 1.3675 3.715 0.6875 3.375 C0.6875 2.715 0.6875 2.055 0.6875 1.375 C-2.29933456 2.41662718 -3.1675651 3.07707827 -4.578125 5.9765625 C-4.90296875 6.97429687 -5.2278125 7.97203125 -5.5625 9 C-6.06523438 10.50433594 -6.06523438 10.50433594 -6.578125 12.0390625 C-6.82046875 12.80992187 -7.0628125 13.58078125 -7.3125 14.375 C-5.9925 14.705 -4.6725 15.035 -3.3125 15.375 C-4.9625 15.375 -6.6125 15.375 -8.3125 15.375 C-8.38726563 15.9834375 -8.46203125 16.591875 -8.5390625 17.21875 C-9.45291565 23.31110435 -11.03064502 28.97558311 -13.125 34.75 C-13.36105957 35.42740234 -13.59711914 36.10480469 -13.84033203 36.80273438 C-15.54431879 41.33024627 -17.53931127 44.3390343 -21.3125 47.375 C-25.125 47.6875 -25.125 47.6875 -28.3125 47.375 C-28.3125 46.385 -28.3125 45.395 -28.3125 44.375 C-26.3325 44.705 -24.3525 45.035 -22.3125 45.375 C-18.34709238 40.41824047 -16.86589241 35.17480989 -15.14453125 29.10546875 C-14.3125 26.375 -14.3125 26.375 -13.3125 25.375 C-12.91795777 23.52900312 -12.57073134 21.67274178 -12.25 19.8125 C-12.07339844 18.80058594 -11.89679687 17.78867188 -11.71484375 16.74609375 C-11.58207031 15.96363281 -11.44929687 15.18117187 -11.3125 14.375 C-10.6525 14.375 -9.9925 14.375 -9.3125 14.375 C-9.2196875 12.580625 -9.2196875 12.580625 -9.125 10.75 C-8.40101341 5.09888244 -6.12933059 0.69388648 0 0 Z " fill="#969696" transform="translate(555.3125,176.625)"/>
<path d="M0 0 C0.8125 2.1875 0.8125 2.1875 1 5 C-1.54839048 8.39785398 -3.16264437 9.79461088 -7.3125 10.8125 C-8.199375 10.874375 -9.08625 10.93625 -10 11 C-10 13.64 -10 16.28 -10 19 C-8.35 18.67 -6.7 18.34 -5 18 C-5 18.66 -5 19.32 -5 20 C-8 22 -8 22 -10.125 21.6875 C-12 21 -12 21 -13 20 C-13.07205511 18.31391034 -13.08386068 16.62499341 -13.0625 14.9375 C-13.05347656 14.01839844 -13.04445313 13.09929687 -13.03515625 12.15234375 C-13.02355469 11.44207031 -13.01195312 10.73179687 -13 10 C-12.34 10 -11.68 10 -11 10 C-11 8.68 -11 7.36 -11 6 C-10.34 5.67 -9.68 5.34 -9 5 C-8.67 4.34 -8.34 3.68 -8 3 C-6.18317104 -0.63365792 -3.70249681 -0.09743413 0 0 Z " fill="#888888" transform="translate(1049,190)"/>
<path d="M0 0 C1.2065625 0.0309375 1.2065625 0.0309375 2.4375 0.0625 C3.25 2.25 3.25 2.25 3.4375 5.0625 C0.88910952 8.46035398 -0.72514437 9.85711088 -4.875 10.875 C-5.761875 10.936875 -6.64875 10.99875 -7.5625 11.0625 C-7.5625 13.7025 -7.5625 16.3425 -7.5625 19.0625 C-4.01731116 17.66490095 -4.01731116 17.66490095 -0.5625 16.0625 C-1.93233503 19.22365776 -2.5515638 20.0552092 -5.5625 22.0625 C-7.6875 21.8125 -7.6875 21.8125 -9.5625 21.0625 C-11.22821141 17.73107719 -11.30962858 14.63342164 -10.5625 11.0625 C-4.39921364 0.10729789 -4.39921364 0.10729789 0 0 Z " fill="#C1C1C1" transform="translate(269.5625,189.9375)"/>
<path d="M0 0 C0.721875 0.103125 1.44375 0.20625 2.1875 0.3125 C1.79674218 6.17386737 -0.16470351 10.607621 -2.75390625 15.859375 C-4.01060598 18.32628179 -4.01060598 18.32628179 -3.8125 21.3125 C-5.1325 21.3125 -6.4525 21.3125 -7.8125 21.3125 C-7.14642561 16.90291892 -5.54625271 13.04677814 -3.75 9 C-3.46833984 8.35482422 -3.18667969 7.70964844 -2.89648438 7.04492188 C-2.2062257 5.46551642 -1.50996802 3.88873507 -0.8125 2.3125 C-4.9079368 5.39448973 -7.54185976 8.49544365 -10.3828125 12.703125 C-10.85460937 13.23421875 -11.32640625 13.7653125 -11.8125 14.3125 C-12.8025 14.3125 -13.7925 14.3125 -14.8125 14.3125 C-14.8125 13.3225 -14.8125 12.3325 -14.8125 11.3125 C-14.1525 11.3125 -13.4925 11.3125 -12.8125 11.3125 C-12.8125 8.3425 -12.8125 5.3725 -12.8125 2.3125 C-11.1625 1.9825 -9.5125 1.6525 -7.8125 1.3125 C-7.8125 2.6325 -7.8125 3.9525 -7.8125 5.3125 C-7.090625 4.4875 -6.36875 3.6625 -5.625 2.8125 C-2.8125 0.3125 -2.8125 0.3125 0 0 Z " fill="#B5B5B5" transform="translate(805.8125,189.6875)"/>
<path d="M0 0 C-0.50603992 2.16874252 -0.99983813 3.99967627 -2 6 C-1.01 6.33 -0.02 6.66 1 7 C1.9375 9.0625 1.9375 9.0625 2 12 C-1.12148894 16.23299835 -5.27128916 19.70319759 -10 22 C-10.66 22 -11.32 22 -12 22 C-12 21.01 -12 20.02 -12 19 C-11.34 19 -10.68 19 -10 19 C-10 18.01 -10 17.02 -10 16 C-9.34 16 -8.68 16 -8 16 C-8 15.01 -8 14.02 -8 13 C-7.34 12.34 -6.68 11.68 -6 11 C-5.83318891 7.91652174 -5.83318891 7.91652174 -6 5 C-6.99 5.66 -7.98 6.32 -9 7 C-7.16766277 2.5718517 -4.96404317 0 0 0 Z " fill="#EAEAEA" transform="translate(411,190)"/>
<path d="M0 0 C-1.98 5.28 -3.96 10.56 -6 16 C-4.68 15.34 -3.36 14.68 -2 14 C-2.625 15.9375 -2.625 15.9375 -4 18 C-7.125 18.75 -7.125 18.75 -10 19 C-9.67 17.35 -9.34 15.7 -9 14 C-10.3303125 15.2375 -10.3303125 15.2375 -11.6875 16.5 C-13.85567993 18.51691157 -14.68232985 18.98166406 -17.70703125 19.15625 C-18.46371094 19.1046875 -19.22039062 19.053125 -20 19 C-19.93999894 17.3739713 -19.8512115 15.74898451 -19.75 14.125 C-19.70359375 13.22007812 -19.6571875 12.31515625 -19.609375 11.3828125 C-19 9 -19 9 -16.953125 7.6796875 C-16.30859375 7.45539063 -15.6640625 7.23109375 -15 7 C-15 6.34 -15 5.68 -15 5 C-14.34 5.33 -13.68 5.66 -13 6 C-13.474375 6.886875 -13.94875 7.77375 -14.4375 8.6875 C-15.79737149 11.57042756 -16.54060386 13.87610623 -17 17 C-12.25297434 14.62648717 -8.97945383 11.33633885 -6 7 C-5.05759076 4.24235649 -5.05759076 4.24235649 -5 2 C-5.99 1.34 -6.98 0.68 -8 0 C-4.71303767 -0.79953138 -3.28976808 -1.09658936 0 0 Z " fill="#8B8B8B" transform="translate(385,192)"/>
<path d="M0 0 C2.0625 0.4375 2.0625 0.4375 4 1 C2.81504168 7.27330874 1.43929699 12.71225189 -2.4375 17.9375 C-2.953125 18.288125 -3.46875 18.63875 -4 19 C-6.09765625 18.56640625 -6.09765625 18.56640625 -8 18 C-6.95109901 11.2369369 -4.96918432 4.96918432 0 0 Z " fill="#F2F2F2" transform="translate(517,191)"/>
<path d="M0 0 C-0.08733973 2.08410658 -0.19552278 4.16734669 -0.3125 6.25 C-0.37050781 7.41015625 -0.42851562 8.5703125 -0.48828125 9.765625 C-1.02282969 13.14429761 -1.52761864 14.66497316 -4 17 C-7.6875 17.25 -7.6875 17.25 -11 17 C-11.875 15 -11.875 15 -12 12 C-9.71860408 8.01347771 -4.90311268 0 0 0 Z " fill="#F4F4F4" transform="translate(240,191)"/>
<path d="M0 0 C0.99 0 1.98 0 3 0 C3.85462447 5.55505907 1.71250713 8.54913731 -1.296875 12.94921875 C-3.05377154 15.06474785 -4.66430106 16.55168274 -7 18 C-7.99 18 -8.98 18 -10 18 C-10 10.31355882 -5.26698988 5.26698988 0 0 Z " fill="#F1F1F1" transform="translate(315,192)"/>
<path d="M0 0 C1.49080078 0.17982422 1.49080078 0.17982422 3.01171875 0.36328125 C3.77097656 0.47027344 4.53023437 0.57726562 5.3125 0.6875 C4.3225 1.0175 3.3325 1.3475 2.3125 1.6875 C2.43625 3.5128125 2.43625 3.5128125 2.5625 5.375 C2.54572469 8.53435015 2.31418508 9.68439945 0.75 12.5625 C-2.24000902 15.16917453 -4.84196665 15.87402179 -8.6875 16.6875 C-7.6875 14.6875 -7.6875 14.6875 -5.1875 13.375 C-2.44512694 11.90689608 -2.44512694 11.90689608 -1.875 9 C-1.813125 8.236875 -1.75125 7.47375 -1.6875 6.6875 C-3.0075 6.3575 -4.3275 6.0275 -5.6875 5.6875 C-6.89378008 8.01964148 -7.8529738 10.18392139 -8.6875 12.6875 C-9.3475 12.6875 -10.0075 12.6875 -10.6875 12.6875 C-10.91283942 7.73003278 -10.41437031 5.00106342 -7.46875 1.0546875 C-4.88540527 -0.92814289 -3.16737597 -0.40989571 0 0 Z " fill="#E7E7E7" transform="translate(639.6875,190.3125)"/>
<path d="M0 0 C2.36194588 3.68648808 2.17466401 6.82687527 2.0625 11.125 C1.7542614 15.7267846 1.7542614 15.7267846 3 20 C-5.27247049 31.25915465 -5.27247049 31.25915465 -12 34 C-15.25 34.4375 -15.25 34.4375 -18 34 C-19.671875 32.47265625 -19.671875 32.47265625 -21 31 C-20.02160156 31.06960937 -20.02160156 31.06960937 -19.0234375 31.140625 C-14.78447505 31.3156854 -11.61509551 31.23920381 -7.625 29.6875 C-2.9427677 24.89378598 -1.23674213 18.84090551 -0.6875 12.25 C-1.16908716 7.10049936 -1.16908716 7.10049936 -2 2 C-2.66 1.67 -3.32 1.34 -4 1 C-2 0 -2 0 0 0 Z " fill="#9B9B9B" transform="translate(469,190)"/>
<path d="M0 0 C0 1.32 0 2.64 0 4 C-0.61875 4.12375 -1.2375 4.2475 -1.875 4.375 C-4.19120832 4.87197356 -4.19120832 4.87197356 -6 7 C-7.64991582 7.70710678 -9.31562256 8.37943989 -11 9 C-11.33 11.97 -11.66 14.94 -12 18 C-11.21625 17.525625 -10.4325 17.05125 -9.625 16.5625 C-8.11051322 15.66101977 -6.5764103 14.78820515 -5 14 C-6.15173355 16.46800047 -7.04783565 18.04783565 -9 20 C-11.5625 20.1875 -11.5625 20.1875 -14 20 C-15 19 -15 19 -15.125 17.03125 C-14.75939032 9.62765394 -12.17611225 5.24783667 -7 0 C-4.3333581 -1.33332095 -2.83319697 -0.67102033 0 0 Z " fill="#999999" transform="translate(935,191)"/>
<path d="M0 0 C0.763125 0.20625 1.52625 0.4125 2.3125 0.625 C2.3125 1.945 2.3125 3.265 2.3125 4.625 C1.3225 4.955 0.3325 5.285 -0.6875 5.625 C-1.3475 6.285 -2.0075 6.945 -2.6875 7.625 C-2.6875 6.965 -2.6875 6.305 -2.6875 5.625 C-4.69259468 6.22917902 -4.69259468 6.22917902 -6.6875 7.625 C-7.8216403 10.25127991 -7.8216403 10.25127991 -8.4375 13.25 C-8.67984375 14.25289062 -8.9221875 15.25578125 -9.171875 16.2890625 C-9.34203125 17.05992187 -9.5121875 17.83078125 -9.6875 18.625 C-8.90375 18.150625 -8.12 17.67625 -7.3125 17.1875 C-5.79801322 16.28601977 -4.2639103 15.41320515 -2.6875 14.625 C-4.08082574 17.99220387 -5.6664286 19.6109524 -8.6875 21.625 C-10.0075 20.965 -11.3275 20.305 -12.6875 19.625 C-12.06779501 9.81656581 -12.06779501 9.81656581 -8.6875 5.625 C-8.0275 5.625 -7.3675 5.625 -6.6875 5.625 C-6.5328125 4.696875 -6.5328125 4.696875 -6.375 3.75 C-5.24678357 0.26278559 -3.51796162 -0.49087837 0 0 Z " fill="#9A9A9A" transform="translate(1076.6875,190.375)"/>
<path d="M0 0 C1.65 0 3.3 0 5 0 C2.96150996 7.19386557 0.51843632 14.15709165 -2.1875 21.125 C-2.55552734 22.08148438 -2.92355469 23.03796875 -3.30273438 24.0234375 C-4.19855445 26.35024289 -5.09767773 28.67571021 -6 31 C-4.68 29.68 -3.36 28.36 -2 27 C-1.34 27.33 -0.68 27.66 0 28 C-5.14285714 33.57142857 -5.14285714 33.57142857 -9 34 C-9.20461175 30.17376031 -8.642375 27.56796853 -7.125 24.0625 C-5.58658061 20.4128455 -4.19385241 16.78053263 -3 13 C-2.34 13 -1.68 13 -1 13 C-1.020625 12.195625 -1.04125 11.39125 -1.0625 10.5625 C-1 8 -1 8 0 7 C0.04092937 4.66702567 0.04241723 2.33294775 0 0 Z " fill="#ADADAD" transform="translate(587,177)"/>
<path d="M0 0 C0.66 0.33 1.32 0.66 2 1 C1.484375 1.598125 0.96875 2.19625 0.4375 2.8125 C-0.2740625 3.8953125 -0.2740625 3.8953125 -1 5 C-0.67 5.99 -0.34 6.98 0 8 C1.60414215 6.81476003 1.60414215 6.81476003 3 5 C3.25069913 2.37429296 3.25069913 2.37429296 3 0 C3.99 0.33 4.98 0.66 6 1 C6.35205968 4.1685371 6.28286337 5.59267675 4.4375 8.25 C1.32665983 10.48342371 -1.22741269 10.70980098 -5 11 C-5 13.64 -5 16.28 -5 19 C-1.45481116 17.60240095 -1.45481116 17.60240095 2 16 C0.125 19.875 0.125 19.875 -1 21 C-2.99958364 21.04080783 -5.00045254 21.04254356 -7 21 C-8.52593712 17.94812577 -8.65251719 15.28653155 -8 12 C-5.87168922 7.61895413 -3.45505422 3.45505422 0 0 Z " fill="#939393" transform="translate(1192,190)"/>
<path d="M0 0 C0.99 0 1.98 0 3 0 C2.125 4.75 2.125 4.75 1 7 C2.32 7.66 3.64 8.32 5 9 C3.02 9 1.04 9 -1 9 C-1.12246094 9.71542969 -1.24492188 10.43085938 -1.37109375 11.16796875 C-2.01135375 14.05112713 -2.93551556 16.58592473 -4.0625 19.3125 C-4.42472656 20.19550781 -4.78695312 21.07851562 -5.16015625 21.98828125 C-5.57587891 22.98408203 -5.57587891 22.98408203 -6 24 C-4.35 23.01 -2.7 22.02 -1 21 C-2.48781815 24.78717347 -4.61988409 26.77407001 -8 29 C-8.99 28.67 -9.98 28.34 -11 28 C-10.566875 26.845 -10.13375 25.69 -9.6875 24.5 C-9.41550781 23.77425781 -9.14351562 23.04851562 -8.86328125 22.30078125 C-8.29932413 20.7977462 -7.73426763 19.29512306 -7.16796875 17.79296875 C-6.06861251 14.8739884 -4.98646557 11.95939672 -4 9 C-4.66 8.67 -5.32 8.34 -6 8 C-5.38125 7.79375 -4.7625 7.5875 -4.125 7.375 C-1.15346355 5.45224112 -0.86975341 3.33405473 0 0 Z " fill="#9B9B9B" transform="translate(1019,183)"/>
<path d="M0 0 C0.66 0 1.32 0 2 0 C1.37183502 3.94949704 0.1354471 7.19892028 -1.5625 10.8125 C-2.01753906 11.78832031 -2.47257813 12.76414063 -2.94140625 13.76953125 C-3.29074219 14.50558594 -3.64007812 15.24164063 -4 16 C-6.97 15.505 -6.97 15.505 -10 15 C-10.45375 15.825 -10.9075 16.65 -11.375 17.5 C-12.179375 18.7375 -12.179375 18.7375 -13 20 C-13.66 20 -14.32 20 -15 20 C-14.8125 17.75 -14.8125 17.75 -14 15 C-12.34027562 13.65803482 -10.67252004 12.32598351 -9 11 C-7.53627223 9.31048444 -6.11823426 7.58023777 -4.75 5.8125 C-1.00662252 1.00662252 -1.00662252 1.00662252 0 0 Z " fill="#E5E5E5" transform="translate(803,192)"/>
<path d="M0 0 C0.66 0 1.32 0 2 0 C1.47731534 2.76276177 0.89130413 5.3260876 0 8 C1.32 8.33 2.64 8.66 4 9 C2.02 9 0.04 9 -2 9 C-2.12246094 9.70511719 -2.24492187 10.41023437 -2.37109375 11.13671875 C-3.03405201 14.15503183 -3.98175575 16.91889442 -5.0625 19.8125 C-5.42472656 20.78832031 -5.78695313 21.76414063 -6.16015625 22.76953125 C-6.43730469 23.50558594 -6.71445312 24.24164063 -7 25 C-5.68 23.68 -4.36 22.36 -3 21 C-2.34 21.33 -1.68 21.66 -1 22 C-2.09601169 23.00893131 -3.20213918 24.00688225 -4.3125 25 C-4.92738281 25.556875 -5.54226563 26.11375 -6.17578125 26.6875 C-8 28 -8 28 -11 28 C-9.95348842 22.17533684 -8.35341309 17.1497711 -5.70703125 11.84765625 C-5.47371094 11.23792969 -5.24039062 10.62820312 -5 10 C-5.33 9.34 -5.66 8.68 -6 8 C-5.01 8 -4.02 8 -3 8 C-2.87625 7.236875 -2.7525 6.47375 -2.625 5.6875 C-2 3 -2 3 0 0 Z " fill="#A0A0A0" transform="translate(447,183)"/>
<path d="M0 0 C0.66 0 1.32 0 2 0 C2 26.73 2 53.46 2 81 C2.66 81 3.32 81 4 81 C3.67 82.32 3.34 83.64 3 85 C3 84.01 3 83.02 3 82 C2.34 82 1.68 82 1 82 C0.98969254 81.07371796 0.97938507 80.14743591 0.96876526 79.19308472 C0.87068998 70.45350292 0.76816144 61.71398706 0.66066074 52.97451591 C0.60555312 48.48173271 0.55215298 43.98894287 0.50268555 39.49609375 C0.4548621 35.15831152 0.40251359 30.82060512 0.34705925 26.48291397 C0.32671692 24.82998677 0.30799083 23.17703884 0.29092598 21.52407455 C0.26670123 19.20461308 0.23667271 16.88529259 0.20532227 14.56591797 C0.18977798 13.24687469 0.1742337 11.92783142 0.15821838 10.56881714 C0.07351291 7.01123054 0.07351291 7.01123054 -0.57533264 3.58963013 C-0.71547287 2.73505219 -0.8556131 1.88047424 -1 1 C-0.67 0.67 -0.34 0.34 0 0 Z " fill="#A2A2A2" transform="translate(460,11)"/>
<path d="M0 0 C1.32 0 2.64 0 4 0 C2.36959185 6.01077136 0.72852643 12.01663928 -1 18 C0.32 17.01 1.64 16.02 3 15 C1.56312329 18.01812859 -0.08703312 20.77973683 -1.9375 23.5625 C-2.44152344 24.32691406 -2.94554687 25.09132812 -3.46484375 25.87890625 C-4.85172947 27.79513767 -6.27564024 29.38888178 -8 31 C-6.86299135 23.26534904 -4.89288848 16.26030749 -2 9 C-1.34 9 -0.68 9 0 9 C0 6.03 0 3.06 0 0 Z " fill="#A6A6A6" transform="translate(233,177)"/>
<path d="M0 0 C0.99 0 1.98 0 3 0 C2.34 2.31 1.68 4.62 1 7 C2.32 7.33 3.64 7.66 5 8 C3.86498047 8.02900391 3.86498047 8.02900391 2.70703125 8.05859375 C-0.33607285 8.78409608 -0.33607285 8.78409608 -1.80078125 12.16015625 C-2.32457241 13.45305848 -2.82788046 14.75441083 -3.3125 16.0625 C-3.57611328 16.72572266 -3.83972656 17.38894531 -4.11132812 18.07226562 C-4.75854732 19.70796505 -5.38164295 21.3531728 -6 23 C-5.01 23.33 -4.02 23.66 -3 24 C-5.3125 26.0625 -5.3125 26.0625 -8 28 C-8.99 27.67 -9.98 27.34 -11 27 C-10.34 26.67 -9.68 26.34 -9 26 C-8.7834375 24.4221875 -8.7834375 24.4221875 -8.5625 22.8125 C-8 19 -8 19 -6.4375 15.9375 C-4.84467962 12.68260618 -4.74469545 10.57426377 -5 7 C-3.68 6.67 -2.36 6.34 -1 6 C-0.67 4.02 -0.34 2.04 0 0 Z " fill="#9B9B9B" transform="translate(1102,184)"/>
<path d="M0 0 C0.99 0.33 1.98 0.66 3 1 C2.01 2.98 1.02 4.96 0 7 C1.65 7 3.3 7 5 7 C5 7.33 5 7.66 5 8 C3.02 8 1.04 8 -1 8 C-1.18175781 8.56847656 -1.36351562 9.13695312 -1.55078125 9.72265625 C-3.14084634 14.60701003 -4.90459778 19.31029027 -7 24 C-5.02 22.68 -3.04 21.36 -1 20 C-2.49041773 23.79379058 -4.69062512 25.68343758 -8 28 C-8.66 28 -9.32 28 -10 28 C-10 26.02 -10 24.04 -10 22 C-9.01 21.67 -8.02 21.34 -7 21 C-7.061875 19.824375 -7.061875 19.824375 -7.125 18.625 C-7 16 -7 16 -5 14 C-4.59952556 11.67724823 -4.2602896 9.34260643 -4 7 C-3.34 7 -2.68 7 -2 7 C-1.855625 6.030625 -1.71125 5.06125 -1.5625 4.0625 C-1 1 -1 1 0 0 Z " fill="#9F9F9F" transform="translate(704,184)"/>
<path d="M0 0 C2.5 0.125 2.5 0.125 3.5 1.125 C3.56271675 7.08309099 2.52988526 11.59137909 -1.5 16.125 C-9.00344828 22.125 -9.00344828 22.125 -14.5 22.125 C-14.5 21.135 -14.5 20.145 -14.5 19.125 C-13.46875 19.125 -12.4375 19.125 -11.375 19.125 C-7.83484768 18.61516062 -6.39026972 17.3417971 -4.1875 14.5625 C-1.45719123 10.53620467 -0.35037051 6.88707486 0.5 2.125 C-1.48 3.115 -3.46 4.105 -5.5 5.125 C-3.09504132 0.15475207 -3.09504132 0.15475207 0 0 Z " fill="#8A8A8A" transform="translate(317.5,189.875)"/>
<path d="M0 0 C0.99 0.33 1.98 0.66 3 1 C2.40140845 6.38732394 2.40140845 6.38732394 0.8125 8.8125 C-1.69122248 10.4528699 -4.0589767 10.67321963 -7 11 C-7.33 13.64 -7.66 16.28 -8 19 C-5.69 18.34 -3.38 17.68 -1 17 C-2.125 19 -2.125 19 -4 21 C-7.1875 21.25 -7.1875 21.25 -10 21 C-11.5121867 17.97562661 -11.17263369 15.33758466 -11 12 C-10 9.5625 -10 9.5625 -9 8 C-8.34 8 -7.68 8 -7 8 C-7 8.66 -7 9.32 -7 10 C-3.93942994 8.40521237 -3.93942994 8.40521237 -1 6 C-0.0311941 2.86734521 -0.0311941 2.86734521 0 0 Z " fill="#929292" transform="translate(347,190)"/>
<path d="M0 0 C1.32 0 2.64 0 4 0 C3.35534798 4.33304076 1.81074878 7.86672065 -0.0625 11.8125 C-0.61035156 12.97394531 -1.15820312 14.13539063 -1.72265625 15.33203125 C-2.14417969 16.21246094 -2.56570313 17.09289062 -3 18 C-2.01 17.67 -1.02 17.34 0 17 C0 17.66 0 18.32 0 19 C-2.5614657 21.29648649 -3.47967572 22 -7 22 C-6.63146732 16.34916562 -4.8764751 12.37986458 -2.15625 7.4296875 C-0.97090211 4.9388551 -0.42520009 2.7154824 0 0 Z " fill="#8E8E8E" transform="translate(769,190)"/>
<path d="M0 0 C-0.55619669 4.6889493 -1.88182673 8.19924267 -4.0625 12.375 C-4.61035156 13.43460938 -5.15820312 14.49421875 -5.72265625 15.5859375 C-6.14417969 16.38257813 -6.56570313 17.17921875 -7 18 C-5.02 16.68 -3.04 15.36 -1 14 C-2.2824977 16.86095641 -3.45343989 19.11365918 -6 21 C-8.6875 21.1875 -8.6875 21.1875 -11 21 C-11 20.34 -11 19.68 -11 19 C-10.34 19 -9.68 19 -9 19 C-8.9175 17.989375 -8.835 16.97875 -8.75 15.9375 C-8.16227462 11.62166584 -6.24385159 8.69149778 -4 5 C-4 4.34 -4 3.68 -4 3 C-4.66 2.67 -5.32 2.34 -6 2 C-3 0 -3 0 0 0 Z " fill="#878787" transform="translate(612,190)"/>
<path d="M0 0 C0.66 0 1.32 0 2 0 C1.979375 0.78375 1.95875 1.5675 1.9375 2.375 C1.81315937 4.98114961 1.81315937 4.98114961 3 7 C1.75874818 9.61161731 0.4689476 12.10501786 -0.9375 14.625 C-1.32357422 15.33140625 -1.70964844 16.0378125 -2.10742188 16.765625 C-3.06448696 18.51433651 -4.03134031 20.25768432 -5 22 C-5.66 22 -6.32 22 -7 22 C-6.00319323 14.22490717 -3.17819217 7.11309675 0 0 Z " fill="#929292" transform="translate(1162,190)"/>
<path d="M0 0 C0.33 0.99 0.66 1.98 1 3 C2.79493574 4.16285751 2.79493574 4.16285751 4.9375 5.0625 C7.50887099 6.22451702 8.97683978 6.97683978 11 9 C11.4375 11.4375 11.4375 11.4375 11 14 C7.82700519 17.06722832 4.90846649 17.17552563 0.6875 17.1875 C-0.87551517 17.13958275 -2.43839515 17.08187055 -4 17 C-4 16.67 -4 16.34 -4 16 C0.29 15.34 4.58 14.68 9 14 C8.67 12.68 8.34 11.36 8 10 C5.50876195 8.77415271 2.99758682 8.04241895 0.34765625 7.22265625 C-2 6 -2 6 -3.31640625 3.37109375 C-3.54199219 2.58863281 -3.76757812 1.80617187 -4 1 C-2 0 -2 0 0 0 Z " fill="#838383" transform="translate(631,207)"/>
<path d="M0 0 C-1.8331267 5.99932374 -4.07321751 11.44920563 -7 17 C-6.01 17 -5.02 17 -4 17 C-4 17.66 -4 18.32 -4 19 C-6.5614657 21.29648649 -7.47967572 22 -11 22 C-9.75140295 14.38355798 -6.92995969 8.61172464 -3 2 C-3.66 1.67 -4.32 1.34 -5 1 C-3 0 -3 0 0 0 Z " fill="#9F9F9F" transform="translate(994,190)"/>
<path d="M0 0 C0.66 0 1.32 0 2 0 C0.58216872 4.90710399 -0.85629971 9.75265918 -2.75 14.5 C-3.1625 15.655 -3.575 16.81 -4 18 C-3.67 18.66 -3.34 19.32 -3 20 C-4.65 20.66 -6.3 21.32 -8 22 C-6.92048634 13.36389071 -5.70091614 6.84109937 0 0 Z " fill="#8A8A8A" transform="translate(419,190)"/>
<path d="M0 0 C0.99 0.33 1.98 0.66 3 1 C2.57847656 2.02480469 2.15695312 3.04960937 1.72265625 4.10546875 C1.1690397 5.46605181 0.61566714 6.82673416 0.0625 8.1875 C-0.21529297 8.86103516 -0.49308594 9.53457031 -0.77929688 10.22851562 C-2.22621056 13.80221811 -3.41163129 17.16443184 -4 21 C-5.32 21 -6.64 21 -8 21 C-7.7834375 20.31292969 -7.566875 19.62585938 -7.34375 18.91796875 C-7.0653125 18.01691406 -6.786875 17.11585938 -6.5 16.1875 C-6.2215625 15.29417969 -5.943125 14.40085938 -5.65625 13.48046875 C-4.87211649 10.94426605 -4.87211649 10.94426605 -5 8 C-3.90625 5.95703125 -3.90625 5.95703125 -2.5 3.8125 C-2.0359375 3.09707031 -1.571875 2.38164062 -1.09375 1.64453125 C-0.7328125 1.10183594 -0.371875 0.55914062 0 0 Z " fill="#878787" transform="translate(1137,190)"/>
<path d="M0 0 C0.99 0 1.98 0 3 0 C2.814375 1.11375 2.62875 2.2275 2.4375 3.375 C1.68319343 6.82568861 1.68319343 6.82568861 3 9 C1.92325298 11.28258633 0.80453884 13.4356434 -0.4375 15.625 C-0.77587891 16.23601562 -1.11425781 16.84703125 -1.46289062 17.4765625 C-2.30146192 18.988353 -3.14982577 20.49470399 -4 22 C-4.66 22 -5.32 22 -6 22 C-5.69078116 20.54096742 -5.37751201 19.08279278 -5.0625 17.625 C-4.88847656 16.81289062 -4.71445312 16.00078125 -4.53515625 15.1640625 C-4 13 -4 13 -3 11 C-2.34 11 -1.68 11 -1 11 C-1.020625 9.9275 -1.04125 8.855 -1.0625 7.75 C-1.0142016 4.85209576 -0.86844115 2.71387859 0 0 Z " fill="#A1A1A1" transform="translate(897,190)"/>
<path d="M0 0 C0.99 0 1.98 0 3 0 C2.60924218 5.86136737 0.64779649 10.295121 -1.94140625 15.546875 C-3.19810598 18.01378179 -3.19810598 18.01378179 -3 21 C-4.32 21 -5.64 21 -7 21 C-6.21987193 16.10646935 -4.29688119 12.14935874 -2.15625 7.71875 C-1.05264007 5.12377531 -0.44255109 2.77600227 0 0 Z " fill="#808080" transform="translate(805,190)"/>
<path d="M0 0 C0.66 0 1.32 0 2 0 C3.52761069 5.56757284 4.59980681 10.28640424 3 16 C1.25 18 1.25 18 -1 19 C-3.75 18.6875 -3.75 18.6875 -6 18 C-6 16.68 -6 15.36 -6 14 C-5.34 14 -4.68 14 -4 14 C-3.67 14.66 -3.34 15.32 -3 16 C-2.01 16 -1.02 16 0 16 C0 10.72 0 5.44 0 0 Z " fill="#888888" transform="translate(726,193)"/>
<path d="M0 0 C0.66 0.33 1.32 0.66 2 1 C1.525625 1.886875 1.05125 2.77375 0.5625 3.6875 C-0.79737149 6.57042756 -1.54060386 8.87610623 -2 12 C1.60513403 9.93992341 4.80331012 7.6486859 8 5 C8 8 8 8 6.42578125 9.60546875 C5.72839844 10.12753906 5.03101563 10.64960938 4.3125 11.1875 C3.62800781 11.71730469 2.94351562 12.24710938 2.23828125 12.79296875 C-0.37464398 14.20203314 -2.07442819 14.2305617 -5 14 C-4.93999894 12.3739713 -4.8512115 10.74898451 -4.75 9.125 C-4.70359375 8.22007812 -4.6571875 7.31515625 -4.609375 6.3828125 C-4 4 -4 4 -1.953125 2.6796875 C-1.30859375 2.45539063 -0.6640625 2.23109375 0 2 C0 1.34 0 0.68 0 0 Z " fill="#8C8C8C" transform="translate(370,197)"/>
<path d="M0 0 C1.32 0 2.64 0 4 0 C3.34 4.29 2.68 8.58 2 13 C3.98 13 5.96 13 8 13 C8 13.33 8 13.66 8 14 C4.37 14 0.74 14 -3 14 C-2.690625 12.80375 -2.38125 11.6075 -2.0625 10.375 C-1.19968427 6.93597561 -0.52629514 3.50863427 0 0 Z " fill="#8D8D8D" transform="translate(191,197)"/>
<path d="M0 0 C2.375 -0.1875 2.375 -0.1875 5 0 C7.59763372 3.89645057 7.09812449 5.97642742 6.55078125 10.48046875 C5.75155704 14.13649437 4.4458461 16.18357116 2 19 C1.34 19 0.68 19 0 19 C0.66978583 14.84732788 1.97102758 11.03338678 3.37890625 7.0859375 C4.14268568 4.88353155 4.14268568 4.88353155 4 2 C2.68 2 1.36 2 0 2 C0 1.34 0 0.68 0 0 Z " fill="#8A8A8A" transform="translate(516,190)"/>
<path d="M0 0 C4.875 0.875 4.875 0.875 6 2 C6.20483612 8.6864362 4.21640435 13.85099531 0 19 C-0.66 19.33 -1.32 19.66 -2 20 C-1.80664062 19.46632812 -1.61328125 18.93265625 -1.4140625 18.3828125 C0.58697448 12.65707301 1.94084244 6.96866438 3 1 C1.68 1.33 0.36 1.66 -1 2 C-0.67 1.34 -0.34 0.68 0 0 Z " fill="#888888" transform="translate(672,190)"/>
<path d="M0 0 C0.99 0.33 1.98 0.66 3 1 C2.7312159 4.94216678 2.44655191 6.56489814 -0.4375 9.375 C-3 11 -3 11 -5 11 C-5.33 10.01 -5.66 9.02 -6 8 C-4.41866551 4.83733102 -2.61885488 2.36944013 0 0 Z " fill="#F1F1F1" transform="translate(345,189)"/>
<path d="M0 0 C-0.59789358 4.18525505 -1.36264035 8.08852973 -3 12 C-3.99 12.33 -4.98 12.66 -6 13 C-7.74670185 7.75989446 -7.74670185 7.75989446 -8 5 C-5.88796624 2.05823869 -3.74876219 0 0 0 Z " fill="#D3D3D3" transform="translate(1129,190)"/>
<path d="M0 0 C0.99 0.66 1.98 1.32 3 2 C2.07506212 5.78383679 1.60628829 7.56693694 -1.625 9.875 C-2.40875 10.24625 -3.1925 10.6175 -4 11 C-4.66 10.01 -5.32 9.02 -6 8 C-2.25 1.125 -2.25 1.125 0 0 Z " fill="#EFEFEF" transform="translate(636,195)"/>
<path d="M0 0 C3.3 0.33 6.6 0.66 10 1 C9.01 1.33 8.02 1.66 7 2 C7.12375 3.8253125 7.12375 3.8253125 7.25 5.6875 C7.23322469 8.84685015 7.00168508 9.99689945 5.4375 12.875 C2.44749098 15.48167453 -0.15446665 16.18652179 -4 17 C-3 15 -3 15 -0.5625 13.6875 C2.49047538 11.67700401 3.08529997 10.49249102 4 7 C4.16798262 4.29113059 4.16798262 4.29113059 4 2 C2.68 2 1.36 2 0 2 C0 1.34 0 0.68 0 0 Z " fill="#828282" transform="translate(635,190)"/>
<path d="M0 0 C1.32 0 2.64 0 4 0 C4 3.3405469 3.48887111 4.11841401 1.6875 6.8125 C-0.45863892 10.11096919 -2.30898643 13.43997142 -4 17 C-4.66 17 -5.32 17 -6 17 C-6 16.01 -6 15.02 -6 14 C-5.34 14 -4.68 14 -4 14 C-4.020625 13.05125 -4.04125 12.1025 -4.0625 11.125 C-4 8 -4 8 -3 6 C-2.34 6 -1.68 6 -1 6 C-1.020625 5.195625 -1.04125 4.39125 -1.0625 3.5625 C-1 1 -1 1 0 0 Z " fill="#A5A5A5" transform="translate(664,194)"/>
<path d="M0 0 C1.65 0 3.3 0 5 0 C3.07443364 6.85618326 0.7527517 13.43252132 -2 20 C-2.33 20 -2.66 20 -3 20 C-3 17.69 -3 15.38 -3 13 C-2.34 13 -1.68 13 -1 13 C-1.0309375 11.7934375 -1.0309375 11.7934375 -1.0625 10.5625 C-1 8 -1 8 0 7 C0.04092937 4.66702567 0.04241723 2.33294775 0 0 Z " fill="#959595" transform="translate(587,177)"/>
<path d="M0 0 C0.66 0.33 1.32 0.66 2 1 C1.484375 1.598125 0.96875 2.19625 0.4375 2.8125 C-0.2740625 3.8953125 -0.2740625 3.8953125 -1 5 C-0.67 5.99 -0.34 6.98 0 8 C1.60414215 6.81476003 1.60414215 6.81476003 3 5 C3.25069913 2.37429296 3.25069913 2.37429296 3 0 C3.99 0.33 4.98 0.66 6 1 C6.36116409 4.25047681 6.30929204 5.58761061 4.3125 8.25 C1.79937138 10.15182706 0.10096781 10.65544802 -3 11 C-4.04434887 7.67707176 -4.2162055 6.43241099 -2.625 3.25 C-1 1 -1 1 0 0 Z " fill="#A1A1A1" transform="translate(1192,190)"/>
<path d="M0 0 C0 1.32 0 2.64 0 4 C-0.61875 4.12375 -1.2375 4.2475 -1.875 4.375 C-4.19120832 4.87197356 -4.19120832 4.87197356 -6 7 C-7.31747324 7.69748583 -8.64914193 8.36959957 -10 9 C-9.55090939 7.51800098 -9.09043436 6.03944764 -8.625 4.5625 C-8.36976563 3.73878906 -8.11453125 2.91507813 -7.8515625 2.06640625 C-6.17760825 -1.99562035 -3.68580708 -0.87295431 0 0 Z " fill="#ECECEC" transform="translate(935,191)"/>
<path d="M0 0 C0.33 0 0.66 0 1 0 C1.04241723 2.33294775 1.04092937 4.66702567 1 7 C0.67 7.33 0.34 7.66 0 8 C-0.23075082 9.34747084 -0.41153063 10.70377565 -0.5625 12.0625 C-0.706875 13.361875 -0.85125 14.66125 -1 16 C-1.99 16 -2.98 16 -4 16 C-4 18.97 -4 21.94 -4 25 C-4.99 24.67 -5.98 24.34 -7 24 C-5.08927776 15.83600499 -2.76477561 7.9153982 0 0 Z " fill="#ABABAB" transform="translate(623,62)"/>
<path d="M0 0 C0.66 0 1.32 0 2 0 C1.47731534 2.76276177 0.89130413 5.3260876 0 8 C1.32 8.33 2.64 8.66 4 9 C2.02 9 0.04 9 -2 9 C-2.12375 9.78375 -2.2475 10.5675 -2.375 11.375 C-3 14 -3 14 -5 16 C-4.979375 15.05125 -4.95875 14.1025 -4.9375 13.125 C-4.77448174 10.09333717 -4.77448174 10.09333717 -6 8 C-5.01 8 -4.02 8 -3 8 C-2.87625 7.236875 -2.7525 6.47375 -2.625 5.6875 C-2 3 -2 3 0 0 Z " fill="#808080" transform="translate(447,183)"/>
<path d="M0 0 C0.99 0 1.98 0 3 0 C3 2.64 3 5.28 3 8 C6.54518884 6.60240095 6.54518884 6.60240095 10 5 C8.63016497 8.16115776 8.0109362 8.9927092 5 11 C2.875 10.75 2.875 10.75 1 10 C-0.60725635 6.78548731 -0.05748185 3.56387464 0 0 Z " fill="#949494" transform="translate(259,201)"/>
<path d="M0 0 C0.99 0 1.98 0 3 0 C3 3.96 3 7.92 3 12 C1 9 1 9 1 7 C0.34 7 -0.32 7 -1 7 C-1.33 6.34 -1.66 5.68 -2 5 C-3.32 6.32 -4.64 7.64 -6 9 C-6.66 8.67 -7.32 8.34 -8 8 C-7.0479279 6.99403703 -6.08812654 5.99538437 -5.125 5 C-4.59132813 4.443125 -4.05765625 3.88625 -3.5078125 3.3125 C-2 2 -2 2 0 2 C0 1.34 0 0.68 0 0 Z " fill="#E3E3E3" transform="translate(864,183)"/>
<path d="M0 0 C1.32 0.33 2.64 0.66 4 1 C4.57374185 7.88490225 3.4753869 12.02667877 0 18 C-0.66 18 -1.32 18 -2 18 C-0.68 12.39 0.64 6.78 2 1 C1.34 0.67 0.68 0.34 0 0 Z " fill="#868686" transform="translate(963,190)"/>
<path d="M0 0 C0.33 0.66 0.66 1.32 1 2 C3.51948641 2.43103098 3.51948641 2.43103098 6.4375 2.5625 C11.81165919 2.9058296 11.81165919 2.9058296 14 4 C13.67 4.66 13.34 5.32 13 6 C7.06 6 1.12 6 -5 6 C-5 5.34 -5 4.68 -5 4 C-4.34 4 -3.68 4 -3 4 C-2.67 3.01 -2.34 2.02 -2 1 C-1.34 0.67 -0.68 0.34 0 0 Z " fill="#B1B1B1" transform="translate(853,194)"/>
<path d="M0 0 C0.66 0 1.32 0 2 0 C2 10.89 2 21.78 2 33 C1.67 33 1.34 33 1 33 C0.97494385 32.24380371 0.9498877 31.48760742 0.92407227 30.70849609 C0.80763114 27.26384541 0.68512338 23.81943592 0.5625 20.375 C0.52318359 19.18519531 0.48386719 17.99539062 0.44335938 16.76953125 C0.40146484 15.61582031 0.35957031 14.46210938 0.31640625 13.2734375 C0.27974854 12.21560059 0.24309082 11.15776367 0.20532227 10.06787109 C0.05065884 6.94269892 0.05065884 6.94269892 -0.58227539 3.67041016 C-0.72012451 2.7891748 -0.85797363 1.90793945 -1 1 C-0.67 0.67 -0.34 0.34 0 0 Z " fill="#949494" transform="translate(460,11)"/>
<path d="M0 0 C2.475 0.99 2.475 0.99 5 2 C3.125 7.75 3.125 7.75 2 10 C0.68 9.67 -0.64 9.34 -2 9 C-1.505 7.6078125 -1.505 7.6078125 -1 6.1875 C0.14967004 3.07970709 0.14967004 3.07970709 0 0 Z " fill="#EBEBEB" transform="translate(376,192)"/>
<path d="M0 0 C1.32 0 2.64 0 4 0 C3.54548816 1.73017508 3.08621143 3.45909877 2.625 5.1875 C2.36976563 6.15042969 2.11453125 7.11335937 1.8515625 8.10546875 C1.05233704 10.82210207 0.0968638 13.39137175 -1 16 C-1.33 16 -1.66 16 -2 16 C-2.09765625 9.84765625 -2.09765625 9.84765625 -2 8 C-1.67 7.67 -1.34 7.34 -1 7 C-0.63239269 4.67182036 -0.29758419 2.3381615 0 0 Z " fill="#9E9E9E" transform="translate(668,177)"/>
<path d="M0 0 C0.66 0 1.32 0 2 0 C0.83775672 5.3885825 -0.3648994 8.60092623 -5 12 C-8.8125 12.3125 -8.8125 12.3125 -12 12 C-12 11.01 -12 10.02 -12 9 C-9.03 9.495 -9.03 9.495 -6 10 C-3.78286492 6.74820188 -1.65167557 3.5786304 0 0 Z " fill="#888888" transform="translate(539,212)"/>
<path d="M0 0 C0.28875 0.639375 0.5775 1.27875 0.875 1.9375 C1.82823451 4.15206079 1.82823451 4.15206079 4 5 C4 13.91 4 22.82 4 32 C3.67 32 3.34 32 3 32 C2.98018066 31.2886792 2.96036133 30.5773584 2.93994141 29.84448242 C2.84475133 26.62511184 2.73504771 23.4063955 2.625 20.1875 C2.57859375 18.50817383 2.57859375 18.50817383 2.53125 16.79492188 C2.49257812 15.72177734 2.45390625 14.64863281 2.4140625 13.54296875 C2.3826416 12.55321045 2.3512207 11.56345215 2.31884766 10.54370117 C2.16226567 7.75924906 2.16226567 7.75924906 0 5 C-0.125 2.3125 -0.125 2.3125 0 0 Z " fill="#A0A0A0" transform="translate(1141,43)"/>
<path d="M0 0 C-0.62759865 2.92879371 -1.58622659 5.36095629 -3 8 C-3.99 8 -4.98 8 -6 8 C-6 7.01 -6 6.02 -6 5 C-6.99 5.66 -7.98 6.32 -9 7 C-7.16766277 2.5718517 -4.96404317 0 0 0 Z " fill="#9B9B9B" transform="translate(411,190)"/>
<path d="M0 0 C0.33 0 0.66 0 1 0 C1 6.6 1 13.2 1 20 C0.67 18.68 0.34 17.36 0 16 C-0.66 16 -1.32 16 -2 16 C-2 15.34 -2 14.68 -2 14 C-2.66 13.67 -3.32 13.34 -4 13 C-2.68 13 -1.36 13 0 13 C-0.33 12.34 -0.66 11.68 -1 11 C-1.09499503 9.50243129 -1.12987198 8.00057068 -1.125 6.5 C-1.12886719 5.30890625 -1.12886719 5.30890625 -1.1328125 4.09375 C-1 2 -1 2 0 0 Z " fill="#7A7A7A" transform="translate(869,184)"/>
<path d="M0 0 C1.65 0.33 3.3 0.66 5 1 C5 2.32 5 3.64 5 5 C4.01 5.33 3.02 5.66 2 6 C1.34 6.66 0.68 7.32 0 8 C0 7.34 0 6.68 0 6 C-0.99 5.67 -1.98 5.34 -3 5 C-2.01 3.35 -1.02 1.7 0 0 Z " fill="#C1C1C1" transform="translate(1074,190)"/>
<path d="M0 0 C1.0625 1.8125 1.0625 1.8125 2 4 C1.67 4.99 1.34 5.98 1 7 C1.99 6.67 2.98 6.34 4 6 C4 6.66 4 7.32 4 8 C1.4385343 10.29648649 0.52032428 11 -3 11 C-2.53199289 6.94393835 -2.12046792 3.53411321 0 0 Z " fill="#A3A3A3" transform="translate(765,201)"/>
<path d="M0 0 C1.48828125 1.30078125 1.48828125 1.30078125 3 3 C3.1875 6.1875 3.1875 6.1875 3 9 C4.65 8.67 6.3 8.34 8 8 C8 8.66 8 9.32 8 10 C5 12 5 12 2.875 11.6875 C1 11 1 11 0 10 C-0.07205511 8.31391034 -0.08386068 6.62499341 -0.0625 4.9375 C-0.05347656 4.01839844 -0.04445313 3.09929687 -0.03515625 2.15234375 C-0.02355469 1.44207031 -0.01195312 0.73179687 0 0 Z " fill="#ADADAD" transform="translate(1036,200)"/>
<path d="M0 0 C0 3 0 3 -1.57421875 4.75390625 C-8.592641 10.76043028 -8.592641 10.76043028 -13 12 C-13 11.01 -13 10.02 -13 9 C-12.34 9 -11.68 9 -11 9 C-11 8.01 -11 7.02 -11 6 C-10.34 6 -9.68 6 -9 6 C-9 6.66 -9 7.32 -9 8 C-7.68712379 6.85459775 -6.37470979 5.70866567 -5.0625 4.5625 C-4.33160156 3.92441406 -3.60070312 3.28632813 -2.84765625 2.62890625 C-1.87860647 1.77458541 -0.91348825 0.91348825 0 0 Z " fill="#9D9D9D" transform="translate(412,200)"/>
<path d="M0 0 C0.66 0.33 1.32 0.66 2 1 C0.35 2.98 -1.3 4.96 -3 7 C-2.01 8.485 -2.01 8.485 -1 10 C-4.3 10 -7.6 10 -11 10 C-10.29875 9.46375 -9.5975 8.9275 -8.875 8.375 C-5.69584371 5.74874046 -2.880978 2.94797749 0 0 Z " fill="#AFAFAF" transform="translate(845,201)"/>
<path d="M0 0 C0.99 0 1.98 0 3 0 C2.62952882 2.74148672 2.31412056 4.58593199 0.625 6.8125 C-1 8 -1 8 -4 8 C-2.25 2.25 -2.25 2.25 0 0 Z " fill="#F0F0F0" transform="translate(268,191)"/>
<path d="M0 0 C0.99 0.33 1.98 0.66 3 1 C3.3125 3.25 3.3125 3.25 3 6 C0.5 8.3125 0.5 8.3125 -2 10 C-2.6875 8.3125 -2.6875 8.3125 -3 6 C-1.5625 3.3125 -1.5625 3.3125 0 1 C0 0.67 0 0.34 0 0 Z " fill="#EFEFEF" transform="translate(1193,189)"/>
<path d="M0 0 C0.36407767 4.49029126 0.36407767 4.49029126 -1.25 6.75 C-3.16858571 8.12041836 -4.69091968 8.6018827 -7 9 C-4.4 0 -4.4 0 0 0 Z " fill="#F0F0F0" transform="translate(1047,191)"/>
<path d="M0 0 C0.99 0 1.98 0 3 0 C3.22577402 5.4185766 2.46670113 9.77487721 1 15 C0.67 15 0.34 15 0 15 C0 10.05 0 5.1 0 0 Z " fill="#7D7D7D" transform="translate(195,178)"/>
<path d="M0 0 C1.32 0 2.64 0 4 0 C3.52343588 1.79236067 3.04366502 3.58386897 2.5625 5.375 C2.29566406 6.37273437 2.02882812 7.37046875 1.75390625 8.3984375 C1 11 1 11 0 13 C-0.66 13 -1.32 13 -2 13 C-2 11.68 -2 10.36 -2 9 C-1.34 9 -0.68 9 0 9 C0 6.03 0 3.06 0 0 Z " fill="#8F8F8F" transform="translate(233,177)"/>
<path d="M0 0 C0.99 0.33 1.98 0.66 3 1 C2.40601504 6.34586466 2.40601504 6.34586466 0.875 8.8125 C-1.93062237 10.58939417 -4.74104317 10.69255124 -8 11 C-7.67 10.01 -7.34 9.02 -7 8 C-7 8.66 -7 9.32 -7 10 C-3.93942994 8.40521237 -3.93942994 8.40521237 -1 6 C-0.0311941 2.86734521 -0.0311941 2.86734521 0 0 Z " fill="#8D8D8D" transform="translate(347,190)"/>
<path d="M0 0 C0.33 0 0.66 0 1 0 C1.33 5.28 1.66 10.56 2 16 C0.68 15.67 -0.64 15.34 -2 15 C-1.34 10.05 -0.68 5.1 0 0 Z " fill="#A0A0A0" transform="translate(194,181)"/>
<path d="M0 0 C-0.42594588 1.44096586 -0.86626633 2.87768712 -1.3125 4.3125 C-1.55613281 5.11300781 -1.79976562 5.91351563 -2.05078125 6.73828125 C-3.04182023 9.09964573 -4.08074943 10.33879993 -6 12 C-5.25 5.375 -5.25 5.375 -3 2 C-3.66 1.67 -4.32 1.34 -5 1 C-3 0 -3 0 0 0 Z " fill="#868686" transform="translate(994,190)"/>
<path d="M0 0 C0.66 0.33 1.32 0.66 2 1 C1.25 3.4375 1.25 3.4375 0 6 C-2.0625 6.875 -2.0625 6.875 -4 7 C-5 6 -5 6 -5.0625 3.4375 C-5.041875 2.633125 -5.02125 1.82875 -5 1 C-3 0 -3 0 0 0 Z " fill="#CECECE" transform="translate(670,205)"/>
<path d="M0 0 C0.99 0.33 1.98 0.66 3 1 C2.01 2.98 1.02 4.96 0 7 C1.65 7 3.3 7 5 7 C5 7.33 5 7.66 5 8 C3.02 8 1.04 8 -1 8 C-1.33 8.99 -1.66 9.98 -2 11 C-2.95465783 8.83032311 -3.14401212 7.43671207 -2.3984375 5.17578125 C-1.64129615 3.4315257 -0.82390802 1.71372869 0 0 Z " fill="#8D8D8D" transform="translate(704,184)"/>
<path d="M0 0 C2.97 0.495 2.97 0.495 6 1 C6 3.31 6 5.62 6 8 C5.01 8.33 4.02 8.66 3 9 C3 6.36 3 3.72 3 1 C1.68 1.33 0.36 1.66 -1 2 C-0.67 1.34 -0.34 0.68 0 0 Z " fill="#858585" transform="translate(237,190)"/>
<path d="M0 0 C0.78375 0.04125 1.5675 0.0825 2.375 0.125 C2.045 1.775 1.715 3.425 1.375 5.125 C0.055 4.465 -1.265 3.805 -2.625 3.125 C-3.945 4.445 -5.265 5.765 -6.625 7.125 C-4.07142857 0.19387755 -4.07142857 0.19387755 0 0 Z " fill="#8A8A8A" transform="translate(906.625,189.875)"/>
<path d="M0 0 C-0.66 1.32 -1.32 2.64 -2 4 C-2 3.01 -2 2.02 -2 1 C-4.96404505 3.80804268 -7.44499019 6.18315774 -9 10 C-9.66 10 -10.32 10 -11 10 C-11 8.68 -11 7.36 -11 6 C-10.34 5.67 -9.68 5.34 -9 5 C-8.67 4.34 -8.34 3.68 -8 3 C-6.18317104 -0.63365792 -3.70249681 -0.09743413 0 0 Z " fill="#B4B4B4" transform="translate(1049,190)"/>
<path d="M0 0 C1.65 0 3.3 0 5 0 C3.68 3.96 2.36 7.92 1 12 C0.67 12 0.34 12 0 12 C0 8.04 0 4.08 0 0 Z " fill="#868686" transform="translate(957,177)"/>
<path d="M0 0 C0.99 0.33 1.98 0.66 3 1 C3.08226668 4.04386724 2.97608217 6.07175348 2 9 C1.65772583 10.33106622 1.32248257 11.66400079 1 13 C0.67 13 0.34 13 0 13 C0 8.71 0 4.42 0 0 Z " fill="#8B8B8B" transform="translate(647,51)"/>
<path d="M0 0 C0.33 0.66 0.66 1.32 1 2 C1.66 2.33 2.32 2.66 3 3 C1.49760034 6.61941735 0.17854707 9.7321794 -2 13 C-2.66 12.67 -3.32 12.34 -4 12 C-3.525625 11.13375 -3.05125 10.2675 -2.5625 9.375 C-1.06765105 6.14612626 -0.41781687 3.50966174 0 0 Z " fill="#B8B8B8" transform="translate(239,197)"/>
<path d="M0 0 C1.27514492 3.82543475 0.52740413 5.33423008 -1 9 C-2.578125 10.6875 -2.578125 10.6875 -4 12 C-3.71905418 10.1858073 -3.42493567 8.37364999 -3.125 6.5625 C-2.96257812 5.55316406 -2.80015625 4.54382813 -2.6328125 3.50390625 C-2.42398438 2.67761719 -2.21515625 1.85132813 -2 1 C-1.34 0.67 -0.68 0.34 0 0 Z " fill="#909090" transform="translate(229,196)"/>
<path d="M0 0 C0.99 0 1.98 0 3 0 C2.01 3.3 1.02 6.6 0 10 C-0.66 10 -1.32 10 -2 10 C-2.17942163 6.05272412 -2.09350689 3.4019487 0 0 Z " fill="#989898" transform="translate(631,193)"/>
<path d="M0 0 C1.32 0 2.64 0 4 0 C4.33 1.32 4.66 2.64 5 4 C3.02 4.99 3.02 4.99 1 6 C-0.0625 4.125 -0.0625 4.125 -1 2 C-0.67 1.34 -0.34 0.68 0 0 Z " fill="#8B8B8B" transform="translate(1238,206)"/>
<path d="M0 0 C0.99 1.32 1.98 2.64 3 4 C4.65 2.68 6.3 1.36 8 0 C6.7175023 2.86095641 5.54656011 5.11365918 3 7 C0.3125 7.1875 0.3125 7.1875 -2 7 C-2 6.34 -2 5.68 -2 5 C-1.34 5 -0.68 5 0 5 C0 3.35 0 1.7 0 0 Z " fill="#9E9E9E" transform="translate(603,204)"/>
<path d="M0 0 C0 0.99 0 1.98 0 3 C-1.4609375 4.38671875 -1.4609375 4.38671875 -3.375 5.6875 C-4.00148438 6.12449219 -4.62796875 6.56148437 -5.2734375 7.01171875 C-7 8 -7 8 -9 8 C-9 6.68 -9 5.36 -9 4 C-6 3 -6 3 -4 3 C-2.63838689 2.03886134 -1.30144802 1.04115841 0 0 Z " fill="#979797" transform="translate(1128,203)"/>
<path d="M0 0 C0.66 0 1.32 0 2 0 C2.25532751 3.06393013 2.21861333 4.63233212 0.625 7.3125 C-0.179375 8.1478125 -0.179375 8.1478125 -1 9 C-1.66 9 -2.32 9 -3 9 C-2.44271087 5.65626525 -1.64826111 2.96687001 0 0 Z " fill="#818181" transform="translate(519,200)"/>
<path d="M0 0 C1.49693208 2.36699008 2.0958646 3.48461783 1.57421875 6.2890625 C1.28160156 7.05992187 0.98898437 7.83078125 0.6875 8.625 C0.26017578 9.78902344 0.26017578 9.78902344 -0.17578125 10.9765625 C-1 13 -1 13 -2 15 C-2.99 14.67 -3.98 14.34 -5 14 C-4.34 14 -3.68 14 -3 14 C-3.04125 13.21625 -3.0825 12.4325 -3.125 11.625 C-3 9 -3 9 -1 7 C-0.59952556 4.67724823 -0.2602896 2.34260643 0 0 Z " fill="#AEAEAE" transform="translate(700,191)"/>
<path d="M0 0 C0.66 0 1.32 0 2 0 C1.875 2.75 1.875 2.75 1 6 C-1.8125 8.4375 -1.8125 8.4375 -5 10 C-7.375 9.75 -7.375 9.75 -9 9 C-8.05125 8.54625 -7.1025 8.0925 -6.125 7.625 C-2.99686321 6.19761746 -2.99686321 6.19761746 -1 4 C-0.3574765 1.93125966 -0.3574765 1.93125966 0 0 Z " fill="#888888" transform="translate(271,191)"/>
<path d="M0 0 C1.2065625 0.0309375 1.2065625 0.0309375 2.4375 0.0625 C2.1075 1.7125 1.7775 3.3625 1.4375 5.0625 C0.1175 4.4025 -1.2025 3.7425 -2.5625 3.0625 C-3.5525 3.7225 -4.5425 4.3825 -5.5625 5.0625 C-3.15007962 0.07683121 -3.15007962 0.07683121 0 0 Z " fill="#878787" transform="translate(1170.5625,189.9375)"/>
<path d="M0 0 C0.66 0.33 1.32 0.66 2 1 C1.25 3.4375 1.25 3.4375 0 6 C-1.32303717 6.3721042 -2.65737935 6.70630173 -4 7 C-5.28436734 8.9837767 -5.28436734 8.9837767 -6 11 C-6.33 10.34 -6.66 9.68 -7 9 C-3.75 2.5 -3.75 2.5 0 0 Z " fill="#EDEDED" transform="translate(1297,24)"/>
<path d="M0 0 C1.65 0.33 3.3 0.66 5 1 C4.67 2.32 4.34 3.64 4 5 C2.35 4.67 0.7 4.34 -1 4 C-0.67 2.68 -0.34 1.36 0 0 Z " fill="#8B8B8B" transform="translate(1288,206)"/>
<path d="M0 0 C0.66 0.33 1.32 0.66 2 1 C2 2.66666667 2 4.33333333 2 6 C0.35 6.66 -1.3 7.32 -3 8 C-2.74438677 5.6568787 -2.40729228 3.32156597 -2 1 C-1.34 0.67 -0.68 0.34 0 0 Z " fill="#8B8B8B" transform="translate(414,204)"/>
<path d="M0 0 C0.33 0 0.66 0 1 0 C2.01911045 3.89114901 2.16782969 5.60596507 0.5625 9.375 C0.046875 10.24125 -0.46875 11.1075 -1 12 C-1.66 12 -2.32 12 -3 12 C-2.40075776 7.80530429 -1.42500059 3.99000166 0 0 Z " fill="#A3A3A3" transform="translate(1158,200)"/>
<path d="M0 0 C0.66 0 1.32 0 2 0 C2 0.66 2 1.32 2 2 C1.34 2 0.68 2 0 2 C0 1.34 0 0.68 0 0 Z M-4 1 C-2.02 1.495 -2.02 1.495 0 2 C0 2.99 0 3.98 0 5 C-2 6.6875 -2 6.6875 -4 8 C-4.93423645 4.98968256 -5.04449911 4.13349732 -4 1 Z " fill="#DCDCDC" transform="translate(1138,202)"/>
<path d="M0 0 C0 1.98 0 3.96 0 6 C-3 6 -3 6 -4.6875 4.5 C-5.120625 4.005 -5.55375 3.51 -6 3 C-2.25 0 -2.25 0 0 0 Z " fill="#EFEFEF" transform="translate(965,191)"/>
<path d="M0 0 C3.63 0 7.26 0 11 0 C11 0.33 11 0.66 11 1 C10.37351563 1.10957031 9.74703125 1.21914062 9.1015625 1.33203125 C8.28429687 1.49058594 7.46703125 1.64914063 6.625 1.8125 C5.40683594 2.03873047 5.40683594 2.03873047 4.1640625 2.26953125 C1.64179359 2.87544942 1.64179359 2.87544942 0 6 C-0.66 5.67 -1.32 5.34 -2 5 C-1.34 3.35 -0.68 1.7 0 0 Z " fill="#909090" transform="translate(182,177)"/>
<path d="M0 0 C0.66 0.99 1.32 1.98 2 3 C0.3125 4.5625 0.3125 4.5625 -2 6 C-4.75 5.6875 -4.75 5.6875 -7 5 C-7 3.68 -7 2.36 -7 1 C-6.34 1 -5.68 1 -5 1 C-4.67 1.66 -4.34 2.32 -4 3 C-3.01 3 -2.02 3 -1 3 C-0.67 2.01 -0.34 1.02 0 0 Z " fill="#919191" transform="translate(727,206)"/>
<path d="M0 0 C0.66 0.33 1.32 0.66 2 1 C1.525625 1.886875 1.05125 2.77375 0.5625 3.6875 C-0.79737149 6.57042756 -1.54060386 8.87610623 -2 12 C-3.61949011 9.42786866 -4.04408751 8.32330841 -3.625 5.25 C-3.41875 4.5075 -3.2125 3.765 -3 3 C-2.01 2.67 -1.02 2.34 0 2 C0 1.34 0 0.68 0 0 Z " fill="#B9B9B9" transform="translate(370,197)"/>
<path d="M0 0 C2.0625 0.4375 2.0625 0.4375 4 1 C3.67 2.32 3.34 3.64 3 5 C1.02 5 -0.96 5 -3 5 C-1.125 1.125 -1.125 1.125 0 0 Z " fill="#EAEAEA" transform="translate(517,191)"/>
<path d="M0 0 C1.32 0 2.64 0 4 0 C4 1.65 4 3.3 4 5 C2.35 4.67 0.7 4.34 -1 4 C-0.67 2.68 -0.34 1.36 0 0 Z " fill="#959595" transform="translate(1263,206)"/>
<path d="M0 0 C1.32 0.33 2.64 0.66 4 1 C2.84826645 3.46800047 1.95216435 5.04783565 0 7 C-0.66 6.34 -1.32 5.68 -2 5 C-1.34 3.35 -0.68 1.7 0 0 Z " fill="#D0D0D0" transform="translate(803,203)"/>
<path d="M0 0 C0.33 0 0.66 0 1 0 C1.1546875 1.175625 1.1546875 1.175625 1.3125 2.375 C1.77595022 5.33045181 1.77595022 5.33045181 5 7 C3.625 9 3.625 9 2 11 C1.34 11 0.68 11 0 11 C0 7.37 0 3.74 0 0 Z " fill="#C0C0C0" transform="translate(307,189)"/>
<path d="M0 0 C0.99 0.33 1.98 0.66 3 1 C3 2.32 3 3.64 3 5 C1.35 5 -0.3 5 -2 5 C-2 3.68 -2 2.36 -2 1 C-1.34 0.67 -0.68 0.34 0 0 Z " fill="#878787" transform="translate(1215,206)"/>
<path d="M0 0 C0.66 0.33 1.32 0.66 2 1 C1.44271087 4.34373475 0.64826111 7.03312999 -1 10 C-1.66 10 -2.32 10 -3 10 C-3 9.01 -3 8.02 -3 7 C-2.34 7 -1.68 7 -1 7 C-1.020625 6.030625 -1.04125 5.06125 -1.0625 4.0625 C-1 1 -1 1 0 0 Z " fill="#959595" transform="translate(661,201)"/>
<path d="M0 0 C0.66 0.33 1.32 0.66 2 1 C-3.14285714 6.57142857 -3.14285714 6.57142857 -7 7 C-7 5.35 -7 3.7 -7 2 C-6.34 2 -5.68 2 -5 2 C-4.67 2.66 -4.34 3.32 -4 4 C-2.68 2.68 -1.36 1.36 0 0 Z " fill="#9A9A9A" transform="translate(585,204)"/>
<path d="M0 0 C1.25 1.5625 1.25 1.5625 2 4 C0.93237266 6.57001015 -0.46544943 8.6530403 -2 11 C-2.33 11 -2.66 11 -3 11 C-3.39253254 6.55129785 -2.15305957 3.85756507 0 0 Z " fill="#919191" transform="translate(607,196)"/>
<path d="M0 0 C-0.875 5.75 -0.875 5.75 -2 8 C-2.66 8 -3.32 8 -4 8 C-4 5.69 -4 3.38 -4 1 C-2 0 -2 0 0 0 Z " fill="#848484" transform="translate(1129,190)"/>
<path d="M0 0 C0.66 0 1.32 0 2 0 C1.45276317 3.37462715 0.9451 5.08235 -1 8 C-1.66 8 -2.32 8 -3 8 C-2.45276317 4.62537285 -1.9451 2.91765 0 0 Z " fill="#A0A0A0" transform="translate(447,183)"/>
<path d="M0 0 C-4.455 2.97 -4.455 2.97 -9 6 C-9.33 5.34 -9.66 4.68 -10 4 C-7.99220736 -0.01558529 -4.07814299 -1.359381 0 0 Z " fill="#818181" transform="translate(1245,105)"/>
<path d="M0 0 C0.66 0.66 1.32 1.32 2 2 C4.26274788 1.64644564 5.95088852 1.02455574 8 0 C8.33 0.99 8.66 1.98 9 3 C6 5 6 5 3.3125 4.625 C2.549375 4.41875 1.78625 4.2125 1 4 C0.67 2.68 0.34 1.36 0 0 Z " fill="#9E9E9E" transform="translate(508,207)"/>
<path d="M0 0 C0.66 0.33 1.32 0.66 2 1 C0.90398831 2.00893131 -0.20213918 3.00688225 -1.3125 4 C-2.23482422 4.8353125 -2.23482422 4.8353125 -3.17578125 5.6875 C-5 7 -5 7 -8 7 C-8 6.01 -8 5.02 -8 4 C-7.236875 3.896875 -6.47375 3.79375 -5.6875 3.6875 C-2.82940576 2.95635961 -1.84257115 2.23048087 0 0 Z " fill="#8C8C8C" transform="translate(444,204)"/>
<path d="M0 0 C2 3 2 3 1.8125 6.0625 C1 9 1 9 -2 11 C-2.28571429 3.57142857 -2.28571429 3.57142857 0 0 Z " fill="#ADADAD" transform="translate(338,198)"/>
<path d="M0 0 C1.65 0 3.3 0 5 0 C4.67 1.65 4.34 3.3 4 5 C3.34 4.67 2.68 4.34 2 4 C1.01 4.33 0.02 4.66 -1 5 C-0.67 3.35 -0.34 1.7 0 0 Z M1 5 C3 6 3 6 3 6 Z " fill="#DADADA" transform="translate(987,204)"/>
<path d="M0 0 C-0.99 1.98 -1.98 3.96 -3 6 C-3.268125 5.38125 -3.53625 4.7625 -3.8125 4.125 C-4.95556848 1.7004767 -4.95556848 1.7004767 -8 0 C-4.71303767 -0.79953138 -3.28976808 -1.09658936 0 0 Z " fill="#7C7C7C" transform="translate(385,192)"/>
<path d="M0 0 C1.5 1.375 1.5 1.375 3 3 C3 3.66 3 4.32 3 5 C3.99 5 4.98 5 6 5 C6 5.66 6 6.32 6 7 C4.35 7.66 2.7 8.32 1 9 C-0.4783226 6.04335481 -0.06032783 3.25770263 0 0 Z " fill="#D2D2D2" transform="translate(665,187)"/>
<path d="M0 0 C1.32 1.32 2.64 2.64 4 4 C3.01 5.485 3.01 5.485 2 7 C1.01 7 0.02 7 -1 7 C-0.67 4.69 -0.34 2.38 0 0 Z " fill="#EFEFEF" transform="translate(310,188)"/>
<path d="M0 0 C0.66 0.33 1.32 0.66 2 1 C1.773125 1.598125 1.54625 2.19625 1.3125 2.8125 C1.209375 3.534375 1.10625 4.25625 1 5 C2.35444301 6.77190909 2.35444301 6.77190909 4 8 C-0.875 7.125 -0.875 7.125 -2 6 C-2.04063832 4.33382885 -2.042721 2.66611905 -2 1 C-1.34 0.67 -0.68 0.34 0 0 Z " fill="#898989" transform="translate(623,215)"/>
<path d="M0 0 C0.33 0.66 0.66 1.32 1 2 C2.98 2 4.96 2 7 2 C6.34 2.66 5.68 3.32 5 4 C2.8359375 3.9765625 2.8359375 3.9765625 0.375 3.625 C-0.44226563 3.51414063 -1.25953125 3.40328125 -2.1015625 3.2890625 C-2.72804688 3.19367188 -3.35453125 3.09828125 -4 3 C-2.68 2.01 -1.36 1.02 0 0 Z " fill="#EEEEEE" transform="translate(453,218)"/>
<path d="M0 0 C0.66 0 1.32 0 2 0 C2 1.65 2 3.3 2 5 C1.01 5.495 1.01 5.495 0 6 C-0.65772428 9.02934491 -0.65772428 9.02934491 -1 12 C-1.33 12 -1.66 12 -2 12 C-2.28571429 3.42857143 -2.28571429 3.42857143 0 0 Z " fill="#868686" transform="translate(1187,196)"/>
<path d="M0 0 C0.66 0.33 1.32 0.66 2 1 C1.34 1.928125 0.68 2.85625 0 3.8125 C-2.26574554 6.79636556 -2.26574554 6.79636556 -2 10 C-2.66 10 -3.32 10 -4 10 C-4.33 9.01 -4.66 8.02 -5 7 C-3.58511552 4.23760649 -2.19636905 2.19636905 0 0 Z " fill="#C4C4C4" transform="translate(344,190)"/>
<path d="M0 0 C0 0.99 0 1.98 0 3 C-0.99 3 -1.98 3 -3 3 C-3 2.34 -3 1.68 -3 1 C-4.65 1.66 -6.3 2.32 -8 3 C-7.67 2.01 -7.34 1.02 -7 0 C-4.3333581 -1.33332095 -2.83319697 -0.67102033 0 0 Z " fill="#8F8F8F" transform="translate(935,191)"/>
<path d="M0 0 C0.99 0 1.98 0 3 0 C2.125 4.75 2.125 4.75 1 7 C0.01 6.67 -0.98 6.34 -2 6 C-1.34 4.02 -0.68 2.04 0 0 Z " fill="#A6A6A6" transform="translate(1019,183)"/>
<path d="M0 0 C0.66 0.33 1.32 0.66 2 1 C1.91253716 2.43861294 1.80434652 3.87597508 1.6875 5.3125 C1.62949219 6.11300781 1.57148438 6.91351563 1.51171875 7.73828125 C0.91793306 10.36272334 0.04219706 11.30820672 -2 13 C-1.85851011 11.3954444 -1.71164314 9.79136233 -1.5625 8.1875 C-1.48128906 7.29417969 -1.40007812 6.40085938 -1.31640625 5.48046875 C-1 3 -1 3 0 0 Z " fill="#CBCBCB" transform="translate(509,196)"/>
<path d="M0 0 C1.13643966 3.40931897 0.86747764 4.00335456 -0.4375 7.1875 C-0.72496094 7.90292969 -1.01242187 8.61835938 -1.30859375 9.35546875 C-1.53675781 9.89816406 -1.76492188 10.44085938 -2 11 C-3.125 9.25 -3.125 9.25 -4 7 C-3.03284133 4.34031367 -1.58051758 2.37077638 0 0 Z " fill="#EAEAEA" transform="translate(413,200)"/>
<path d="M0 0 C0.66 1.32 1.32 2.64 2 4 C-0.93828597 6.50298434 -3.17902761 7.46930939 -7 8 C-6 6 -6 6 -3.5 4.5625 C-0.70844517 3.18680459 -0.70844517 3.18680459 0 0 Z " fill="#8E8E8E" transform="translate(638,199)"/>
<path d="M0 0 C0.99 0 1.98 0 3 0 C2.34 2.31 1.68 4.62 1 7 C2.32 7.33 3.64 7.66 5 8 C3.02 8 1.04 8 -1 8 C-0.67 5.36 -0.34 2.72 0 0 Z " fill="#828282" transform="translate(1102,184)"/>
<path d="M0 0 C3.3 0 6.6 0 10 0 C10 1.32 10 2.64 10 4 C9.46375 3.690625 8.9275 3.38125 8.375 3.0625 C5.6015043 1.82172561 2.99957163 1.4090325 0 1 C0 0.67 0 0.34 0 0 Z " fill="#808080" transform="translate(202,177)"/>
<path d="M0 0 C0.66 0.33 1.32 0.66 2 1 C1.67 2.65 1.34 4.3 1 6 C0.01 6 -0.98 6 -2 6 C-2.33 4.68 -2.66 3.36 -3 2 C-2.01 1.34 -1.02 0.68 0 0 Z " fill="#858585" transform="translate(845,107)"/>
<path d="M0 0 C1.5625 1.8125 1.5625 1.8125 3 4 C2.67 4.99 2.34 5.98 2 7 C0.68 7.33 -0.64 7.66 -2 8 C-1.34 5.36 -0.68 2.72 0 0 Z " fill="#DCDCDC" transform="translate(416,201)"/>
<path d="M0 0 C0.66 0 1.32 0 2 0 C1.125 4.75 1.125 4.75 0 7 C-0.66 7 -1.32 7 -2 7 C-1.125 1.125 -1.125 1.125 0 0 Z " fill="#8E8E8E" transform="translate(1097,197)"/>
<path d="M0 0 C0.88492145 2.47778006 1.11637742 3.66056586 0.25 6.1875 C-1 8 -1 8 -4 9 C-2.94124926 5.59687262 -1.99097846 2.98646769 0 0 Z " fill="#7F7F7F" transform="translate(417,196)"/>
<path d="M0 0 C0.99 0 1.98 0 3 0 C2.25 5.75 2.25 5.75 0 8 C0 5.36 0 2.72 0 0 Z " fill="#8D8D8D" transform="translate(897,190)"/>
<path d="M0 0 C2.0625 0.4375 2.0625 0.4375 4 1 C3.01 2.98 2.02 4.96 1 7 C0.67 7 0.34 7 0 7 C-0.38133299 5.0085944 -0.71325582 3.00720923 -1 1 C-0.67 0.67 -0.34 0.34 0 0 Z " fill="#9B9B9B" transform="translate(794,191)"/>
<path d="M0 0 C0 0.33 0 0.66 0 1 C-1.98 1 -3.96 1 -6 1 C-6 1.66 -6 2.32 -6 3 C-6.66 3 -7.32 3 -8 3 C-8 2.34 -8 1.68 -8 1 C-8.99 0.67 -9.98 0.34 -11 0 C-6.94952424 -1.35015859 -4.2079832 -0.62084998 0 0 Z " fill="#818181" transform="translate(1024,191)"/>
<path d="M0 0 C0.66 0 1.32 0 2 0 C2.33 1.32 2.66 2.64 3 4 C-1.455 4.495 -1.455 4.495 -6 5 C-2.25 2 -2.25 2 0 2 C0 1.34 0 0.68 0 0 Z " fill="#999999" transform="translate(1234,96)"/>
<path d="M0 0 C0 1.98 0 3.96 0 6 C-0.66 6 -1.32 6 -2 6 C-2.66 4.35 -3.32 2.7 -4 1 C-2 0 -2 0 0 0 Z " fill="#8A8A8A" transform="translate(631,207)"/>
<path d="M0 0 C1.65 0 3.3 0 5 0 C5.33 1.32 5.66 2.64 6 4 C4.125 3.6875 4.125 3.6875 2 3 C1.34 2.01 0.68 1.02 0 0 Z " fill="#838383" transform="translate(729,190)"/>
<path d="M0 0 C2.73684211 4.10526316 2.73684211 4.10526316 3 7 C2.01 8.32 1.02 9.64 0 11 C0 7.37 0 3.74 0 0 Z " fill="#888888" transform="translate(647,102)"/>
<path d="M0 0 C0.33 0.66 0.66 1.32 1 2 C1.66 2.33 2.32 2.66 3 3 C1.02 4.32 -0.96 5.64 -3 7 C-3 6.01 -3 5.02 -3 4 C-2.01 3.67 -1.02 3.34 0 3 C0 2.01 0 1.02 0 0 Z " fill="#7D7D7D" transform="translate(526,102)"/>
<path d="M0 0 C0.33 0 0.66 0 1 0 C1.25 2.8125 1.25 2.8125 1 6 C-1 7.875 -1 7.875 -3 9 C-2.01 6.03 -1.02 3.06 0 0 Z " fill="#ECECEC" transform="translate(645,32)"/>
<path d="M0 0 C0.33 0.66 0.66 1.32 1 2 C0.34 2 -0.32 2 -1 2 C-1 2.99 -1 3.98 -1 5 C-2.65 5 -4.3 5 -6 5 C-6 4.34 -6 3.68 -6 3 C-5.01 3 -4.02 3 -3 3 C-3 2.34 -3 1.68 -3 1 C-2.01 0.67 -1.02 0.34 0 0 Z " fill="#999999" transform="translate(1084,15)"/>
</svg>
